<mxfile host="Electron" modified="2024-02-05T17:23:36.337Z" agent="Mozilla/5.0 (X11; Linux x86_64) AppleWebKit/537.36 (KHTML, like Gecko) draw.io/23.0.2 Chrome/120.0.6099.109 Electron/28.1.0 Safari/537.36" etag="mVWayC2Ue_p4bBDp3_QE" version="23.0.2" type="device">
  <diagram name="Page-1" id="U7Jbti-24d933YwoqNgD">
    <mxGraphModel dx="779" dy="482" grid="1" gridSize="10" guides="1" tooltips="1" connect="1" arrows="1" fold="1" page="1" pageScale="1" pageWidth="850" pageHeight="1100" math="0" shadow="0">
      <root>
        <mxCell id="0" />
        <mxCell id="1" parent="0" />
        <mxCell id="SnS-91N-TXIG-HKsuQVp-28" style="edgeStyle=orthogonalEdgeStyle;rounded=0;orthogonalLoop=1;jettySize=auto;html=1;entryX=0;entryY=0.5;entryDx=0;entryDy=0;startArrow=classic;startFill=1;" edge="1" parent="1" source="SnS-91N-TXIG-HKsuQVp-1" target="SnS-91N-TXIG-HKsuQVp-17">
          <mxGeometry relative="1" as="geometry" />
        </mxCell>
        <mxCell id="SnS-91N-TXIG-HKsuQVp-1" value="" style="outlineConnect=0;dashed=0;verticalLabelPosition=bottom;verticalAlign=top;align=center;html=1;shape=mxgraph.aws3.mobile_client;fillColor=#D2D3D3;gradientColor=none;" vertex="1" parent="1">
          <mxGeometry x="60" y="240" width="50" height="80" as="geometry" />
        </mxCell>
        <mxCell id="SnS-91N-TXIG-HKsuQVp-4" value="Client" style="text;html=1;align=center;verticalAlign=middle;resizable=0;points=[];autosize=1;strokeColor=none;fillColor=none;" vertex="1" parent="1">
          <mxGeometry x="60" y="320" width="50" height="30" as="geometry" />
        </mxCell>
        <mxCell id="SnS-91N-TXIG-HKsuQVp-30" style="edgeStyle=orthogonalEdgeStyle;rounded=0;orthogonalLoop=1;jettySize=auto;html=1;startArrow=classic;startFill=1;" edge="1" parent="1" source="SnS-91N-TXIG-HKsuQVp-5">
          <mxGeometry relative="1" as="geometry">
            <mxPoint x="520" y="280" as="targetPoint" />
          </mxGeometry>
        </mxCell>
        <mxCell id="SnS-91N-TXIG-HKsuQVp-5" value="" style="editableCssRules=.*;html=1;shape=image;verticalLabelPosition=bottom;labelBackgroundColor=#ffffff;verticalAlign=top;aspect=fixed;imageAspect=0;image=data:image/svg+xml,PHN2ZyB4bWxucz0iaHR0cDovL3d3dy53My5vcmcvMjAwMC9zdmciIHhtbG5zOnY9Imh0dHBzOi8vdmVjdGEuaW8vbmFubyIgd2lkdGg9IjcwMi44NDYzMTM0NzY1NjI1IiBoZWlnaHQ9IjY4MS45NjcxMDIwNTA3ODEyIiB2aWV3Qm94PSIxMC4wMDEwMjYxNTM1NjQ0NTMgMTAuMDAwOTMzNjQ3MTU1NzYyIDcwMi44NDYzMTM0NzY1NjI1IDY4MS45NjcxMDIwNTA3ODEyIj4mI3hhOwk8c3R5bGUgdHlwZT0idGV4dC9jc3MiPiYjeGE7CS5zdDB7ZmlsbDojMzI2Y2U1O30mI3hhOwkuc3Qxe2ZpbGw6I2ZmZjt9JiN4YTsJPC9zdHlsZT4mI3hhOwk8cGF0aCBjbGFzcz0ic3QwIiBkPSJNMzU4Ljk4NyAxMC4wNmMtNi4yMTMuMzEzLTEyLjMwMSAxLjg1NC0xNy45MDYgNC41MzFMOTYuNzM3IDEzMS4zNDJjLTEyLjgxMSA2LjExOC0yMi4xMTYgMTcuNjg5LTI1LjI4MSAzMS40MzhsLTYwLjI4MSAyNjIuMjVjLTIuODEyIDEyLjIwNy0uNTI0IDI1LjAyNCA2LjM0NCAzNS41MzFhNDYuMzUgNDYuMzUgMCAwIDAgMi42NTYgMy42ODhsMTY5LjEyNSAyMTAuMjgxYzguODY4IDExLjAyMiAyMi4zMTMgMTcuNDQgMzYuNTMxIDE3LjQzOGwyNzEuMjE5LS4wNjJjMTQuMjEyLjAxIDI3LjY1Ny02LjM5NiAzNi41MzEtMTcuNDA2bDE2OS4wNjMtMjEwLjMxM2M4Ljg3My0xMS4wMjggMTIuMTk3LTI1LjQ2NCA5LjAzMS0zOS4yMTlsLTYwLjM3NS0yNjIuMjVjLTMuMTY1LTEzLjc0OC0xMi40Ny0yNS4zMTktMjUuMjgxLTMxLjQzN0wzODEuNjQzIDE0LjU5MmMtNy4wNS0zLjM2OC0xNC44NDEtNC45MjYtMjIuNjU2LTQuNTMxeiIvPiYjeGE7CTxwYXRoIGNsYXNzPSJzdDEgc3QyIiBkPSJNMzYxLjQwOCA5OS4zMDhjLTguMDc3LjAwMS0xNC42MjYgNy4yNzYtMTQuNjI1IDE2LjI1IDAgLjEzOC4wMjguMjY5LjAzMS40MDYtLjAxMiAxLjIxOS0uMDcxIDIuNjg4LS4wMzEgMy43NS4xOTMgNS4xNzYgMS4zMjEgOS4xMzcgMiAxMy45MDYgMS4yMyAxMC4yMDcgMi4yNjEgMTguNjY3IDEuNjI1IDI2LjUzMS0uNjE5IDIuOTY1LTIuODAzIDUuNjc3LTQuNzUgNy41NjNsLS4zNDQgNi4xODhjLTguNzc3LjcyNy0xNy42MTIgMi4wNTktMjYuNDM3IDQuMDYzLTM3Ljk3NSA4LjYyMi03MC42NyAyOC4xODMtOTUuNTYyIDU0LjU5NC0xLjYxNS0xLjEwMi00LjQ0MS0zLjEyOS01LjI4MS0zLjc1LTIuNjExLjM1My01LjI1IDEuMTU4LTguNjg3LS44NDQtNi41NDUtNC40MDYtMTIuNTA2LTEwLjQ4Ny0xOS43MTktMTcuODEyLTMuMzA1LTMuNTA0LTUuNjk4LTYuODQxLTkuNjI1LTEwLjIxOS0uODkyLS43NjctMi4yNTMtMS44MDUtMy4yNS0yLjU5NC0zLjA3LTIuNDQ4LTYuNjkxLTMuNzI0LTEwLjE4Ny0zLjg0NC00LjQ5Ni0uMTU0LTguODI0IDEuNjA0LTExLjY1NiA1LjE1Ni01LjAzNSA2LjMxNS0zLjQyMyAxNS45NjggMy41OTQgMjEuNTYzLjA3MS4wNTcuMTQ3LjEwMS4yMTkuMTU2Ljk2NC43ODIgMi4xNDUgMS43ODMgMy4wMzEgMi40MzggNC4xNjcgMy4wNzcgNy45NzMgNC42NTEgMTIuMTI1IDcuMDk0IDguNzQ3IDUuNDAyIDE1Ljk5OCA5Ljg4MSAyMS43NSAxNS4yODEgMi4yNDYgMi4zOTQgMi42MzkgNi42MTMgMi45MzggOC40MzhsNC42ODggNC4xODhjLTI1LjA5MyAzNy43NjQtMzYuNzA3IDg0LjQwOS0yOS44NDQgMTMxLjkzOGwtNi4xMjUgMS43ODFjLTEuNjE0IDIuMDg1LTMuODk1IDUuMzY1LTYuMjgxIDYuMzQ0LTcuNTI1IDIuMzctMTUuOTk0IDMuMjQxLTI2LjIxOSA0LjMxMy00LjguMzk5LTguOTQyLjE2MS0xNC4wMzEgMS4xMjUtMS4xMi4yMTItMi42ODEuNjE5LTMuOTA2LjkwNi0uMDQzLjAwOS0uMDgyLjAyMi0uMTI1LjAzMS0uMDY3LjAxNS0uMTU1LjA0OC0uMjE5LjA2My04LjYyIDIuMDgzLTE0LjE1OCAxMC4wMDYtMTIuMzc1IDE3LjgxM3MxMC4yMDMgMTIuNTU3IDE4Ljg3NSAxMC42ODhjLjA2My0uMDE0LjE1NC0uMDE3LjIxOS0uMDMxLjA5OC0uMDIyLjE4NC0uMDcuMjgxLS4wOTQgMS4yMDktLjI2NSAyLjcyNC0uNTYxIDMuNzgxLS44NDQgNS4wMDMtMS4zNCA4LjYyNy0zLjMwOCAxMy4xMjUtNS4wMzEgOS42NzctMy40NzEgMTcuNjkyLTYuMzcgMjUuNS03LjUgMy4yNjEtLjI1NSA2LjY5NyAyLjAxMiA4LjQwNiAyLjk2OWw2LjM3NS0xLjA5NGMxNC42NyA0NS40ODMgNDUuNDE0IDgyLjI0NSA4NC4zNDQgMTA1LjMxMmwtMi42NTYgNi4zNzVjLjk1NyAyLjQ3NSAyLjAxMyA1LjgyNSAxLjMgOC4yNjktMi44MzkgNy4zNjEtNy43MDEgMTUuMTMxLTEzLjIzOCAyMy43OTMtMi42ODEgNC4wMDItNS40MjUgNy4xMDgtNy44NDQgMTEuNjg4LS41NzkgMS4wOTYtMS4zMTYgMi43NzktMS44NzUgMy45MzgtMy43NTkgOC4wNDItMS4wMDIgMTcuMzA1IDYuMjE5IDIwLjc4MSA3LjI2NiAzLjQ5OCAxNi4yODQtLjE5MSAyMC4xODctOC4yNS4wMDYtLjAxMS4wMjYtLjAyLjAzMS0uMDMxcy0uMDA0LS4wMjMgMC0uMDMxYy41NTYtMS4xNDMgMS4zNDQtMi42NDQgMS44MTMtMy43MTkgMi4wNzItNC43NDcgMi43NjItOC44MTUgNC4yMTktMTMuNDA2IDMuODctOS43MiA1Ljk5Ni0xOS45MTkgMTEuMzIzLTI2LjI3NCAxLjQ1OS0xLjc0IDMuODM3LTIuNDA5IDYuMzAyLTMuMDdsMy4zMTMtNmMzMy45MzggMTMuMDI3IDcxLjkyNyAxNi41MjIgMTA5Ljg3NSA3LjkwNmExODkuNzcgMTg5Ljc3IDAgMCAwIDI1LjA5NC03LjU2MmwzLjEyNSA1LjYyNWMyLjUwNi44MTUgNS4yNCAxLjIzNiA3LjQ2OSA0LjUzMSAzLjk4NSA2LjgwOSA2LjcxMSAxNC44NjQgMTAuMDMxIDI0LjU5NCAxLjQ1NyA0LjU5MSAyLjE3OCA4LjY1OSA0LjI1IDEzLjQwNi40NzIgMS4wODIgMS4yNTYgMi42MDUgMS44MTMgMy43NSAzLjg5NSA4LjA4NSAxMi45NDIgMTEuNzg3IDIwLjIxOSA4LjI4MSA3LjIxOS0zLjQ3OCA5Ljk4LTEyLjc0IDYuMjE5LTIwLjc4MWwtMS45MDYtMy45MzdjLTIuNDE5LTQuNTgtNS4xNjMtNy42NTQtNy44NDQtMTEuNjU2LTUuNTM3LTguNjYyLTEwLjEzLTE1Ljg1OC0xMi45NjktMjMuMjE5LTEuMTg3LTMuNzk3LjItNi4xNTggMS4xMjUtOC42MjUtLjU1NC0uNjM1LTEuNzM5LTQuMjItMi40MzctNS45MDYgNDAuNDU3LTIzLjg4OCA3MC4yOTktNjIuMDIxIDg0LjMxMy0xMDYuMDYyIDEuODkyLjI5NyA1LjE4Mi44NzkgNi4yNSAxLjA5NCAyLjItMS40NTEgNC4yMjItMy4zNDQgOC4xODgtMy4wMzEgNy44MDggMS4xMjkgMTUuODIzIDQuMDMgMjUuNSA3LjUgNC40OTggMS43MjMgOC4xMjIgMy43MjMgMTMuMTI1IDUuMDYzIDEuMDU3LjI4MyAyLjU3Mi41NDcgMy43ODEuODEzLjA5Ny4wMjQuMTgzLjA3MS4yODEuMDk0LjA2NS4wMTUuMTU2LjAxNy4yMTkuMDMxIDguNjcyIDEuODY3IDE3LjA5NC0yLjg3OSAxOC44NzUtMTAuNjg3cy0zLjc1NC0xNS43MzItMTIuMzc1LTE3LjgxMmMtMS4yNTQtLjI4NS0zLjAzMi0uNzY5LTQuMjUtMS01LjA4OS0uOTY0LTkuMjMxLS43MjYtMTQuMDMxLTEuMTI1LTEwLjIyNS0xLjA3MS0xOC42OTMtMS45NDMtMjYuMjE5LTQuMzEyLTMuMDY4LTEuMTktNS4yNTEtNC44NDEtNi4zMTMtNi4zNDRsLTUuOTA2LTEuNzE5YzMuMDYyLTIyLjE1NCAyLjIzNy00NS4yMTEtMy4wNjItNjguMjgxLTUuMzQ4LTIzLjI4NS0xNC44LTQ0LjU4MS0yNy40MDYtNjMuMzQ0bDUuMTg4LTQuNjU2Yy4yMzctMi42MjQuMDMzLTUuMzc2IDIuNzUtOC4yODEgNS43NTEtNS40MDEgMTMuMDAzLTkuODc5IDIxLjc1LTE1LjI4MSA0LjE1Mi0yLjQ0MyA3Ljk5LTQuMDE3IDEyLjE1Ni03LjA5NC45NDItLjY5NiAyLjIyOS0xLjc5OCAzLjIxOS0yLjU5NCA3LjAxNS01LjU5NiA4LjYzMS0xNS4yNDggMy41OTQtMjEuNTYycy0xNC43OTctNi45MDktMjEuODEyLTEuMzEyYy0uOTk5Ljc5MS0yLjM1NCAxLjgyMy0zLjI1IDIuNTk0LTMuOTI3IDMuMzc4LTYuMzUxIDYuNzE0LTkuNjU2IDEwLjIxOS03LjIxMiA3LjMyNi0xMy4xNzQgMTMuNDM4LTE5LjcxOSAxNy44NDQtMi44MzYgMS42NTEtNi45OSAxLjA4LTguODc1Ljk2OWwtNS41NjIgMy45NjljLTMxLjcxOS0zMy4yNjEtNzQuOTA1LTU0LjUyNS0xMjEuNDA2LTU4LjY1NmwtLjM0NC02LjUzMWMtMS45MDQtMS44MjItNC4yMDMtMy4zNzctNC43ODEtNy4zMTItLjYzNi03Ljg2NC40MjYtMTYuMzI1IDEuNjU2LTI2LjUzMS42NzktNC43NjkgMS44MDctOC43MyAyLTEzLjkwNi4wNDQtMS4xNzctLjAyNi0yLjg4NC0uMDMxLTQuMTU2LS4wMDEtOC45NzQtNi41NDgtMTYuMjUxLTE0LjYyNS0xNi4yNXptLTE4LjMxMiAxMTMuNDM4bC00LjM0NCA3Ni43MTktLjMxMi4xNTZjLS4yOTEgNi44NjMtNS45NCAxMi4zNDQtMTIuODc1IDEyLjM0NGExMi44MiAxMi44MiAwIDAgMS03LjU5NC0yLjQ2OWwtLjEyNS4wNjMtNjIuOTA2LTQ0LjU5NGMxOS4zMzQtMTkuMDExIDQ0LjA2My0zMy4wNiA3Mi41NjItMzkuNTMxIDUuMjA2LTEuMTgyIDEwLjQxLTIuMDU5IDE1LjU5NC0yLjY4N3ptMzYuNjU2IDBjMzMuMjczIDQuMDkyIDY0LjA0NSAxOS4xNTkgODcuNjI1IDQyLjI1bC02Mi41IDQ0LjMxMy0uMjE5LS4wOTRhMTIuOTEgMTIuOTEgMCAwIDEtMTcuNjg3LTIuMzc1Yy0xLjc3MS0yLjIyMS0yLjcwMS00LjgzMi0yLjgxMi03LjQ2OWwtLjA2Mi0uMDMxek0yMzIuMTI2IDI4My42Mmw1Ny40MzcgNTEuMzc1LS4wNjIuMzEzYTEyLjg4IDEyLjg4IDAgMCAxIDEuNjI1IDE3Ljc1IDEyLjg5IDEyLjg5IDAgMCAxLTYuNjg3IDQuNDA2bC0uMDYyLjI1LTczLjYyNSAyMS4yNWMtMy43NDctMzQuMjY1IDQuMzI5LTY3LjU3NCAyMS4zNzUtOTUuMzQ0em0yNTguMTU2LjAzMWM4LjUzNCAxMy44MzMgMTQuOTk3IDI5LjI4MiAxOC44NDQgNDYuMDMxIDMuODAxIDE2LjU0OCA0Ljc1NSAzMy4wNjcgMy4xODggNDkuMDMxbC03NC0yMS4zMTItLjA2Mi0uMzEyYy02LjYyNy0xLjgxMS0xMC42OTktOC41NTItOS4xNTYtMTUuMzEyLjYzMi0yLjc3IDIuMTAyLTUuMTEzIDQuMDk0LTYuODQ0bC0uMDMxLS4xNTYgNTcuMTI1LTUxLjEyNXptLTE0MC42NTYgNTUuMzEzaDIzLjUzMWwxNC42MjUgMTguMjgxLTUuMjUgMjIuODEzLTIxLjEyNSAxMC4xNTYtMjEuMTg3LTEwLjE4Ny01LjI1LTIyLjgxMnptNzUuNDM4IDYyLjU2M2ExMi44MyAxMi44MyAwIDAgMSAyLjk2OS4yMTlsLjEyNS0uMTU2IDc2LjE1NiAxMi44NzVjLTExLjE0NiAzMS4zMTMtMzIuNDczIDU4LjQ0LTYwLjk2OSA3Ni41OTRsLTI5LjU2Mi03MS40MDYuMDk0LS4xMjVjLTIuNzE2LTYuMzEuMDAyLTEzLjcxIDYuMjUtMTYuNzE5IDEuNi0uNzcgMy4yNzEtMS4xOTcgNC45MzgtMS4yODF6bS0xMjcuOTA2LjMxM2ExMi45IDEyLjkgMCAwIDEgMTIuMzc1IDEwLjAzMSAxMi43NyAxMi43NyAwIDAgMS0uNzE5IDcuOTM4bC4yMTkuMjgxLTI5LjI1IDcwLjY4OGMtMjcuMzQ3LTE3LjU0OS00OS4xMjktNDMuODI0LTYwLjc4MS03Ni4wNjJsNzUuNS0xMi44MTIuMTI1LjE1NmMuODQ1LS4xNTUgMS43MDEtLjIzIDIuNTMxLS4yMTl6bTYzLjc4MSAzMC45NjljMi4wMjQtLjA3NCA0LjA3OS4zNDEgNi4wMzEgMS4yODEgMi41NiAxLjIzMyA0LjUzNyAzLjE3MyA1Ljc4MSA1LjVoLjI4MWwzNy4yMTkgNjcuMjVjLTQuODMgMS42MTktOS43OTYgMy4wMDMtMTQuODc1IDQuMTU2LTI4LjQ2NSA2LjQ2My01Ni44MzkgNC41MDUtODIuNTMxLTQuMjVsMzcuMTI1LTY3LjEyNWguMDYzYTEyLjkxIDEyLjkxIDAgMCAxIDEwLjkwNi02LjgxMnoiIHN0cm9rZT0ibm9uZSIgc3Ryb2tlLXdpZHRoPSIuMjUiLz4mI3hhOzwvc3ZnPg==;fontColor=default;" vertex="1" parent="1">
          <mxGeometry x="360" y="240" width="84.21" height="80" as="geometry" />
        </mxCell>
        <mxCell id="SnS-91N-TXIG-HKsuQVp-11" value="" style="group" vertex="1" connectable="0" parent="1">
          <mxGeometry x="520" y="240" width="80" height="80" as="geometry" />
        </mxCell>
        <mxCell id="SnS-91N-TXIG-HKsuQVp-7" value="" style="aspect=fixed;sketch=0;html=1;dashed=0;whitespace=wrap;fillColor=#2875E2;strokeColor=#ffffff;points=[[0.005,0.63,0],[0.1,0.2,0],[0.9,0.2,0],[0.5,0,0],[0.995,0.63,0],[0.72,0.99,0],[0.5,1,0],[0.28,0.99,0]];shape=mxgraph.kubernetes.icon2;prIcon=pod" vertex="1" parent="SnS-91N-TXIG-HKsuQVp-11">
          <mxGeometry x="21.177093443924825" y="21.81818181818182" width="58.82290655607518" height="56.47224918379953" as="geometry" />
        </mxCell>
        <mxCell id="SnS-91N-TXIG-HKsuQVp-8" value="" style="aspect=fixed;sketch=0;html=1;dashed=0;whitespace=wrap;fillColor=#2875E2;strokeColor=#ffffff;points=[[0.005,0.63,0],[0.1,0.2,0],[0.9,0.2,0],[0.5,0,0],[0.995,0.63,0],[0.72,0.99,0],[0.5,1,0],[0.28,0.99,0]];shape=mxgraph.kubernetes.icon2;prIcon=pod" vertex="1" parent="SnS-91N-TXIG-HKsuQVp-11">
          <mxGeometry x="14.118062295949883" y="14.545454545454547" width="58.533486279008216" height="56.18988793788053" as="geometry" />
        </mxCell>
        <mxCell id="SnS-91N-TXIG-HKsuQVp-9" value="" style="aspect=fixed;sketch=0;html=1;dashed=0;whitespace=wrap;fillColor=#2875E2;strokeColor=#ffffff;points=[[0.005,0.63,0],[0.1,0.2,0],[0.9,0.2,0],[0.5,0,0],[0.995,0.63,0],[0.72,0.99,0],[0.5,1,0],[0.28,0.99,0]];shape=mxgraph.kubernetes.icon2;prIcon=pod" vertex="1" parent="SnS-91N-TXIG-HKsuQVp-11">
          <mxGeometry x="6.353128033177447" y="6.545454545454546" width="58.82290655607518" height="56.47224918379953" as="geometry" />
        </mxCell>
        <mxCell id="SnS-91N-TXIG-HKsuQVp-10" value="" style="aspect=fixed;sketch=0;html=1;dashed=0;whitespace=wrap;fillColor=#2875E2;strokeColor=#ffffff;points=[[0.005,0.63,0],[0.1,0.2,0],[0.9,0.2,0],[0.5,0,0],[0.995,0.63,0],[0.72,0.99,0],[0.5,1,0],[0.28,0.99,0]];shape=mxgraph.kubernetes.icon2;prIcon=pod" vertex="1" parent="SnS-91N-TXIG-HKsuQVp-11">
          <mxGeometry width="56.47224918379953" height="54.21335921644755" as="geometry" />
        </mxCell>
        <mxCell id="SnS-91N-TXIG-HKsuQVp-29" style="edgeStyle=orthogonalEdgeStyle;rounded=0;orthogonalLoop=1;jettySize=auto;html=1;endArrow=classic;endFill=1;startArrow=classic;startFill=1;" edge="1" parent="1" source="SnS-91N-TXIG-HKsuQVp-17" target="SnS-91N-TXIG-HKsuQVp-5">
          <mxGeometry relative="1" as="geometry" />
        </mxCell>
        <mxCell id="SnS-91N-TXIG-HKsuQVp-17" value="" style="shape=image;verticalLabelPosition=bottom;verticalAlign=top;imageAspect=0;aspect=fixed;image=data:image/png,iVBORw0KGgoAAAANSUhEUgAAAgAAAAIACAYAAAD0eNT6AAAABHNCSVQICAgIfAhkiAAAAAlwSFlzAAAN1wAADdcBQiibeAAAABl0RVh0U29mdHdhcmUAd3d3Lmlua3NjYXBlLm9yZ5vuPBoAACAASURBVHic7d13nB1lof/xz2zfTS8kAUNIgAABQZp0HdqlCgYscBUpAqI43h9iBa9X1GuB6xW8jihVmg0x1IReRkMLCRBaEtILKZtNsr2e3fn9MSeQhC3nnD1znpk53/frta9Nwu4539XkPN/zzDPPY/m+j4hEm+V41cCYAT6GAJVARfpzJr+2gM4sPlqBzdt8bNnh91s/GnzX1ouLSIRZKgAi5liOVwHsCkwBJm/zeQLbD+7VZhLmrBuoB2qBVcDKHT6vAtb4rp0yllCkyKkAiITIcrwSYBLbD+7bft4FKDGTzrgeYC3bl4IlwDvAAt+1txjMJpJ4KgAieWI53ljgAGD/9OcDgP2I37v3qFhPUAa2fiwA3vFdu9ZoKpGEUAEQyVJ62n4aHwzyWwf8nU3mKiKb+KAUzAPmAG/5rt1tNJVIzKgAiAzAcrw9gKOBY4AjgX2AMqOhZEetwKsEZWAOMMd37eVmI4lEmwqAyDYsxysDDuKDAf9oggV5Ej8b2aYQAC9rXYHIB1QApKhZjjec4F391gH/cKDGaCgJSw/BLMHT6Y/Zvmu3mY0kYo4KgBSV9Kr8w4BTgVOAQyneVfjFrgN4AXiKoBDM1ToCKSYqAJJ4luNNAE4mGPBPAkabTSQR1QA8R1AGnvRde6HZOCLhUgGQxElfxz+KYMA/BTiQYMc7kWwsAR5Mfzzvu3aP4TwieaUCIIlgOd4IYDpwJnAiMNxsIkmYOuBhgjLwpO/arYbziAyaCoDEluV4wwgG/HMIpvgrzCaSItEGPElQBh7RxkQSVyoAEiuW4w0BPkUw6J8KVJlNJEWuh2Ah4Z+Be33X3mQ4j0jGVAAk8tIn4Z1GMOifjm7Tk2jqAmYBdxPMDHQYziPSLxUAiaT07XonAecDZwBDzSYSyUo98HeCMjBbRyNLFKkASKRYjjcR+DJwMcEpeiJxtwL4E3C379qLDGcReZ8KgBhnOV4pwdT+pQTX9UvNJhIJzRzgD8BftQuhmKYCIMZYjjeF4J3+RcAuhuOIFNJm4I/AH3zXXmI6jBQnFQApKMvxyoFPA18huF9fG/RIMfOBJ4AbgZnailgKSQVACsJyvLHA5cDXgXGG44hE0SrgJuBW7S0ghaACIKGyHG8qcCVwAVBtOI5IHHQC9wG/8V17jukwklwqABIKy/GOAb5FsFOfTtsTyc2zwC99137CdBBJHhUAyZv0av6zgG8DhxuOI5IkrwHXAvdpnYDkiwqADFp6e94vA1cAuxuOI5JkS4H/Ae7QToMyWCoAkjPL8YYTDPpXAKMMxxEpJuuBG4Df+67daDqMxJMKgGQt/Y7fAb4LjDYcR6SYNRDcQvg/vmtvMR1G4kUFQDJmOV4V8DXg++hWPpEoaSC4NHCD79otpsNIPKgAyIAsx6sALgF+gHbsE4myWuDnBDsMao2A9EsFQPpkOV4ZcCHwQ3Qwj0icrAJ+DNypuwakLyoA8iHpo3i/CPwI2MNwHBHJ3SKCAn+fjiSWHakAyHYsxzuWYHXxxwxHEZH8eQ242nftx0wHkehQARDg/ZP5fgWcbTqLiITmUeAK37XfNR1EzFMBKHKW4w0FribYr7/ScBwRCV8X8BvgJ75rN5kOI+aoABQpy/EsggN6fgFMMBxHRApvPXAVwUJBDQRFSAWgCFmOdzTBdf5DTWcREePmAN/QyYPFRwWgiFiON4ngQJFzTWcRkUjxgTuBq3zXXm86jBSGCkARSJ/S902C+4JrDMcRkehqIniduEH7BySfCkDCWY53IHArcIjpLCISG68CF/uu/brpIBIeFYCESu/bfw3wLaDMbBoRiaEU8L/ANb5rt5sOI/mnApBA6c18bgamGo4iIvG3BLjUd+3nTAeR/FIBSBDL8UYSnAh2MWAZjiMiyeEDtwHf8V273nQYyQ8VgISwHO9swAV2Np1FRBJrHeD4rj3DdBAZPBWAmLMcbwJwI3CW6SwiUjTuBy7XLYPxpgIQY5bjnUkwLTfWdBYRKTp1wCW+az9oOojkRgUghizHqwF+DVxmOouIFL1bgG/6rt1iOohkRwUgZizHOxj4M7C36SwiImnvAuf5rv2K6SCSORWAmLAcrwT4NvDfQLnhOCIiO0oR7D3yC9+1ewxnkQyoAMSA5XgTgbuA40xnEREZwGyC2YCVpoNI/0pMB5D+WY73OeANNPiLSDwcA7xhOd55poNI/zQDEFGW4w0FfgtcaDiKiEiu7gEu81271XQQ+TAVgAiyHG9vgvtsp5nOIiIySG8Bn/Fd+13TQWR7ugQQMZbjTQfmoMFfRJLho8ArluNps7KI0QxARKRX+f838H20j7+IJNN1wNW+a3ebDiIqAJFgOd4Ygnv7TzKdRUQkZM8B5/iuXWs6SLFTATAsvbHPDGA301lERApkLfA537VfMB2kmGkNgEGW410IPI8GfxEpLrsAz1mO9x+mgxQzzQAYYDleBXAD8DXTWUREDLuH4FChDtNBio0KQIFZjjee4Ba/I01nERGJiNnAWb5r15kOUkxUAArIcrxpwCxgsuEoIiJRsxQ43XftRaaDFAutASgQy/GOA15Ag7+ISG/2AF60HO9400GKhQpAAViOdz7wODDSdBYRkQgbBTxmOd7FpoMUA10CCJnleNcAPzKdQ0QkZq4FrvJdW4NUSFQAQpJe6X8r8CXTWUREYmoGwdHCbaaDJJEKQAgsxxtJsNL/WMNRRETibi5wmu/aG00HSRoVgDyzHG8KMBMd5iMiki/vACf4rr3edJAk0SLAPLIc7xDgJTT4i4jk077APy3Hm2g6SJKoAOSJ5XjHAM8A40xnERFJoKkEJUBbp+eJCkAeWI73bwS3+Q03nUVEJMGmEJSAPUwHSQIVgEGyHO/TwMNAjeksIiJFYBJBCdjbdJC4UwEYBMvx/h24D6g0nUVEpIjsAniW433UdJA4UwHIkeV4lxCcYlVmOouISBEaDzxrOd6BpoPElQpADizHuwK4Gf3vJyJi0ljgGcvxPm46SBxpAMuS5Xj/CVwPWKaziIgIo4CnLMc7ynSQuNFGQFmwHO9a4Lumc4iIyIc0A5/yXdszHSQuNAOQIQ3+IiKRNhSYZTneiaaDxIUKQAbS0/4a/EVEoq0GeNhyvNNMB4kDXQIYQHrB3/Wmc4iISMY6gXN8137AdJAoUwHoR/pWv5vRgj8RkbhJAV/0Xfte00GiSgWgD+lNfu5Bl0lEROKqG7jQd+17TAeJIhWAXqS3970PbfIjIhJ3PQQl4G7TQaJGBWAH6YN9Hkbb+4qIJEUKONN37UdNB4kSFYBtpI/0fRwd7CMikjQtwAm+a79sOkhUqACkWY53CPAMOtJXRCSp6oBjfNdeZDpIFKgAAJbjTQFeAsaZziIiIqFaCRzlu/Za00FMK/oV7pbjjQRmosFfRKQY7AY8ZjneCNNBTCvqAmA5XgVwPzDNdBYRESmY/YGHLMerMh3EpKIuAMCtwLGmQ4iISMF9EviT5XhFOw4W7Q9uOd41wJdM5xAREWPOBn5nOoQpRbkI0HK884E7TecQEZFIuNJ37aI786XoCoDleMcR3OtfbjqLiIhEQjdwuu/aj5sOUkhFVQAsx5sGvACMNJ1FREQipQE4vJj2CCiaNQCW440HZqHBX0REPmwEwZ0BRTNGFEUB2OZ2v8mGo4iISHTtBdxrOV6p6SCFUBQFALgBONJ0CBERibx/A35tOkQhJH4NgOV4FwJ/NJ1DRERi5VLftW81HSJMiS4AluMdDDwPFPVuTyIikrUugtMD/2U6SFgSWwAsxxsDzCPY91lERCRbG4FDfddeZTpIGBK5BiC9teOf0eAvIiK52wn4m+V4idw3JpEFAPhv4CTTIUREJPaOAK41HSIMibsEYDnedGAGYJnOIiIiiXGW79oPmA6RT4kqAJbj7Q3MAYabziISR6NqyvjohGrTMbL28spmOruT81omkVQPHOy79nLTQfIlMQXAcryhBIP/NNNZROLqxL2GM+OiPU3HyNrUn7/JhqYu0zEk+eYCR/uu3Wk6SD4kaQ3Ab9HgLyIi4TkU+F/TIfIlEQXAcrzPAReaziEiIonnpMec2It9AbAcbyJwk+kcIiJSNG61HC9+18p2EOsCkL7f/y5glOksIiJSNIYDf7ccr9J0kMGIdQEAvg0cZzqEiIgUnQOBn5gOMRixLQDpff7/23QOEREpWt+2HO8Y0yFyFcsCYDleDcFWv4ncnlFERGKhBLgzfRt67MSyABCc1by36RAiIlL0diemtwbGrgBYjncmcJnpHCIiImlfsRzvVNMhshWrAmA53gTgNtM5REREdnCb5XijTYfIRqwKAHAjMNZ0CBERkR3sTDBGxUZsCoDleGcDZ5nOISIi0odzLMc713SITMWiAFiONxJwTecQEREZwO8sx9vFdIhMxKIAAP9DML0iIiISZaOB35kOkYnIFwDL8Y4FLjadQ0REJEPTLcc7w3SIgUS6AFiOVwXcDFims4iIiGTBtRxviOkQ/Yl0AQCuAaaaDiEiIpKlScCPTIfoT2QLgOV4BwLfMp1DREQkR9+0HG9/0yH6EskCYDleKXArUGY6i4iISI7KgJssx4vkZexIFgDgm8AhpkOIiIgM0pHApaZD9CZyBcByvEnAj03nEBERyZNfWo43znSIHUWuAADXAjWmQ4iIiOTJKCJ4YmCkCoDleEcDsdlGUUREJEPnWY53vOkQ24pMAUgvkrjBdA4REZGQ3JBe5B4JkSkAwAXAoaZDiIiIhGR/IrSzbSQKgOV4Q4FfmM4hIiISsp9ajjfcdAiISAEArgYmmA4hIiISsnEEY55xxguA5XhTgCtN5xARESmQK9Jjn1HGCwDwK6DSdAgREZECqSS45d0oowUgfdTv2SYziIiIGPC59K3vxhgrAJbjlaDb/kREpHhdb/KcAJMzAF8EPmbw+UVEREz6OMFYaISRAmA5XhkRPydZRESkAH5hOV61iSc2NQNwIbCHoecWERGJionAV008ccELgOV4FcAPC/28IiIiEfU9E7MAJmYALgEmGXheERGRKBoPXF7oJy1oAbAcrwr4QSGfU0REJAa+azleTSGfsNAzAF8Ddinwc4qIiETdOODrhXzCghUAy/GGAN8v1POJiIjEzHfSY2VBFHIGwCFoOCIiIvJhOwHfKNSTWb7vh/8kwdGHy4HRoT+ZiOSsotRiVE2Z6RhZ29jcRU/4L2UihbAJmOy7dnPYT1Sof+lXoMFfJPI6u302NHWZjiFSzMYA/wH8POwnCn0GIH09YzUwKtQnEhERSYbNBLMATWE+SSHWAHwZDf4iIiKZGg18JewnCXUGwHK8UmAxMCW0JxEREUme1cDuvmunwnqCsGcAzkKDv4iISLZ2BT4X5hOEXQC+HfLji4iIJNW3wnzw0AqA5XjHAIeH9fgiIiIJd4jleHZYDx7mDECozUVERKQIhDaWhrII0HK8qcBCzJw2KCIikhQ+MM137UX5fuCwBugrQ3xsERGRYmEB3wzlgfM9A2A53lhgFVCd1weWSJsyppLj9xxmOkbW7nhlE90Z7iEb15/x7rmb6OzO7GecOKKCk/cZHnKi/Pvzq5tp6+oxHUMkLG3AJN+16/L5oGFsBXw5GvyLziETa7h++iTTMbL2p3mbMy4Acf0Z75u/hc7u7oy+dp/xVbH8GR95p0EFQJKsmmBs/Uk+HzSv0/SW45VT4POMRUREisDX02Ns3uT7Ov2n0ZG/IiIi+TYOmJ7PB8x3AQh972IREZEidWk+HyxvBcByvCnAifl6PBEREdnOiZbj7Z6vB8vnDMDFBLcriIiISP5ZBGNtXuSlAKRP/bsoH48lIiIifbrIcry83MGXrxmA04Fd8vRYIiIi0rudgU/l44HyVQDyujBBRERE+pSXBfeDLgCW400ETs1DFhERKWIn7DWciw8fy6RRFaajRN3JluMNeseufFxH+DJQmofHERGRIvWZA0Zx8+cnU14arCVfvLGdJ99t5Ml3G3luSVPGO3YWiRKCxYA/GuyD5MxyvK0hREREcnLqtBHccs4Hgz/A1J2quPzocdx/0Z7Mu3Jfzj1oNKUlutFsG19OL8DP2WAvAZwExG/jcBERiYSjJg/lzi9MoayfwX33MZXc/PnJzLliGp/92CjUAwCYCJwwmAcYbAE4f5DfLyIiRWr/nau594I9qCrLbCiaulMVt587hX9+Yxp77VQVcrpY+PfBfHPOBcByvGrgjME8uYiIFKfJoyuZcdGeDK/Kfhb7gJ2r8Zx9OOeg0SEki5WzLMerzPWbBzMDcBowdBDfLyIiRaiqrIS/nr8744flfrjdkIoSbvn8ZH579iSqy/N9rE1sjGAQd+EN5n+1cwbxvSIiUqT++7SPsO/46rw81gUfH8uTX9ubsUPysjleHJ2b6zfmVAAsxxtCsPufiIhIxk6dNoKvHLlTXh/zgJ2rmXnpXuw0tChLwBnpMTlruc4AfAqoyfF7RUSkCE0YVs6Nn9ktlMeeNr6KmZfuxbihuV9WiKka4MxcvjHXAqDpfxERyZhlwU2fn8yYEKfq9xlXxcxLpw5qbUFM5XQ3QNYFwHK8YWjrXxERycI3jhnPcXsOC/159h5Xxb3n70FlWVFtFnCy5Xijsv2mXGYAzgR0A6aIiGTkY7vU8KOTC3dg7EETa7h+elHtUVcBnJ3tN+VSADT9LyIiGfvfT++63Ta/hXDeIWO4+PCxBX1Ow7K+GyCrAmA53gjg5GyfREREitPJ+4zgsEk5LVIftGvP2NXYcxtwXLaXAbKdAZhOMNUgIiLSL8uCH55UuKn/HVWUWtzxhSkMrSyKA2tLyfINerYFIKdbDUREpPhM/+goDtg5Pxv+5GriiAp+ZLCEFNinsvnijAuA5XhlwIlZxxERkaJTWmLxg3/b2XQMAC49cicO3bUoLgWcYjlexuN6NjMARwHDs88jIiLF5pwDR0fmxL4SC3579qSCL0Q0YAxwRKZfnE0BOCX7LCIiUmzKSy2uPjEa7/632m9CNc4x40zHKISMLwOoAIiISF5d8PGxTBoVvfXiVx47Iafjh2Mm43N6MioAluNNAA7MOY6IiBSF6vISvnPcBNMxejWiqpSvHpXfg4gi6ADL8XbN5AsznQE4GUj8xRMRERmcCw8by87Do7sX/9ePHlcMtwWelskXZVoANP0vIiIDuvDj0d59b1RNGZfl+TjiCMpoHcCABSB9S8FJg44jIiKJduBHapg2Phor//vjHDOOIRW5HoYbC8dbjjfg/xGZ/C9wGDB68HlERCTJzjtkjOkIGRkzpIxLj0j0LEAN8ImBviiTAqCjf0VEpF8VpRaf/VjWJ9Ia841PjKe6PNGzAPZAX5DJT6/r/yIi0q9T9hnB6Joy0zEyttPQsqSfFvjJgb6g3wJgOd5w4NC8xRERkUT67IHxu1L8/z6Z6FmAwwZaBzDQT35kBl8jIiJFrLTE4rg9h5mOkbXxw8o5J4bFJUOVwOH9fcFAg/vR+csiIiJJdPDEGkbEdIe9cw9ObAGAAdYBDHTB5pg8BpEEa+vqoba5y3SMrPn4GX9tXH/Gnsx/RDpTfix/xu5sfkjJu+P3jO85cUfuNpRJoypYtaXTdJQw9FsALN/v/R9O+vjfBoLbCURERHr1+GV7ceTkoaZj5OwnT6zlV8+uNx0jDK3ASN+1e231/V0COAgN/iIi0o+hlaV8fNIQ0zEGJcHrAGqAj/f1H/srALr+LyIi/frE7kMpK4n3UTF7j6viY7sk9v1un7cD9lcAdP1fRET6dWBCBs5zD0rsLECf6wA0AyAiIjnbe1z09/7PxGc/NorSmM9k9OHo9Jk+H9LrH1qOtwcQzQOdRUQkMpJSAMYPK8feI357GWRgGLBXb/+hrxkAvfsXEZF+lZZY7Dk2GQUA4PMHxucsgywd0tsf9lUAdP1fRET6NWV0BZVlyZk2P3Gv4VjJ+XG2dXBvf9hXATgyxCAiIpIASZn+32rc0HI+OqHadIwwZFYALMerAPYJPY6IiMTaPuOSN1gePzW+uxr24yDL8T40t9HbDMA0Bt4iWEREityEYeWmI+RdQgvACGCPHf+wt4H+gPCzFJfDdxvC2QfE7x7T7z28OuOv/dguNXzhkDEhpgnHD2auIZXhPvJx/Rmveew92rp6MvravXaq4uIjdgo5Uf799In3aO7I7GfcfUwllx01LuRE+ffLp9aypa3bdIztDI/pAUD9OWryUKrLSzL+NxMjhwBLtv0DFYAC+OiEGr52VPxeVLMpAFN3qorlz/ijx97LuADE9Wf8+ZNracvwfJ9Joypi+TP++rn1GReAj4yI58/4u9kbIlcARlQnrwBUllkcNWUoT7/baDpKvh0M/G3bP+jtEsD+hckiIiJxlsQZAIATknkZ4EMLAXsrAJoBEBGRAY1IaAE4ds9EbgjUfwGwHG8ssHPB4oiISGwltQDsO76amor+dsqPpdGW403e9g92/An17l9ERDKSxDUAACUWST0dcLsxfscCoOv/IiKSkaHJe5f8voM+ksgCsN2ZAJoBEBGRnHR2Z3YHTRwdPFEFQEREpFeZ3noZRwcmcwZg721/8/4+AOnzgvcreBwREYml1uRtlvO+qWOrGFpZSnNHZnsvlJZYDKssYVhlafBRFfy6rMSivauH9pRPW1cPHame9Gef1q4eGtsLurfDdjMA224ENAlI3sbOIiISikwHxziyLDhwl2pmL2+mrMRi11EVTBldyZTRFUwZU8mU0ZVMHl3JuKFlDK8qpbo8t/UQbV09rG/s4r3GLtY1dLK2sYu1jV28V9/J/LWtrNzSmc8fa4LleMN8126C7QvA5Hw+i4iIJFtrZ3JnAAD+7+zdKCuBiSMrKCsJ55zg6vKSoFCMqez1v29sTjF3dQuvrG5h7qoW5q1ppWlwxWsvYB5sXwCmDOYRRUSkuDQnvADsObb3QbmQdhpaxqnTRnDqtBEA9PiwqLY9KAWrWpi7uoUFte10Z7ilOX0UgMn5DC0iIsmW9BmAKCqxYNr4KqaNr+JLhwaHk7V09vDqmhaeXtzEffM3s6r/ywbvLwTUDICIiOSkpTO5awDiZEhFCZ/YfRif2H0Y15y8C3NWtXDv65t54M16aps/dBLY+wsBNQMgIiI5WdeY4TGTUlCHTRrCYZOGcO2nJvLPpU3cO38LD79dv/WOg14LgGYAREQkY0vqOkxHkH6UllgcN3U4x00dzg3TJ/HEogZmvLFl363/vQTAcrwKYBdjKUVEJHaW1LWbjiAZqiyzOGO/kfzx36dU/9dDi3eDD3YC3JXejwYWERHp1eKNmgGIo8pS66PwwaCv6X8REclKbXPXYO9JFwMqy0v2gQ8KwGRzUUREJK6WaBYgdqrKrD1AMwAiIjIIWgcQP9XlJRNBMwAiIjIIi3UnQOwMqSjZGT4oABMMZhERkZjSDED8DK0sHQsfFIAxBrOIiEhMzV3dajqCZGl4VekIUAEQEZFBWLG5g9X1eT2yVkI2srp0CKgAiIjIID23pMl0BMnC2CFl5QAlluNVA9WG84iISEx5S1UA4mRYZan1nw++O7oEvfsXEZFB+KcKQOxUlpbsrwIgIiKDsr6pi0W1uhsgTirLrGkqACIiMmi6DBAvVeUle6gAiIjIoKkAxEtZiaU1ACIiMnj/WtZEj286hWSqvNQargIgIiKDVt/WzWtrWkzHkAyVlVjDVABERCQv7p2/xXQEyVB5qTVEBUBERPLivvmbSek6QCxsLQBDTAcREZH429ic4ul3G03HkAyUl1rVJUCl6SAiIpIMf3lts+kIkoGKdAGoMB1ERESSYdY7DTS2d5uOIQOoKLUqNQMgIiJ5057qYcabWgwYdZVlJSoAIiKSX395VZcBoq6yzCovQ5cAQreusZPZy5K9S9bG5q5Y/ow9WaxYjuvPmM2q7C2tqVj+jJ2pnoy/tqG9O5Y/Y0cqPqvrX1zRzIrNHUwerfeXUVVZVlJm8fXn3gL2Mx1GRESS46oTd+aqE3Y2HUP68F5DZ0qXAEREJO/+oU2BIq26vKREdwGIiEjenbDXcNMRpB+pHt/SDICIiOTVMVOG8l8n7WI6hvShtbOHL96zTJcAREQkf75w8Bj+cdGeDKkoMR1FetHZ7fOFe5bx8soWS3cBiIjIoE0eXcn1n95VU/8R1t3jc/Ffl/PM4kaAkjI0AyAiIjmy9xjGV47cidOmjaC0xDIdR/rxH/ev4sG36rf+tqTMZBgREYmXyjKLwyYN5ZN7DGX6R0ex97gq05FkAN09Pt9+aDV3z9203R+XAR1AjZlYIiISVRWlFpNGVTB5dCUHfaSGT+4xjMN3G0JVma7vx0VzRzcX/GU5Ty760CmNHWVAJwktADsNLaPE0pSUiEipBVXlJdSUl1Bdkf5cXkJNRQlVZcHn0TWlTB5dmf6oYJfhFWhWP77WNHTy+TuW8tb6tt7+c+fWGYBEWvj9/Skv1d9eEREpLq+taeWcu5ayvqmrry/pSGwBGF5VqsFfRESKzj3zNvGtB1fT1tXvGRnvXwJInNE1Wt8oIiLFo7a5i/+YsYpZCxoy+fLkXgIYM0QFQEREisMDb9XzzQdWsakllem3JPcSwOiaUtMRREREQrW5NcV3Hl7D31/fnO236hKAiIhI3HR2+9z0Qi3XPbOehvbunB4isTMAlVoAKCIiCfTAW/X816PvsWLzoIbv5F4C0JaUIiKSJC+saOaax9by0srmfDxcci8BlKkAiIhIzDV1dPPX1zZz+8t1vN37hj65Su4lAM0AiIhIXM1f28ptL9Vx7/zNtHb2ez9/rjrKgJYwHtm0Um1VLSIiMdLW1cM/3tjCbS/XMW916ENzSxmwacAviyFdAhARkThYVNvObS/X8ZdXN+W6oj8XmxJbAHQJQEREoqg91cOLK1p4dnEjzy5pYv7aVhMxklsAdFqliIhEge/DG+taeXZJE88ubuTFFS20p0K5A7ZmNQAAIABJREFUrp+N5BYAzQCIiIgpq7Z08tzSJp5bErzLz2KL3kJJcAGwVABERCQ8PT6s2tLBwtp2FtW2v/95UW07TR0Fu5afq+QWAF0CEBGRXHX3+GxqTbGxOcXGlhR1zSk2NnexsSXFis0dvFvbzuK6joGO3I2yBBcAbQUsIiJ9OO+eZSyua6e7B7p9n1S3T7cfDPztKZ/6thS+bzplqJJbAHQJQEREelPXkuLhd+qTPsAPZFOJ79ptQF73F4wC7QMgIiK9eXZxY7EP/m2+a7dtvVKeuFkA7QQoIiK9eXpxk+kIpm0CSGwBSPUUd70TEZHePbuk0XQE05JdAJo7YrsyU0REQvLOhjbWNXaZjmHadgVgvcEgoWgJ5/QkERGJsWc0/Q/pMX9rAVhhLkc4YrAJg4iIFNjTi4t++h/SY/7WArDcXI5waAZARES21Z7q4YXlzaZjRMFySPAMQItmAEREZBsvrmiJ8859+bQCEjwD0KwZABER2cbT72r6P227GYDVQKJGTN0FICIiW/k+3P/mFtMxoqCHYMwPCoDv2p3AWpOJ8q2lU5cAREQk8PKqZlbXd5qOEQVr02M+2+6Xl6jLALoEICIiW/39db37T3t/rN+2AKwofI7wNLZrBkBERIKdYWdo+n+rFVt/kdgZgM2tKbq6tR2wiEixe2ZxI5taUqZjREXyZwB8H2qb9X+4iEixu1fT/9tasfUXiZ0BANjQVPT7PYuIFLW2rh4eeafedIwoSf4MAMB6FQARkaI2850GWrUofFsrtv5i2wKwCmgreJQQrdeJTyIiRe3e1zebjhAlbQRjPbBNAfBduwd420SisOgSgIhI8drcmtLhP9t7Oz3WA9vPAAC8UeAwodIlABGR4nXX3E26G2x7243xKgAiIpI4qR6fm16oNR0javotAG8WMEjoVABERIrTA2/W816DxoAdbDfGJ3oGYIMWAYqIFCV39gbTEaKo7xkA37XrgHUFjROi2uYUPbr8IyJSVF5c0cyra1pNx4iadekx/n07zgBAgmYBUj2+LgOIiBSZ383Wtf9efGhs760AJGodwKLadtMRRESkQFZu6dTOf7370Nie6BkAgEW1idrbSERE+nHj87W69Nu7jGYAElYANAMgIlIMmjq6uXvuJtMxoiqjArAASMwxeioAIiLF4Y45dTR3dJuOEUUpgrF9Ox8qAL5rdwILC5GoEBZtVAEQEUm61s4ebvinbv3rw8L02L6d3mYAAF4MOUzBbGxOsaU1MRMaIiLSC3d2LRub9Vrfh17H9L4KwOwQgxTcQl0GEBFJrC2tKf7vX3r3349ex/S+CsDzIQYpOF0GEBFJruu9DTS269p/P3od03stAL5rLwXWhxqngLQQUEQkmdY1dnHTixtNx4iy9ekx/UP6mgGABM0CqACIiCTTdc+so62rZ+AvLF59juX9FYDErANQARARSZ7lmzq4S/f9D6TPsbwoZgDWNHTS2qmGKCKSJD97ah1d3dr2bwA5zQC8BiTiOCXfh/lrE/GjiIgI8Pb6Nu6bv9l0jKhrJRjLe9VnAfBdOwW8HEYiE15a2WI6goiI5MkPZr2nPf8H9nJ6LO9VfzMAkKB1AC+uaDYdQURE8uAfb2zhmcWNpmPEQb9j+EAFIDHrAF5a2YyvtigiEmtNHd1c9cga0zHiot8xfKAC8CKQiNVz9W3d2hFQRCTmfvLEWtY3dZmOEQc9DLCtf78FwHftRmBuPhOZpMsAIiLx9fp7rdyiTX8yNTc9hvdpoBkAgMfyFMa4F1eqAIiIxFGPD//vgVVa+Je5AcfuTArAo3kIEgmaARARiadbX9rIa2t0O3cWBhy7MykAc4BE3Gy5aksn6xp17UhEJE7WN3XxkyfWmo4RJ5sJxu5+DVgAfNfuAZ7IR6Io0CyAiEi8XD1zjU77y84T6bG7X5nMAIDWAYiIiAGPL2zgvvlbTMeIm4zG7EwLwONAIpZevLRCOwKKiMRBbXMXl/9jpekYceMTjNkDyqgA+K69Hnh9MImi4q31bTR3aCpJRCTKfB+++veVbGzucydb6d3r6TF7QJnOAEBCLgN09/g6F0BEJOL+8EItT72r7X5zkPFYXXQFAGDmO/WmI4iISB/eWt/Gfz32nukYcRVKAXgBSEQde+SdBm0mISISQW1dPVz81+V0pPQinYNGgrE6IxkXgPSRgk/lkihqNjR18bLuBhARiZz/nPUeCzbo3JYcPdXf8b87ymYGAOChLL8+sh56W5cBRESi5LGFDdzykvb6H4SsxuhsC8ADQGeW3xNJD72lAiAiEhUbmrq4/D7d8jcInQRjdMayKgC+azeQ4f2FUbe6vpP5a7WvtIiIaakeny//dQV1LbrlbxAeT4/RGct2BgDgbzl8TyQ9qFkAERHjvv/IGv61rMl0jLjLemzOpQA8BCRihYYuA4iImHXX3E3c/KKu+w9SOzms0cu6APiu3URCjgh+d2M7i2oT0WVERGJnzqoWrnxglekYSfBoemzOSi4zAJCgywC6G0BEpPDWNnbxxXuW0dmt+/3zIKcxOdcC8AiQiBV0ugwgIlJY7akevnD3UjY0dZmOkgStBGNy1nIqAL5rtwAzc/neqJm/tpVVWxJxZ6OISCz8v/tX8eqaRLyHjIKZ6TE5a7nOAIAuA4iISJZ+N7uWv7y62XSMJMl5LB5MAZgFJGI/3fvm6y+jiEjYnn63kf98VIf85FEzwVick5wLgO/abcDDuX5/lLy6ppW5q3VEsIhIWOatbuGLf1pGt05iy6eH02NxTgYzAwBw1yC/PzJufL7WdAQRkUR6d2M7n7ljKa2dPaajJM2gxuDBFoAngETcxPngW/Wsa9SKVBGRfHqvoYvpty1hc6u2+c2zVQRjcM4GVQB81+4BbhvMY0RFV7fPbS9rNyoRkXzZ3Jpi+u2LWdOgO61CcFt6DM7ZYGcAAG4HuvPwOMbd/nIdHSldnxIRGazWzh4+e8dS7bYajm6CsXdQBl0AfNdeQ0K2Bq5rSfF33REgIjIoXd0+X/zTMi2uDs+j6bF3UPIxAwBwS54ex7g/aDGgiEjOfB8u+/sKnn630XSUJMvLmJuvAjATWJunxzLqjXVtPL88EdsbiIgU3HceXs1987eYjpFka8nTTrx5KQC+a3cDf8zHY0XBH17QLICISDZ8H7714God7Ru+P6bH3EHL1wwABHcDJGIF3SPvNLC6XqtWRUQy0ePDf9y/ilte0uAfMp883nmXtwLgu/Zy4Kl8PZ5J3T2+WqyISAa6e3y++vcV3PlKnekoxeCp9FibF/mcAQC4Oc+PZ8ydr9TR1qVdq0RE+pLq8bnkbyv462u6e6pA8jrG5rsAPAgk4gJ6fVu3TqwSEelDV7fPhX9ezj/e0IK/AqklGGPzJq8FwHftLuB3+XxMk37zrw10didiWYOISN50pHy+eM8yHaVeWL9Lj7F5k+8ZAIAbgZxPJ4qS5Zs6uEl3BIiIvK+tq4dz7lrKYwsbTEcpJm0EY2te5b0A+K5dB9yZ78c15dpn1rOpRYdYiIg0tHfzmT8u4ZnF2uSnwO5Mj615FcYMAMCvgUSsoGts7+ZnT60zHUNExKhVWzo58feLmK2N0gqth2BMzbtQCoDv2ouBh8J4bBP+OKeOBRt0oIWIFKfX1rRy/I2LdLCPGQ+lx9S8C2sGAOB/Q3zsguru8blq5qDPXRARiZ1ZCxo45eZ3qW3O6/ozyVxoY2loBcB37dnAy2E9fqE9s7iRx7XoRUSKyE0vbOQLdy/VnijmvJweS0MR5gwAwK9CfvyC+sGs90j16LZAEUm2Hh+umrmG7zy8Gr3kGRXqGBp2AbgfyNu2haa9u7GdW7XXtYgkWFtXD+f/aRm/m61boA1bTjCGhibUApA+sej6MJ+j0H7x9Hq2tOq2QBFJng1NXZx+y2Jt8BMN1+fr1L++hD0DAHA7kJi9Ire0pvjF0+tNxxARyauXVjbzid8uZO7qFtNRJBgzbw/7SUIvAL5rtwA3hP08hXTrSxtZvFG3w4hIMtz0wkZOv2Ux65u00j8ibkiPnaEqxAwABAUgMSfrpHp8rp71nukYIiKD0tbVwyV/W8F3Hl5Nl849iYrNFOhNc0EKgO/ajcB1hXiuQnl8YQNPvavtMEUknpZv6uCEGxdx7+uJeW+WFNelx8zQFWoGAMAlIUcFb/WNGSupbwt1jYaISN49vrCBT7oLeWt9Is5tS5JagrGyIApWANLXM35ZqOcrhPcauvjmA6tMxxARyUiPDz9/ah2fv2spDe168xJBvyzEtf+tCjkDAPB7YG2BnzNU/3hji6bQRCTy6lpSfO7OJfzy6XX4utwfRWsJxsiCKWgB8F27HfhZIZ+zEK58cDVr6jtNxxAR6dWTixo54oYFPLlI65Yi7GfpMbJgCj0DAHArkKh588b2br5y7wptmSkikdKe6uE7D6/mM3cs0WE+0baKYGwsqIIXAN+1O4GfFvp5wzZ7eTO//dcG0zFERAB4c10btruQm17Q9uUx8NP02FhQJmYAAO4Alhp67tD89Im1vLxSu2iJiDm+D+7sWo6/cSELNmjDshhYSjAmFpyRAuC7dgr4sYnnDlNnt895f1rGukZNtYlI4a1r7GL67Yu5euYaOlK6JhkTP06PiQVnagYA4E/AfIPPH4oNTV188Z5l+scnIgX10Nv1HPGbBTy7pMl0FMncfIKx0AhjBcB37R7gClPPH6a5q1u0P4CIFMTG5hRf/utyzrtnmU4qjZ8r0mOhESZnAPBd+zlghskMYbln3iYtvhGRUP1p3iYOvf4d7pufmANXi8mM9BhojNECkPZtoMN0iDBcNXMN/1qm6TgRya9lmzo449bFfO2+lXrXH08dBGOfUcYLgO/ay4Ffm84RhlSPzwV/Xs6yTYnsNyJSYKken+u9DRz5mwV4S/XmIsZ+nR77jDJeANJ+Dqw3HSIMdS0pzrxtMWt1Z4CIDMKra1qx3YX86LH3aOsydtlYBm89wZhnXCQKgO/azcBVpnOEZdWWTqbftpjNmqoTkSy1dvbw/UfWcMLvF/HmOp3elwBXpcc84yJRANLuBOaaDhGWhbXtfOaOpbR0qrmLSGZmvLGFQ69/hxufr6Vbe40nwVyCsS4SLD9Cx0JZjnc0MNt0jjAdt+cw7r1gTyrLLNNRRCSi5q9t5XsPr+GFFZF4oyj5c4zv2s+bDrFVpAoAgOV4fwHONZ0jTGfuN5I7vzCF0hKVABH5wMbmFD95Yi13z63T4WLJ81fftf/ddIhtRekSwFbfA1pNhwjTQ2/Xc/k/VmpKT0SAYBvx//vXBg781dvc+YoG/wRqJRjbIiVyMwAAluN9G/gf0znCdsZ+I7n93Cm6HCBSxB5d0MDVs9awtE63CyfYd3zX/pXpEDuK4gwAwPXAPNMhwvbw2/V89o4lWhgoUoQW1rYz/fYlnHPXUg3+yTaPYEyLnEjOAABYjncg8ApQZjpL2A6eWMOMi/ZkdE3if1SRorewtp3/eXY9/5i/WVP9yZcCPu679uumg/QmsgUAwHK8XxLB6yZh2GdcFQ9cPJVdhpebjiIiIXh7fRvXPbOeB9/aooG/eFzru/b3TYfoS9QLQBXwBjDVdJZCmDSqgocunsruYypNRxGRPJm/tpXrnlnPI+/UE+GXW8m/xcABvmu3mw7Sl0gXAADL8Y4FngGKYqXcmCFl3PmFKXxy92Gmo4jIILy6ppVrn1nHowsaTEeRwvOB402f9jeQyBcAAMvxbgEuMZ2jUMpKLH522kf42tHjTEcRkSzNWdXCtc+s48lFjaajiDm3+q59qekQA4lLARgJvAPsbDpLIZ170Gh+c9YkqsujerOGiGz1wopmrn16Hc8u0Sl9RW4dsK/v2vWmgwwkFgUAwHK8s4F/mM5RaB/bpYa/fGl3Jo6sMB1FRHrxz2VNXPv0ev61TAO/APAZ37VnmA6RidgUAADL8WYAZ5nOUWhjh5Rxh9YFiETKs4sb+eUz63lR+/XLB+73Xfts0yEyFbe55cuBOtMhCq2uJcX025Zwwz836PYhEcOeXNTICb9fxKdvX6LBX7ZVRzBGxUasZgAALMc7E3jQdA5TDt9tCH/47GT2GKtbBUUKadaCBq59Zh2vrUn0USWSu0/7rv2Q6RDZiF0BALAc7w/AZaZzmFJdXsKPT9mFy44ch1UUN0eKmFHf1s29r2/m9pfreGdDm+k4El03+a79VdMhshXXAlADvArsbTqLSZ/YfRg3fnY3dhulBYIi+fT88mbueKWOB9+spz2lszqkX4uAg33Xjt3UUCwLAIDleAcDLwFFvXfukIoSfnbaRL58+FjTUURibWNzij+/uok7X6ljiQ7nkcx0AUf4rv2q6SC5iG0BALAc77vAtaZzRMFxew7jujN2Ze9xVaajiMRGjx+s5r/zlTpmLmigqzu+r4dixPd8177OdIhcxb0AlABPAceZzhIFZSUWXz58LFefuLNOFhTpx3sNXdwzr467XtnE6vpO03Eknp4FTvRdO7bXiGJdAAAsx5tIcGDQKNNZomJkdSnfP2FnLj1iJ8pLtUpQBCDV4/P4wkbueKWOp95tpFv31EruthAc9LPGdJDBiH0BALAc73PAvaZzRM2eYyv52WkTOXXaCNNRRIxZsbmDO1/ZxJ/mbWJ9U5fpOJIMn/dd+++mQwxWIgoAgOV4fwQuNJ0jio7bcxg/P30i+02oNh1FpCA6Uj4Pv13PXa/U4S1r0jG8kk93+K59kekQ+ZCkAjAUmANMM50liiwLPrXvSK60x3PIrkNMxxEJxZvr2vjzq5v4y6ub2dyaMh1HkmcBcJjv2onYAjIxBQDAcry9CUrAcNNZoszeYxhXHjuB4/bU2QISb13dPrOXNzNrQT2z3mnQgj4JUyPB4L/IdJB8SVQBALAcbzowA9DqtwEcNLGGK+0JnLHfSEr0v5bERH1bN08uamDWggaeWNRIU0e36UiSfD5wtu/aD5gOkk+JKwAAluP9HLjKdI64mLpTFVd8cjznHDSaCt01IBG0YnMHsxY0MOudBl5Y0UxKK/ilsH7hu/bVpkPkW1ILQAnwKHCS6SxxMnZIGeccNJrzDhmjBYNiVI8P81a3BIP+gnoWbGg3HUmK1xPAqXG+378viSwAAJbjjQHmAbuZzhJHB36khvMOGcPnDxzNyOpS03GkCLR19fDskiZmvVPPYwsbqW3WLXti3ErgEN+1N5kOEobEFgB4/7yA5wHtj5ujyjKL0/cdyXmHjOH4qcO1VkDyakNTF48tDK7nP7ekibauxL3JkvhqB46O6z7/mUh0AQCwHO9C4I+mcyTBLsPLOeeg0Xxq35EcsusQlQHJWkfK5/X3WvnnsiYeXdDAvDUtukdfouoi37XvMB0iTIkvAACW490IfM10jiQZO6SMk/YewSnTRnDC1GEMq9RlAvmwNQ2dzFnZwpxVwccba1vp1IE7En2/9137ctMhwlYsBaACeA440nCURCovtTh68lBOmTaCU/YZwe5jKk1HEgM6Uj7z17YGg/3KZuasamFto67jS+y8CBzru3biN5UoigIAYDneeOAlYLLhKIk3dacqTtp7OEdNHsrhuw1h3NBy05EkBGsbu5izqoWX04P9G2tb6UgVx+uJJNYK4AjftTeYDlIIRVMAACzHmwa8AIw0naWYTBlTyRG7DeHwSUM5YvIQ9hlXrfUDMdPZ7fPG1nf3q1qYs7KFNQ2Jf4MkxaUeOMp37QWmgxRKURUAAMvxjgMeB/S21JDhVaUcNmkIh+82hCN2G8rBE2u0hiBCOrt9VmzuYMGG9vSA38zr7+ndvSRaF3Cy79rPmg5SSEVXAAAsxzsfuNN0DvnAriMr2G9CNR/duZp9x1ez34Rqpu5USZmmCkKxdZBftqmDpXXB5yWbOlhW187q+k600Z4UmQt8177LdIhCK8oCAGA53jXAj0znkL5VlFrsPa6KfScEhWC/8dXsObaSXUdVqBhkYOsgv3WAX7r1o66dNRrkRbb6se/a15gOYULRFgAAy/HuAr5kOodkp7TE4iMjypk8qpLJoyvYbXQlU0ZXstuoCiaPrmSnoWWmIxZMR2qbd/Kbtr6jb2fppg4N8iIDu9t37fNNhzCleF4pe3cJsCtwrOEckoXuHp9VWzpZtaWTfy778H+vqShh8qhKxg8vZ+yQMsYOKWNMTfB57NDtfz+qpsz4gsQeH5o6uqlv66a+LZX+3E1D+we/b2jrZktbKv1n3e//WV1LlwZ5kdw8RzAGFK2ingEAsBxvJMGdAdNMZ5HCK7FgVE0ZwypLKS+1KC+xKC+1KC1hu9+XbfPr8lKLsh1+ve3vy0vSX5/+dWtXT3rATm0zsKcH9LZuGju6tRueSGEtIFjxX286iElFXwAALMebQrBHwDjTWUREJFS1BPf6LzcdxLQS0wGiIP0X4TSg0XQWEREJTSNwmgb/gApAmu/a84DTgVbTWUREJO9agdPTr/WCCsB2fNeeDUwHOkxnERGRvOkApqdf4yVNBWAHvms/CZwDpExnERGRQUsB56Rf22UbKgC98F37QeB8oMd0FhERyVkPcH76NV12oALQB9+1/wJcBug2CRGR+PGBy9Kv5dILFYB++K59K3Cl6RwiIpK1K9Ov4dIHFYAB+K59A/BD0zlERCRjP0y/dks/tBFQhizHuxb4rukcIiLSr+t81/6e6RBxoBmADKX/Ql1nOoeIiPRJg38WVACykP6LpcsBIiLR80MN/tnRJYAcWI53BfBrQIfSi4iY5RMs+NM1/yypAOTIcrxLgJvQLIqIiCk9BLf6abV/DlQABsFyvH8H7gLKTGcRESkyKYJNfnSff45UAAbJcrxPA38DKk1nEREpEh0E2/tqh79BUAHIA8vx/g14AKgxnUVEJOFaCQ720d7+g6QCkCeW4x0DzASGm84iIpJQjQRH+upUvzzQArY8Sf+FPB6oNZ1FRCSBaoHjNfjnjwpAHvmuPQ84AlhgOouISIIsAI5Iv8ZKnqgA5Jnv2suBo4DnDEcREUmC54Cj0q+tkkcqACHwXbseOBm423QWEZEYuxs4Of2aKnmmRYAhsxzvGuBHpnOIiMTMj33XvsZ0iCRTASgAy/HOB24Fyk1nERGJuC7gEt+17zIdJOlUAArEcrzjgBnASNNZREQiqh4423ftZ00HKQYqAAVkOd40YBYw2XAUEZGoWQGc5ru27qIqEC0CLKD0X+wjgBdNZxERiZAXCW7z0+BfQCoABea79gbgWOD3hqOIiETB74Fj06+NUkC6BGCQ5XgXEvzlrzIcRUSk0NqBr/mufYfpIMVKBcAwy/EOJlgcuJvpLCIiBbKSYLHfq6aDFDNdAjAs/Q/gEOAJ01lERArgCeAQDf7mqQBEgO/am4BTgV8AmpIRkSTyCV7jTk2/5olhugQQMZbjTQfuRMcKi0hyNAIX+K79gOkg8gEVgAiyHG9v4H5gmuksIiKDtAA4y3ftRaaDyPZ0CSCC0v9QDgPuMBxFRGQw7gAO0+AfTZoBiDjL8T4H3ASMMp1FRCRDW4DLfNf+u+kg0jcVgBiwHG8icBdwnOksIiIDeBY433ftNaaDSP90CSAG0v+QTgS+R3BSlohI1HQRvEadqME/HjQDEDPpjYP+DOxtOouISNoi4Au6tz9eNAMQM+l/YAcTrAsQETHtJuBgDf7xoxmAGLMc70zgNmCs6SwiUnTqgIt9137IdBDJjWYAYiz9D29/gj0DREQK5X5gfw3+8aYZgISwHO9swAV2Np1FRBJrHeD4rj3DdBAZPM0AJET6H+S+wK3oPAERyS+f4LVlXw3+yaEZgASyHO9Y4GZgquEoIhJ/i4Gv+K79nOkgkl+aAUig9D/UA4BrgZTZNCISUymC15ADNPgnk2YAEs5yvAMJpu4OMZ1FRGJjHnCJ79qvmw4i4dEMQMKl/wEfDnwHaDUcR0SirZXgteJwDf7JpxmAImI53iSCKb1zTWcRkcj5K/A937VXmQ4ihaECUIQsxzsauAE41HQWETFuLnCF79rPmw4ihaVLAEUo/Q/9MOAiYL3hOCJixnqC14DDNPgXJ80AFDnL8YYCVwNXApWG44hI+DqAXwM/91272XQYMUcFQACwHG8K8CvgbNNZRCQ0M4Bv+6693HQQMU8FQLaT3kToBuBjhqOISP7MJ7jO/5zpIBIdWgMg20m/QBwMnA8sNZtGRAZpKcG/5YM1+MuONAMgfbIcrwy4EPghMMlsGhHJwirgp8AdvmtrN1DplQqADMhyvArgEuAHwC6G44hI39YCPwNu9V2703QYiTYVAMmY5XhVwNeA7wPjDMcRkQ/UAr8Efu+7drvpMBIPKgCSNcvxhgAO8F1gtOE4IsVsM3Ad4Pqu3WI6jMSLCoDkzHK84cAV6Y9RhuOIFJMtBHfr3OC7dqPpMBJPKgAyaOkZgS8TFIHdDccRSbLlwPXA7XrHL4OlAiB5YzleKXAW8G2CEwhFJD9eJtio637ftbtNh5FkUAGQUFiOdwzwLeBMtN+ESC56gIeA//Vde7bpMJI8KgASKsvxphKcM3ABUG04jkgctAF3Ar/2XXux6TCSXCoAUhCW440FLge+jm4hFOlNLfA74EbftetMh5HkUwGQgrIcrxz4NPAV4ETAMptIxCgfeAq4GXjQd+0uw3mkiKgAiDHpEwgvJjiTXDsMSjFZC/wRuE0n84kpKgBiXPrugdOBS4FTgVKziURC0Q08CtwCzNRqfjFNBUAixXK8iQR7ClyMDiCSZFgF3EZw7/4a02FEtlIBkEiyHK8EOIngKNMzgKFmE4lkpRl4GLgLeMJ37R7DeUQ+RAVAIs9yvGrgNOAcgksFNWYTifSqFZgJ/A2Y5bt2m+E8Iv1SAZBYSW87/CmCMnAqUGU2kRS5doLr+n8DHtH2vBInKgASW5bjDSPYafAc4GSgwmwiKRKdwOMEg/5Dvms3Gc4jkhMVAEkEy/FGANPnn3byAAABrUlEQVQJCsGJwHCziSRhGgnu138IeMB37QbDeUQGTQVAEsdyvDLgKOCU9MeBaMMhyY4PvA48lv54wXftlNlIIvmlAiCJZzneBIJLBKcQ3Fkw2mwiiajNwBMEA/7jvmuvN5xHJFQqAFJU0rcXHkawgPAU4FB0WmGx6gHmEgz4jwJzdLueFBMVAClqluMNB44EjgaOAQ5HtxkmVSvwMjAbeB540XftRrORRMxRARDZRnr9wEF8UAiOBiYYDSW5Wk8w0G8d8F/TdXyRD6gAiAzAcrw9+KAQHAnsA5QZDSU7SgELgRdJD/i+ay81G0kk2lQARLJkOV4FMA04IP2xf/rzziZzFZF1wBvAm+nPbwALfNfuNJpKJGZUAETyxHK8sWxfCA4A9gOqTeaKsTbgbT4Y5N8E3vBdu85oKpGEUAEQCVH6roNJwGRgSi+fd6F470LoAdYCy4EVvXxepVX5IuFRARAxKH05YVc+XA4mAGO2+YjbLEIbsGmbj/V8eJBfrWl7EXNUAERiIH0i4pgBPoYAlQRnIlRm+GuADoL97Tsy/HUL2w/uH/rQSXgi0ff/AbQW0hxsrYR9AAAAAElFTkSuQmCC;" vertex="1" parent="1">
          <mxGeometry x="198.21" y="240" width="80" height="80" as="geometry" />
        </mxCell>
        <mxCell id="SnS-91N-TXIG-HKsuQVp-18" value="API" style="text;html=1;align=center;verticalAlign=middle;resizable=0;points=[];autosize=1;strokeColor=none;fillColor=none;" vertex="1" parent="1">
          <mxGeometry x="218.21" y="320" width="40" height="30" as="geometry" />
        </mxCell>
        <mxCell id="SnS-91N-TXIG-HKsuQVp-19" value="K8s" style="text;html=1;align=center;verticalAlign=middle;resizable=0;points=[];autosize=1;strokeColor=none;fillColor=none;" vertex="1" parent="1">
          <mxGeometry x="382.11" y="318" width="40" height="30" as="geometry" />
        </mxCell>
        <mxCell id="SnS-91N-TXIG-HKsuQVp-33" style="edgeStyle=orthogonalEdgeStyle;rounded=0;orthogonalLoop=1;jettySize=auto;html=1;entryX=0.25;entryY=0;entryDx=0;entryDy=0;startArrow=classic;startFill=1;" edge="1" parent="1" source="SnS-91N-TXIG-HKsuQVp-20" target="SnS-91N-TXIG-HKsuQVp-26">
          <mxGeometry relative="1" as="geometry">
            <Array as="points">
              <mxPoint x="541" y="360" />
              <mxPoint x="541" y="360" />
            </Array>
          </mxGeometry>
        </mxCell>
        <mxCell id="SnS-91N-TXIG-HKsuQVp-20" value="Services" style="text;html=1;align=center;verticalAlign=middle;resizable=0;points=[];autosize=1;strokeColor=none;fillColor=none;" vertex="1" parent="1">
          <mxGeometry x="525" y="318" width="70" height="30" as="geometry" />
        </mxCell>
        <mxCell id="SnS-91N-TXIG-HKsuQVp-26" value="" style="shape=image;verticalLabelPosition=bottom;labelBackgroundColor=default;verticalAlign=top;aspect=fixed;imageAspect=0;image=data:image/png,iVBORw0KGgoAAAANSUhEUgAACAAAAAgACAYAAACyp9MwAAAABGdBTUEAALGPC/xhBQAAACBjSFJNAAB6JgAAgIQAAPoAAACA6AAAdTAAAOpgAAA6mAAAF3CculE8AAAAB3RJTUUH5goYCzEvsg3g5AAAAAZiS0dEAAAAAAAA+UO7fwABedJJREFUGBnswQmc3vdd2PnP9/88czxzSM/MM5qRLI0ka6zLsiTbkizb8SFbGudw4pATArmcgyUkQEKakG6BkCUpLPCCLlv6Km0TCuwupJumlISQRJIjjOMjtmM7tmNbsnXLumZGjzQaPaPRPP/fxi3dF9A42LKOOT7vdyBJmrbK/V0t/ECWUgGiEciACGjhB1IQAU1AlkgtCfogmoGWSCwFivzPmiJYQKLMi4sUaWEQXUiSJEmSJElTUCLtjxQH+aeNJXiUvydIB/KI5/mBSOl4wB4iTvMDKaWxIMb5b1I9EaP8nRSMJqhzZnysuq06jiRp2gkkSVNOeUM5yLI2CllLJNoCWgPKQDFFag+ikR9IsAQoAqVIzCZoIVEAlvKCoBHoBZqRJEmSJEmSdLHVSRwFBvnvhgn28XcS7AJORkqHiKiSGAZGU6QRUowkqKXgJPV8lDw/Wd1WTUiSppRAkjRplfu7eoCWjDSbFOWASoo0M4guoCvBzIAKUAZmA41AJ9CCJEmSJEmSpKluEBgGqkAVOJFgKOAkMAScInEoRaqRYhAYy4O9wHB188AQkqRJJ5AkTVjlDeUGCtkcIjozYh4wK2A+0EkwB5gJNAFloBVoA1qBNiCQJEmSJEmSpBc3BhwHTgMngTPAIFBLKQ0FsS9F2keKvTlpPxF7qpsHjiFJmrACSdKEUO4vt5Cy5UG2JCOtShFLApYDjUARaAIagSagAWhEkiRJkiRJks6PHDgNnAZGgdPA6ZTS8SC+nyLtTCl2pGAP8Hh188AwkqSLLpAknVfl/nJGypqDrDkjlVJEE6TOBMsjxZIgrU4RSwKWIkmSJEmSJEmTUEqpGsQTKdIO4DES3yM4EImRnKillNeo56PVbdWEJOm8CSRJ50y5v1wkZeUgm5mRKiliZsDsRFoIsSASi1OwIGABkiRJkiRJkjSFJdKRSPF0CnaQ0g5gVxCHEwxAPpRHPlTdXD2NJOmcCSRJZ628odxEIevJIrs04FKCxQnmBPQA84AeoAdJkiRJkiRJ0hjwPLAX2A/sT7Af0l5Ie3OyPdXNA0NIks5aIEl6Wcr9XQuyxLogLUvBkiDmAj1ANzALSZIkSZIkSdJLdRIYAAaAo4l0MBK7EvF0TnqM8frB6rbqSSRJL0kgSfqROvo7lmUpW5uC64JYBcwB2oFWoBkoIEmSJEmSJEk6F+rAKDACnARGSDyX4P48uKu6eeBBJEkvKpCkaa7c31UMUmuWaE1BO4mlEKsC1hPcBLQDgSRJkiRJkiTpYjtB4u4ED0C6n4hdJE7kpJOM10er26oJSZrGAkmahsr95baMbE6kbGEKLoW0ImBVgsuD6EaSJEmSJEmSNOEl2EXiQYJHgKdJHMhJBxivH6luq44jSdNMIEnTQHlDObIs64ksliW4nGBxwHKI1cBsJEmSJEmSJEmT3QlgZ4KnA55OsCMldqSU76CeH69uqyYkaYoLJGmKKm8oFykWFmTB9cD6IBYD84B5QDsQSJIkSZIkSZKmonHgKHAQOJhIu4CHqKdH8jzfUd1WrSFJU1AgSVNMub/rmixxB8H1AQuAGcAMoBFJkiRJkiRJ0nQ0BgwDw4l0CHgwcu6q1+v3VLdVB5CkKSKQpEmovKFc+IEWgpkJuol0TaSsn2AT0A4EkiRJkiRJkiS9uAScSvAQpK8AW4EjeaJa3TJ4CkmahAJJmiTK/eWIlPVExCISiwJWATcTsQpoRpIkSZIkSZKks1dNpEchtgY8TEp7U5725Hl+srqtiiRNBoEkTXDl/q5KlricSFcHsRZYBywEmpAkSZIkSZIk6dyrAo8BjyV4EvLv5OQ7q5urJ5CkCSyQpAmovKnSEHBjwE1EXBWwCFgItCFJkiRJkiRJ0oVzDNiRSHuABxPxtwkeqm4eGEeSJphAkiaI8oZyY6FQWEXwhgSbImIBUAZagECSJEmSJEmSpIsnB0aAakppL8Ff5ImvM17fXt1WHUOSJoBAki6C8oZylhWzViLrIKXegDcScQewBAgkSZIkSZIkSZrYEv/ddkhbUs5XyeL7pHQ8j/rJ6uZqHUm6wAJJuoDK/R0dWSosBPqItA7itoBVQIYkSZIkSZIkSZNXnuBJ4G5I95Pi+6le33HsW8eGkaQLJJCk86y8odyUFQqLyVgfsBbiamAZMANJkiRJkiRJkqaeGvAkiW+n4IHI0731en1/dVu1jiSdR4EknScdt3TMzLLsFiL6Ca4GFgOdQCBJkiRJkiRJ0tSXgEPA05AeyBObE/xtdcvgGSTpPAgk6Rwrb6oszYI3kHhzRCwCOoBGJEmSJEmSJEmavmrAUEppF8Qf5zH+1erm6iEk6RwKJOkVKG8oZ1lD1gZZNyldS8SdAdcArUAgSZIkSZIkSZL+sQSMJNJmEn8WxEOkdLRer5+qbqvmSNJZCiTpLJQ3VZoyWBiwjGBDIt4YcCmSJEmSJEmSJOnlSTwJfCVFujfB0ymxt7pl8DSS9DIFkvQylPvLnRmFG0msjYhrgbVAGUmSJEmSJEmS9EoNJngQ0r2k+E4e4w9WN1eHkKSXKJCkf0J5Q7kxirEkIntdENcDq4F5QBFJkiRJkiRJknSujQJ7gScS6e6U8q1pPG2vbquOIUk/QiBJP0JlY+XHCN5KxPVAF9AGBJIkSZIkSZIk6XzLgWFgiJTuJfGlwa2Df4EkvYhAkv5OeVNXBLQHaT7Eq4n0riCuAApIkiRJkiRJkqSLrZ5IT5DiC5C+nohDCYarWwYSkvQDgaRpr7yhXPiB7pRxNcSmgNuBxUiSJEmSJEmSpIlqR4K/Ar4eeXpscOvgISRNe4GkaavcX24MsuWR4oYgriV4LVBBkiRJkiRJkiRNFgdJbE6ku0l8O6/Xn61uq44jaVoKJE1LlY2VW4h4A8GrgCXATCCQJEmSJEmSJEmTTQKOAd8npb/J4SvHtgw+gKRpJ5A0bZQ3lNuyQuEmgp+OiDVAF9CMJEmSJEmSJEmaKk4BRxLpHkj/Lj+TP1DdVh1D0rQQSJrSKhsrbUTMTvCWCN4LLAUCSZIkSZIkSZI01Z1OpO8BfxSJb5I4PLh18CSSpqxA0pRU2ViZkTIuj8TrIN5MsAJJkiRJkiRJkjQ9JZ6E9OUUfJOcZ/J6faC6rZqQNKUEkqaUjls72yPLNgTpFiJeDSwBikiSJEmSJEmSpOluHNidUvoW8LWUp63H7hoaRtKUEUiaEsobyu1ZQ+G1JO6IiOuB+UABSZIkSZIkSZKkf6gO7E0p3QvxxXx8fFt1W3UYSZNeIGlSK/eXW4OsPyP7aWANUAEKSJIkSZIkSZIk/WjjwADwSEr57+fj+beq26qnkTRpBZImncrGSillzCLFqwM+RrAUyJAkSZIkSZIkSTo7OXBvIv/XkbK76zBY3TIwhqRJJZA0aVQ2VppTsDxgUwruDGIZEEiSJEmSJEmSJJ0bdRL3JPi/gbtz2FXdMjCGpEkhkDQpVDZW1qSM1wdxO7AaaESSJEmSJEmSJOn8GAbuT6S/iZyvD24dfBhJE14gaUKrbKwsSRk/GcTrgJVAM5IkSZIkSZIkSRfGKPB4In0tcv6fwa2D25E0YQWSJqTKxkp3Cv6XiHgbsAhoRZIkSZIkSZIk6eIYAXYm0jfI+fd5vb6juq2akDShBJImjMrGSillzIrEe1Pw4SBmAYEkSZIkSZIkSdLEkH5gJOB3UvBHkXN0cOtgDUkTQiDpoqtsrJRSsCxgUwruDGIZEEiSJEmSJEmSJE1MKZGejsQf5cHXUood1S0DY0i6qAJJF1VlY2VNynh9ELcDq4FGJEmSJEmSJEmSJoexBPdH4ss5/NWxLQPPIumiCSRdFJWNlYUp411BvAFYCTQjSZIkSZIkSZI0OVWBR0j85zr8l+qWgeeRdMEFki6o8qaumRm8NYL3A6uAViRJkiRJkiRJkia/BBwHHkwp/718PL+ruq16GkkXTCDpvCtvKGdZsViGdH1EfBJ4FZAhSZIkSZIkSZI0NeXAt1NK/zvEt/Px8RPVbdUcSedVIOm8KW8oR1YodBFcCfGTEbwTKCJJkiRJkiRJkjQ9nEmJ/wDpv5B4NK/XB6rbqglJ50Ug6byobKw0pOBGgrcE8XpgHpAhSZIkSZIkSZI0veTA/pTSN4C/gvj60JaB00g65wJJ51x5U9elWaSPBXErsBhoRJIkSZIkSZIkaXqrA3sT6WuR8weDWwefQtI5FUg6Z8r95c5CKryLiPcCy4EmJEmSJEmSJEmS9PeNAU+T+MP6+PifVLdVTyLpnAgkvWKdm7q6Id0UEb8MrAQypGmiodhAsVDkh2koNlAsFPlRioUixWKRIJAkSZIkSZImq0RifHyc8fo4P8p4fZwz42f4Yc6Mn2G8Po40jeTAgyml34zE3YNbB4eQ9IoEks5aeVNXexZpNSk+GsHtQDPSJFdqKtHS3MILmhubKTWVyLKMpsYmWptbeUFrqZXmxmayLKNrZoXOmRV+mO6ObjraO4gIXkxHewezOrrIsgKSJEmSJEnSZJXndY4eG+DY8DFeTEqJY8PHOHLsCD/MocFDVIervGB0bJSR2ggvGBkd4fTYafI8p3a6xujYKC84NXqK2uka0hQwSuJPgH9fh2eqWwaGkXRWAkkvW3lDuZgVshWRZW9O8M6AS4FAmuCaGpqY1TGLtpY2ZrbOpLuzm1JTidZSK53tHbxgRusMyu1lXtDW0k65bSZZVqC9pY2OGZ28oKO9THtLOxGBJEmSJEmSpHMrpcTwqWGODVd5wbETQwyfOkme16mePM7JU8O8oDpc5cTICV4wNHyMkdoItdM1jgwd4fjIcU6eOsnRY0c5feY00iSQA48n+DIpfTEfr++obqvmSHpZAkkvS8etnZ2RZe+M4CeBK4BWpAlkRusMejp76JzRwZyuS+jp7KatpZ2+eX2UGpuZ2TaTUlOJluZWyu0zaWxopNRYoq2lDUmSJEmSJEmT08lTJ6mN1Rg7M0Z1+DinRkeona5x/ORxamOjPLf/OU6eGubw0BEODjzP0IljHB46zImRE0gTzHBK6UGILwF/PLRl4BSSXrJA0ktW2VhZkzL+ZRDrgA6ki6RYKDKvex6XL7qc2Z09LO5dQqVcobd7HjNaZ9DY0ERDsUhzYzONDY0UsgItzS1EBJIkSZIkSZKml5QSp0ZPUc/rjJ0ZY3RslDPj44ydOc2JkRPsO7KfweogO/Zt59DQYb6/8/vsP7Kf8fo40kWSA8cT6f48xcerWwaeQtJLEkh6UeUNZbJCoZksLY2UfYjgHUA7EEjnQRYZDcUGmpuaaWpsoqmhiXJ7md7ueaxefCWL51/G4t7FLOldAgFBQEAQvCAikCRJkiRJkqSXI6XECxIJEiQSo6dH2fX8Lp547gkOHH2ex3Y8yr4j+6kOVzl95jSnx04zenqUM+NnyFOOdJ4k4ASJP00p/QGwK6/XT1e3VZH0wwWSXlRlY6UvBXdExAeAy5HOoWKhSEtzC50zO5nZOoMZrTPp7uimp9LD0vlLmD97PvNnL2DB7PlIkiRJkiRJ0kSw59Be9h7aw95De3lm73YODx7myLEjnBg5zvGREwxUBzhVO0WecqRz7NGU0r+PxDcGtw4+h6QfKpD0PylvKLcUisVbgQ8SvAZoRHqFioUilZkVFs1dxKK5i5hTmUN35yx6e+bT09lNT2cPPZ09SJIkSZIkSdJkcnjoMIeHDnN46Ai7n9/F80ef5+DgQfYfOcBzB57j6LGjSOfISWArif9QHx+/q7qtegpJ/0Ag6R/o3NS1GNL7IuItwGVAIJ2l3p5eVvatZMn8xVzWexndHd3MrsxhTtdsZrTOoJAVkCRJkiRJkqSpZOzMGNXhKgPHBzg4cJD9Rw+w68BOdh7YxePPPc6+w/uQXoEEPJtS+s8QXxjaMrADSf+/QNJ/U+4vNwSFVwfxzwNWAy1AIL1EWZYxv2c+Vy5ZzVVLr2btsjV0lbtob2mnpdRCS1MLWZYhSZIkSZIkSdNJvV7n1OlT1EZrDJ8aZqA6wENPP8wjz3yXR7c/xt7De8nzHOllSMCpBI8l0m8k6t+obq6eQRKBNM2VN3U1BvmlQfYrEfwEUEB6ERFBc2Mz7S3ttJZa6e3pZc2yq7lyyZVce8W1lNvLBEFEEBFIkiRJkiRJkv5nKSVSSiQSx4eP8+iOx7jv8Xt5+Onvsu/wPoZPDTNSG2F0bJSUEtKPUE+J/0Ckz+YpjlS3DIwhTWOBNE2VN5SjUCzMTRG3QfpoEFcAgfSPZJHR3dnNJV1zmF2Zw/KFy3jV6lexdMFSejp7kCRJkiRJkiSdO4eHDvPo9kf57tPf5cld3+fAkQMcOXaEo8eOkqcc6YdIifQExO+Q+EY+Pn6kuq2akKahQJqGKhsrjQluiuBOIl4HlJH+nlJTid6eXpbMX8KS+UtYtmApyy9dzoI5C2hpakGSJEmSJEmSdP4Nnxrm2f3P8dz+Z9m+dwfb925n+97t7Du8j9rpGtI/ciSR/iIlvpCIh6tbBsaRpplAmmbKG8rlQrH4UYK3AUuBAtIPzGidwdrla7lqyZUsXbCUubPmMq9nHnO65pBFhiRJkiRJkiTp4slTzsGBg+w/vJ8DRw/wzJ5neGT7ozz01EOcGDmB9HfGgMdJ6T/Vx+u/X91WHUWaRgJpGuns77w2yD4LrAfa0LQWEcypzOHWtbdw7crrWHHp5XR1dDGjZQal5hJZZEiSJEmSJEmSJp485dRGa5w4dYKBYwM8uev73P/4fdz3xP3sen4XeZ6jae94Sumbkfj04NbBp5CmiUCa4jr7O7OUMy8i3h0RHwG6gUDTSkTQ3tJOe0sbKxZdwc1X38SNV97I0vlLiQgigohAkiRJkiRJkjT5pJRIKZFS4pm9z7D1wa18/f5vsP/wPoZPnWT41DApJTTtJGB/Sulfp5T+PDL2D20eypGmsECawsobysVCsXhLivSxIDYCjWjayCKj3F5mbvdc5nXPY8PVN/Oq1a/isnmXUSwUkSRJkiRJkiRNXeP1cZ7d/yzffuzbbHv4b9hzaA+HBg9RHa6SpxxNK2OJtDVS/Kv6+Pjd1W3VUaQpKpCmqMrGyuwUvDkiPg4sQtPGzLaZXDbvMlZetpLVi1ezsu8Kls5fSqm5hCRJkiRJkiRp+jk1eoondj7BM3u289iOx3j82cf5/q7vUztdQ9PKrpTSHxDpy0Obh3YhTUGBNMWUN5QLhWLhGiJ+Frgd6EBTXnNjM0sXLOXmq29i7fK1zOvuZcHs+cxsm4kkSZIkSZIkSf/D8ZPH2XNoL7ue38VjOx7lb757N8/seYbRsVE0LRyH9E0Sv1cfr3+nuq1aR5pCAmkKqWysNKfgvcDHImIh0IimtCXzl/Da617LTVffxKVzFtI5o5PWllaCQJIkSZIkSZKkF5NIjJwaYejEELsO7ubu797NX9/312zfux1NeWMppd0JPpeIP69uGRhDmiICaQoob+pqDPJLI+I3g7gDyNCU01BsoNxWZm73XDauvZU33PgGli5YSqFQIIsMSZIkSZIkSZLOVp5y6vU6z+x5hq/87VfY+tBdHDhygOrJKmfGz6ApqZ4Sf0bwSznjR6qbq+NIk1wgTWLlDeXIisVugldD+mdBXAEEmjKyyCi3l1k0dxEr+67gtde/jmtWrKOt1IYkSZIkSZIkSefLydpJvvPkg3zt3q/x2PbH2HNoD9XhKnnK0ZSSEtyfUv7bEXxraPNQFWkSC6RJqtxfLgTZyiD7YMBbgW40ZRQKBZYvXM6Vi1ezZvlarlt5LYvmLiKLDEmSJEmSJEmSLpQ8z3l6z9M8/PR3efiph3h0x2M8tfsp6vU6mjJySHuAP0l5+kJez/dVt1UT0iQUSJNUpb/y2pT4ZESsB0poSuho72D9Fddw01U3s2bZ1Vx6yaV0zuhEkiRJkiRJkqSLbejEELue38XDT3+Xbz38Le597F5GRkfQlHE8pXRPIv63Y1sGvoM0CQXSJFPeUG7OGgp3BvEpYB6QoUktIujt7uWtG9/Kpms2smD2AjraO2hsaESSJEmSJEmSpIlm7MwYQyeG2H1wD3c9dBdf2vol9h3ZR0oJTXo5sDMlPpuPj3+xuq06ijSJBNIk0dnf2QAshfiVIO4AmtGklEVGa6mVmW0zufGqG3nzzW/ixqtuJMsyssiQJEmSJEmSJGmyyFNOnufc/cjd/Nk3/owHn3qI4yePM1IbIU85mrRGEnwJ8t8BnhnaPHQGaRIIpEmg89bO1ijEayE+AVyDJqVCVuCSWZew6rKVvGr1Dbz62tvo7e4lyzIkSZIkSZIkSZrs8jxn35F9fOP+b/Ltx+7he88+zvNHn6ee19Gk9R1Iv5dyvjq0dfAk0gQXSBNceVPX7Iz0sxHxXqAXTTqNDY0s7l3M9auu54bVN7Dh6ptpLbUiSZIkSZIkSdJUNVIbYdt3/4Z7HruHe793Lzv27WDszBialA6llD4fiX83uHVwL9IEFkgTWOemrjURfBx4E9CMJpViocia5Wu4/frXcc2K9SxdsIT2lnYkSZIkSZIkSZouhk8N88ye7XznyQfY8uBW7nv8Ps6Mn0GTzmngqynxu0NbBu5FmqACaQIqbygXC8Xi6wh+BVgNNKBJo7GhkTXL1vDht36YK/pW0FXuormxGUmSJEmSJEmSpqvRsVGGjg/x+HNP8Pm//Dz3PHYPY2fG0KQyDnyPxGfq4+Nfq26rjiNNMIE0wXRu6uoN0i8S8UGgFU0KpaYSsyuzuemqm3j3697F8oXLaSg2EBFIkiRJkiRJkqT/LqXEmfEzPLv/Wf70a3/K1ofu4vDQYUZqI2jSGEqk3wY+P7R58CjSBBJIE0R5Q7lQKBZXEvwq8CY04WWRUW4vs2T+Ym686ibefPObWDx/MZIkSZIkSZIk6aXZe2gv//Xu/8o3H/gmz+57jsHjg+QpR5PC5xPpd/Iz9R3VbdU60gQQSBNAub/cmpHdFmS/BFwDBJqwIoJLui7h+lXXsX7Ftdy69hZ6e3qJCCRJkiRJkiRJ0suTUuLA0QPc8+g93P/E/dz7+H3sPribPM/RhJYDW1JK/yofr99V3VY9jXSRBdJFVumvdKbEuwk+FMRlQIYmrN6eXt5ww+u5dd2tLF+4nFnlWWRZhiRJkiRJkiRJeuWGTgzx1O6nufuRu/n6fV/nyZ1PogltPMHTpPQHkfizwa2Dx5EuokC6iDo3dc0EPhfBO4AOINCEU8gKLJq7iHe+5qe4Ze0tzOuex4zWGUiSJEmSJEmSpPNjpDbCgaPPs/mBb/KFr/wRew7tQRNWAoZS4gvArw9tGRhGukgC6SIo95eLkWd9kWX/KeAKIEMTSkTQ1tLG4nmL+dBbPsRt6/spNZfIIkOSJEmSJEmSJF0Yecqpnqjy/971Jf7jV/8jh4YOcfLUSVJKaMLJSWlrTvpIinxndXN1HOkCC6QLrNJfmZFgE4nfiIglaEKJCDraO1ixaAW3v+p23r7pbcxonYEkSZIkSZIkSbq4Dg8d4St/+xX+6tt/xZM7n+TY8DFSSmhCSYn0GCn9WkR8a3Dz4AmkCyiQLpDyhnJkxWxuRLwT4meABWhCaS21csPqG9i0bhObrtnI3O65ZJEhSZIkSZIkSZImhjzlHDhygC3f2cqWB7dwz2P3MFIbQRNKDuyE9PkEXxjaPHgE6QIJpAuk49bOvihkvxbwOqATTRgNxQbWr1jPj/f/ONddcS29s3spZAUkSZIkSZIkSdLEVM/r7Du0j/ueuJ8vbv4iDzz5AGfGz6AJZSjBX6Z6/uvH7hraiXQBBNIFUO4vL8hS4YsRcRXQiCaEQlbgir4r+MAbP8CrVl3PJbMuoVgoIkmSJEmSJEmSJofx+jjPH32eb3/vXv70r/+UR7c/ytiZMTRhjKWUHsmj/uPVzdU9SOdZIJ1HnZu6ShHpNRC/CyxEF11E0FZqY3HvYj70lg9x2/p+WppbiAgkSZIkSZIkSdLklFKintd54IkH+Fd//n/w6I5HOX7yOHmeowlhN6SPpRRfH9oyMIp0ngTSeVDeUI6smHUQ2U8FfALoRRdVRNDR3sGKRSu4/VW38/ZNb2NG6wwkSZIkSZIkSdLUMl4f56v3fJUvf+u/8Mj2Rzg8dJg8z9FFtyvBb0H6s6HNg8eRzoMC0nlQ6mvtiiz7RMDPAvPQRdVaauWWNbfwnte9hw+/7We5+eqbaG5sRpIkSZIkSZIkTT1ZlrFs4TJuvvpmLr3kUrLI2H9kP2PjY+ii6gi4CqLUfGnpe6O7ajWkcyyQzrFyf3lOlgq/ExF3AG3oomkoNrB+xXp+vP/Hue6Ka+md3UshKyBJkiRJkiRJkqaPA0cP8LeP/C1/vvmLPPDkA5wZP4MuqpOJ9MWc+q9UN1cPIp1DgXQOVforV6XEr0XE64AiuigKWYGVfSt5/xvfz6tWXc8lsy6hWCgiSZIkSZIkSZKmp/H6OPsO7+Ov7/s6n//Lz7Pn4B50UZ1OKX01Jz5R3TKwC+kcCaRzoLO/0gTcEsS/BK4EAl1wjQ2NzJ01lw+88QO87da30jGjg4hAkiRJkiRJkiTpBXnKOTR4iC985Y/48re+zIEjB6jndXRRJOBBSJ9KKb49tGVgDOkVKiC9Qh0bK20R8c4gPgesAAJdUMVCkd6eXn7s5jfymZ/+DK+97jWUmktEBJIkSZIkSZIkSf9DRNDe0s5NV93EDatvoDpc5dRojZHaCHnK0QUVwFyIdQRHmi9t3j26q3YG6RUoIL0C5f5yZxaFDwV8GpiLLqiIoGtmF6+57jV86C0/w3te/x7mzroESZIkSZIkSZKkf0p3Rze3rruVRXMXEZFxZOgItbEauuBmBVxFRDTNb3xodPdoHeksFZDOUrm/XMlS4Zcj4sNAJ7rgrrl8HR9/5z/jna/5Ka5cciVNDU1IkiRJkiRJkiS9VI3FRvrm9rFm2Rqu6FvJ0Ikh9hzagy64zoC1UYhiU1/Tk6M7R2tIZyGQzkKlv3JZSnwqIt4OtKMLalbHLO58/Z28fdPbmNc9j2KhiCRJkiRJkiRJ0iuR5znPDzzPXQ/dxb/50r/h2f3PoQuumlL6v3Lic9UtA4eQXqZAehk6N3VlEWklxGeB1wEZuiCyyJjVMYv+9f38/Nt/joVzFpJlGZIkSZIkSZIkSedSnnKODB3hi1v+E3+++c/ZdWAX4/VxdMHkwF8Bn06J7w1tGagjvUQFpJeh1Fe6KYjfAvqBQBdEx4wObrrqRn71A5/mfa+/k65yFxGBJEmSJEmSJEnSuRYRtLW0ce0V61m/4hpOnjrJ0IkhTtZOogsigKXAVUTaXttZ2430EhWQXqLO/soNQfw+sB5dEI0Njay7fB3vf8P7+PhPfZzlC5dRKBSQJEmSJEmSJEm6EHo6e7hl7QZ6Ons4cfIEA9UBxuvj6IKYG8SVpb7SU03zm54f3T2aI/0TCkj/hPKGckPL4ra3B/EZ4Cog0HkVEfT29PLBN36QD7/tZ9m4biNtpTYkSZIkSZIkSZIutMZiI8sWLGXNsjVUZnay59Aehk8NowuiJ4hVUciGm+Y3Pj26ezRH+hEKSD9CeUO5mDUU3xzw68AKIEPn3Ttu+wk++zOf5dXX3sbcWXMpZAUkSZIkSZIkSZIulkJWoKvcxerFq1m/Yj2HBw+x8/ld6LwLYHbAqihkB5vmNz4zuns0R3oRBaQX0dHfMTMrZD8XxG8A84BA50UQlJpKrLt8HX/wiX/N++54H3O65tDY0IgkSZIkSZIkSdJE0djQyCXdl/CGG99Ab3cvu5/fzfCpYep5HZ03AVQCbohC1Jv7mr8/unP0NNIPUUD6IcqbusoZfDgi+zTQjs6bLMtYOGch73ztT/Ev7vwXXNF3BYWsgCRJkiRJkiRJ0kQUBMVCkZV9K7lu1XXU63UGjw9ysnaSlBI6b9qDuJlEramv6ZHRnaNjSP9IAekfqfRXeiPiFyLik0AJnTcNxQZuWXMLv/iOj/GO295BZWYFSZIkSZIkSZKkySAi6O6YxXUrr+Oy3ss4MTLMvsP7yPMcnTfFiLg2I/KWvpadtZ21E0h/TwHp76n0V3ohfingZ4BWdN70dPbwgTd+gI+87cOsX7GehmIDkiRJkiRJkiRJk01TQxOLexdz5eIr6e6Yxa7nd3Fi5AQ6bxohroFoa+krPV7bWTuB9HcKSH+n0l/pgfgUcCfQis6LQlZg7fK1fPoDv8rbbn0rc7rmIEmSJEmSJEmSNNl1zuxk9ZLVrL18LSdGhtl9cDf1vI7Oi0ZgBURLS1/pu7WdtRGkHwikH6j0V+ZB/BpwJ5Chcy4imNc9j/ff8T7e+/r30trcSkQgSZIkSZIkSZI0laSUqOd1vvbtv+Y3/vg32H1wN2fGz6DzIgf+CNKvDW4e3I+mvQKa9jr7K0sDPgvxHiDQOTejtZ3rVl7Hb3/kt/ixm3+MxoZGIgJJkiRJkiRJkqSpJiLIsoylC5aycd2tHBuucvTYUUZGR9A5F8DVwOxSX8uTtZ21QTStFdC01tlfuTKI34R4ExDonMoiY3HvZbzn9vfyS+/6JEsWLEGSJEmSJEmSJGm66Gjv4MYrb6Dc3sHBwYMMnRgiTzk612JFEJeW+kpP1XbWDqFpq4Cmrc7+ypVBfAa4DWhA51RDsYFXX/tqPvnuT/LGm+6gc0YnkiRJkiRJkiRJ001TYxPLFy5nxaIryFPOjn07qNfr6JwKYEEQvaW+0tO1nbVDaFoqoGmps7+yNIjfBG4DmtA51Tmjk//1Pf+cn3v7R1h+6XIaGxqRJEmSJEmSJEmarorFInO7L2H9imvoLs/i3u/dy3h9HJ1TRWBhEAtKfaXv1nbWBtG0U0DTTmd/ZXkQfwhsAoronIgI2lvauf2G2/k/P/779K/vZ0brDCICSZIkSZIkSZKk6S4iaGlu4aqlV3HbNf3sObSXw0OHqdfr6JwpAouDWF3qKz1Q21kbQNNKAU0rnf2VpUH8IXATEOicKGQFlixYws+97ef46E/8AvN65pFFhiRJkiRJkiRJkv6hLDJ6Kj1cv+p6GopFDg0d5sTICVJK6JwIYEEQK0t9pftqO2uDaNoooGmhvKFcbL2s7fqI+BxwKxDonGgoNnDL2lv45Ds/wRtvuoOWUguSJEmSJEmSJEn60Wa0zmDd5etYNHcRR6sD7Dm0B51TvUFcWuorPdM0v+no6O7RHE15BTQttF7Wug7icwQbgCI6JzraO3j37e/ioz/xUdYsW0OWZUiSJEmSJEmSJOmlaSg2cFnvZay8bCXFYgO7DuxidGwUnRMBLAhifhTiqdrO2kE05RXQlNfZX1kaEZ8j2AA0onNice9ifundn+Rdr30X87rnIUmSJEmSJEmSpLMzq2MW65avZdG8Pp7Z8wxDJ4bQOVEEFgQxv9RX+m5tZ20QTWkFNKV19leWB/GHwEagiF6x1lIrt62/jd/5+d/m5jU309LcgiRJkiRJkiRJkl6Z5sZmli1cyqZ1Gzl56iR7D+3l9JnT6BUrApcFsbrUV3qgtrM2gKasApqyOvsrS4P4Q+AmINArNq97Hh/8sQ/yy3f+C+Z1zyMikCRJkiRJkiRJ0rkREXS0d3Dr2lsoNZXYe2gfx4aPoVcsgAVBrCz1le6r7awNoimpgKakzv7KlUH8JrAJCPSKNDY0ct2q6/iFH/953vv691BqKiFJkiRJkiRJkqTzo1gosmbZGi6du5DDQ4c5NHiIel5Hr9j8IC4t9ZWequ2sHUJTTgFNOZ39lSuD+AxwG1BEr0h7SztvvfWtfOKd/4zrV11PsVBEkiRJkiRJkiRJ51dEsGD2AlYvXs1IbYSdz+/kzPgZ9IoEsCCI3lJf6enaztohNKUU0JTS2V9ZGsRvArcBTegV6ens5pff98t84I3vZ/7s+RSyApIkSZIkSZIkSbowsixjVnkW16xYR1upjYeffpgz42fQK1IEFgYxu9RXeri2s3YMTRkFNGVU+ivzAj4H8SagAZ21xoZG1iy7mn/7qX/LpnWbaC21EhFIkiRJkiRJkiTpwooIWptbWXf5Oq694jrue/xeTtZGyFOOzloRWBZEW0tf6eHaztowmhIKaEqo9Fd6IH4d4t1AoLNWbi9zx41v4LM/81mWLlhKFhmSJEmSJEmSJEm6uLLImNc9j+tXXs+hwYMcGjzE2PgYOmsBXA0xs6Wv9EBtZ20ETXoFNOlV+iu9EJ8CfhoIdFYigku6LuH9d7yPj7ztI/T29BIEkiRJkiRJkiRJmhgigp7OHtYuX0sK2HtoLyOjI+gVuRKiuaWv9ERtZ+0EmtQKaFKr9Fd6IX4JuBNoQmdtyfwlfPJdn+Dtm95OV7kLSZIkSZIkSZIkTUwz22ay6rJVzO2eyxPPPsHxkePorAVwBURbS1/p8drO2gk0aRXQpFXe1FWOiF8I+BmgFZ21VZet5Hc/+nvcfPXNtJZakSRJkiRJkiRJ0sRWaiqxZP4S1i5fy+PPPc7hoSPorDUCK4BTTX1ND4/uHB1Dk1IBTUod/R0zM/hwRHwSaEVnpbW5lbfc8hZ+92O/y9L5SygWikiSJEmSJEmSJGlyKBQKXDLrEl5z3Wuona7x7L5nGRsfQ2elEeKaSIw19zV/b3Tn6Gk06RTQpFPeUC5mheznIrJPAyX0smWR0dszj59+00/zCz/x88yuzCYikCRJkiRJkiRJ0uQSEbS1tHHN5dfQ3jqDXQd2MTwyTCKhl60xIl4FcaxpftODo7tHczSpFNCkUt5Qbsgaim8O4jeAdnRWrlx6Jb/4jo/xk69+BzPbZiJJkiRJkiRJkqTJrbmpmauXXEVvTy97Du3h4OBBdFaKQayKQranaX7j9tHdozmaNApoUmlZ3Pb2gF8H5qGzcuvaW/jV9/8KG9ZsoKmhCUmSJEmSJEmSJE0NWZaxZP4Sll+6nMETQzy771l0VtoDroxCdri289QTaNIooEmjs79yQxCfAVYAgV6WhmID77jtHfzz93yKK/quoJAVkCRJkiRJkiRJ0tQzp2sOKy9byfGTx9mxbwd5nqOXrSPg0lJf6anaztpeNCkU0ITXuakrK/WVbgri94GrgAy9ZBHB7MpsfvEnP8bH3vFRLum6hIhAkiRJkiRJkiRJU1NE0Dmzk+tXXsd4Xmf73u2MnRlDL0sAc4K4utRX+n5pUWl/bWctoQmtgCa8lr7SqiB+C1gP/H/swWlwnfd96Pfv7/8cHOCcA4APcEBwA0ASILgvEvdFIkES0EZSkq1d1mop9pVX2Y4tOzfKvZ3E6e2dxOmbuJnOtNN3d6YzzXSmnXQ6mbb3OrVvEm+KvEqWIMrW5kW2JEs6oLg8TZSxblTJEimCJIDn+/kEOiMjAyN85gOf4Y6r7qDeUUeSJEmSJEmSJElzXxDUO+psX7uNeq3BI08+wq9f/TU6IwEsDBiIiIdak62fohktQzNac6K5AuLfAxPojK0bXsfv3fV7XH/gOrIsQ5IkSZIkSZIkSeVSbauyaXQTzXlNfvDED3jh5RfQmYoRiMH6SO3rrcnWL9GMlaEZK5/Im1Gk/yoibgQCnZHdG3fxhTu/wPi2g0QEkiRJkiRJkiRJKqcsy1i3fB1LFgzw1M9+wjO/eBadsRVFQWf7SPtXpyanWmhGytCMlE/kvanIfj8ibgc60GnLUsbE9gkevOdBtq7ZSpZlSJIkSZIkSZIkqdwiguHFw6wYXMGPf/oTnvn5MxRFgU5b/KPRKKKzfaT961OTUy0042Roxuk52OxMkd0XER8F5qHTVu+oc+TSI/zxR77IioEVZClDkiRJkiRJkiRJ+icpJQb6B9i3eR/PPf8cR589yomTJ9Bpa4+I1UFq1ZbX/qH1ROs1NKNkaEbpnWi2R8RtAf8G6EWnrbvRzV2H7+KP7/siPV09RASSJEmSJEmSJEnSvxQRdNW72HvxXqZeO8YjTz7CsePH0GmrBayPiJ/WRmrfb022TqIZI0MzSm24PhERXwSWoNO2qG8R915zL/ff/ElqHTUkSZIkSZIkSZKkd9JR7WD72m38k8mnJ3n51ZfRaesE1lHwg9Zk6zE0Y2RoxmgebK6JFF8G1qHTNrx4mPtv/iR3HLqDzlonkiRJkiRJkiRJ0umotlXZNLqRvrzJ5NNP8PyLz6PT1hsR6+rLa19pPdH6BZoRMjQj5BP5oiB9KSLGgECnZXjJMH9w7x9w5NLDNDoaSJIkSZIkSZIkSWei2lZl5dBKBhcM8sOjj/D8i8+j07awgIH2kfavTE1OvYwuuAxdUPlYHrWRRl8i/VlEvA/I0LuKCLau2cqXH/gyuzfuolqpIkmSJEmSJEmSJL0XlazCyMAIB7bu59uPPsSzv3gWnZb4RyuiiCUdy+tf6Vja3po6OoUunAxdUPUV9d5I6bMRcTvQgd5VW6WNLas38+cP/DmrhlYSEUiSJEmSJEmSJElnIyLo6eph98ZdPPToQzz3/HMURYHeVYqI5US0ReJbrclWC10wGbpgeieadSLuDOIjQB96V7X2GlftuZIH73mQlYMriQgkSZIkSZIkSZKk6ZJ35qwbWc/RZ47y1M+eoigK9K6qAcsJXqqN1L/bmmwdRxdEhi6Y+kj9cBB/BAygd9VR7eDqvUd44PYHWDm0kohAkiRJkiRJkiRJmk4RQX8+n9HBFfz8hZ/z1M+e4sTJE+hddQexIeBHrcnWD9EFkaELIp/Ilyay/wAMoXdVySpcsfsKHvzggyxduJSIQJIkSZIkSZIkSToXUkos6F3A1jVbeOrnT/P4U49zqjiF3lU3xI72ker/OjU59SI67zJ0XuVjedSG6yMp0n+IiPXoXVWyCkcuPcKf3f8l+nv6iQgkSZIkSZIkSZKkcymlRN6Vs3/Lfo4++ySP/eQxThWn0LvKo4hdHctq//fUE61fofMqQ+dVfUV9IFL6o4gYBzL0jroaXVyx8wr+9JN/wrzOeUiSJEmSJEmSJEnnU3u1nX0X72XymUmefPZJTpw8gd5ZRPSTorc2UvvPrcnWK+i8ydB505xodkfEPUHcBXSid9Q7r5fbr7iNz972WfryPiRJkiRJkiRJkqQLoaPaweZVm3nh5V/x4+d+zLHXjqF3lAUMBbTqI/WHW5OtY+i8yNB5kU/klSBdGcS/Bhahd5R35dx56E7uu+4+FvQuQJIkSZIkSZIkSbqQuhvdbBrdxKniFI/8+BGmXptC76gGMVrAj9pH2n80NTl1Cp1zGTovasvro0H8DxExgt5Rrb3G3Yfv5uM3fpzmvCaSJEmSJEmSJEnShRYRdDW62Di6ialjU3znse9w4uQJ9I5yCi6miP9z6onW8+icy9A51zvRnBeR/ioi1qJ3VGuv8ZHrP8Ln73yARkcdSZIkSZIkSZIkaSaptXdwyaY9HD9xnIcefYgTJ0+g3y4imkFsro3U/pfWZOsYOqcydE41J5q9wBeDuAoI9Fstmb+EOw/dwedu/xyVrIIkSZIkSZIkSZI0E6WU2LVhJ1PHWhx99klebr2M3kGwBJhXH6n/bWuy1ULnTIbOmXwib0SRPhgRHwXq6Ldaumgpn771U3zwyAdpr7YjSZIkSZIkSZIkzWQpJTav3kx3o5tHf/IjXnz5RfRbRRAjRcGL7SPt35manDqOzokMnRP5WJ6lLF1FxBeCWAIEeltL5i/h07d+ivftex+NWgNJkiRJkiRJkiRpNqi2VRkdHKVRq/Odx7/Ly62X0W/VQTAcxBPtQ+0/mjo6VaBpl6FzorGic1NE/LsgNgAJva1ae407D93BB498kEatgSRJkiRJkiRJkjSbVNuqjA6N8vKrL/MPP3qYEydPoLcVQfQELE4p/X1rsvUzNO0yNO16x/sGI/h3wEEgobdVa6/xkes/wudu/xzt1XYkSZIkSZIkSZKk2ajaVmX3xt0cP3Gchx59iBMnT6C3FRCDRCyuDde/1pp89SU0rTI0rfKxvCOleJCIu4FAbyvvyrn78N18/s4HqGQVJEmSJEmSJEmSpNkspcSuDTt5pfUKj/74UaZem0JvK4A1QRHtQ+3/19TRqVNo2mRoWjVGGu8jxR8Cbeht9c7r5c5Dd/LxGz9Oo6OOJEmSJEmSJEmSNBeklNg0uonjJ47z6E8epXWshX6LiA0ppYdbk68+gqZNhqZN73jf1kjxXwNL0dvqanRx+xW3cd9199Gc10SSJEmSJEmSJEmaS2rtHaxZvoapYy1+8OQPee34a+htVQlGa8P1b7cmX30GTYsMTYt8vG9hCv4tcADI0FtUsgpX7LyCz972WRb0LkCSJEmSJEmSJEmaixodDVYtXcXRZ5/ksace41RxCr2t+RHMax+uf3Vq8tWX0VnL0FnrPdDbiOBTEXEP0I7eopJVOHLpEf70k39CX96HJEmSJEmSJEmSNJd11bvYt3kfTz73JI/95DFOFafQW2TA8oiiVVtW+2bridZxdFYydFZ6x3vbIuJIRDwANNFbdFQ7uGL3FfzZ/V9iXuc8JEmSJEmSJEmSpDLoqHYwtnkfjz89yZPPPsmJkyfQW1SDGI3gidpw7UetydYp9J5l6KzURmprI9K/B9agt6i117h67xEe/OCD9Pf0I0mSJEmSJEmSJJVJe7Wdzas28/MXfsbk009w4uQJ9BbziFhGFF9tTbZ+ht6zDL1n+VjeEVn6syAuQ2/RVmnjqj1X8sDtD7B04VIiAkmSJEmSJEmSJKlsuhvdrF2+lp/89Mc89tTjFEWB3mIJ0Nc+1P6/Tx2dOoHekwy9Z40VjU9GxH1ABb1JRLBl9WYevOdBVg6tJCKQJEmSJEmSJEmSyigiyLtyRgZG+N7k93n2F8+itwpiJLL4WWuy9Q30nmTojOUTedYYaVxBxB8CTfQWW9ds5c8f+HNWDq4kIpAkSZIkSZIkSZLKLCLo7+ln96bdfPMH3+TZ559Fb1EJYkN9pPZI+0j7E1OTUwU6Ixk6I/lYHpGljRTxhxGxAQj0JsNLhvnyA19m1dBKIgJJkiRJkiRJkiRJEBH0dPWwdngtX3v4a/zq179Cb9FVFAwQ6RtTk62foTOSoTNSX9FYEJE+HRGHgSp6k+HFw/zBvX/A7o27iAgkSZIkSZIkSZIkvdnC5kIWNRfxrUe+xUuvvITeJP7RAoiiNlL7Zmuy9So6bRk6bfl4XzUirg24H8jRmyzqW8T9N3+SI5ceplqpIkmSJEmSJEmSJOmtIoLBBYPUO+p8b/J7vPzqy+hN2gKGIZ5oH67/YGry1ZPotGTotNWGO1ZE8N8GMYzepLvRzb3X3Msdh+6g0dFAkiRJkiRJkiRJ0m/XVmlj5dAor7Re4eHHHub4iePoTRpQrIDir6cmW8+j05Kh09I82OwgxV8EsRcI9IZ6R527Dt/F/Td/ks5aJ5IkSZIkSZIkSZLeXbWtypbVm2kda/Hdye9y/MRx9F8E0U/QW19e/6vWE60T6F1l6F3lY3kWWbonIj4NJPSGLGUcufQIf3zfF6l11JAkSZIkSZIkSZJ0+qptVXZt2MVjTz3Go08+SlEU6A0RxPoCnmkfav/21NGpAr2jDL2rxorGTuC/iYg+9CYT2yf44498kZ6uHiRJkiRJkiRJkiSduUpWYcvqzTz2k8d4/OnH0ZsEsDKl9PXWZOsp9I4y9I6aB5sLSfGvI2IPkKE37N64iwfveZAVAyuICCRJkiRJkiRJkiS9N521TkYHV/DYUz/iJz99Cv0XEdFFRL2+vPafW0+0Xka/VYZ+q3wsr0SWbouIfwV0ojesG17HF+78AlvXbCVLGZIkSZIkSZIkSZLeu4igL+9j8fwlfP+J7/PzX/0cvSEDBgt4tn2o/dtTR6dOobeVobfVO96bUsoORsQXgcXodRHByMAIv3fX7zG+7SBZliFJkiRJkiRJkiTp7KWUWLpwiAW9C3j4sYd54eUX0BtqETGSUny3Nlz7cWuyVaC3yNDb6lheGyT4o4jYjt6wsLmQz3zgM1x/4DoiAkmSJEmSJEmSJEnTJyJYOTRKSolvPfJtWsda6A19BfQXBV+ZeqL1InqLDL2t+kj94xFxF5Ch17VV2vj0rZ/ijqvuIMsyJEmSJEmSJEmSJJ0b64fX0zrW4hs/+AanTp1C/ywilgIvtiZbX0FvkaG36B3v3RWRvgTMQ2+45bJb+NQt91PvqCNJkiRJkiRJkiTp3MmyjLXL1zD5zCSP/vhR9IYsItbVhju+2ppsPYXeJENvko/lecqyvwDWA4Fed2Drfr5w5+dZ3LcYSZIkSZIkSZIkSederb3G8JJhvvv493j2F8+iNzSABe1D7f/H1NGpKfSGDL2hOdGsppR9luAGoB2RInHRqov4g3seZP3IeiICSZIkSZIkSZIkSedeRNDf08/QwiEeevQhfvXSrygoEPGPlqSUivpI7WutydZJ9LoMvS4fyyNSOhARvwssQa9b0r+ET91yP/u37idLGZIkSZIkSZIkSZLOn4hgoH+AvCvnoUcf4qVXXkKvqxIsKAp+0D7U/sTU0SkEGXpdY0VjIOCzROwDEqLR0eB3rrmXmy+7mVp7DUmSJEmSJEmSJEnnX0qJoYVDHD/+Gt9+5CGOnziOXtcb0JZS+rvWZOslRIbIx/uqEfG+iPgYUEevu27/ddx/y/30dPUgSZIkSZIkSZIk6cJpb2tn5dBKnv3Fs3x38rvodYmIwSLi8fbh+vemJl89SclliNpwx4oIvhTEUvS6jSs28KVPfYmFzYVIkiRJkiRJkiRJuvDqHXU2rdzE1x7+Kj/95c/Q6zqgGIbir6cmW89Tchkll0/kbSnSl4I4CAQlFxGsHFrJl+7/M1YNrSQikCRJkiRJkiRJkjQzdNW7WD+ygb///t/zy5d+iSCIfoLe9pH2/21qcuoUJZZRcrWRxlWJ+CMgIRb3LeZzt3+WfZv3UckqSJIkSZIkSZIkSZo5IoK+vI+e7h4eevQfeOmVlxARxDqIb0xNth6lxDJKrHe8b2VE/GnAECLvyrnn6g9y4/iNNGoNJEmSJEmSJEmSJM08WZaxdNFSIoLvPPYdWsdaiASxtDbc8f+0JlsvUFIZJZWP5fVI8cmIuBqoUnLVtipXX3qEj93wMfryPiRJkiRJkiRJkiTNXNW2KsOLh3n+xV/wg6M/4OTJk5RdQC9wrH2o/e+mjk4dp4QSJZVVKgci4jqgjrhodBOfvvXTLGwuRJIkSZIkSZIkSdLMN79nPh+78eOMDo6i1zUi4qasUjlASWWUTD6W0xhtrCDi94CdQFByC3r7+YvP/wWrlq4iCCRJkiRJkiRJkiTNDvM6u9m86mL+8j/+Ja8df42SC6AXqNaX1/6+fWn7i1NHpyiTjJKpr6h3QHwgIv4VUKHkuupd/P4Hf5/xbeOkSEiSJEmSJEmSJEmaPYKgv6efekedv/3u33L8xHFKLghWFPB0pHioNdk6QYkkyiZYFRH3AlVKrtpW5dp913JozyFSSkiSJEmSJEmSJEmafVJKvH//+zl8ySGylCGqEXEvwSpKJlEyUaT7gLWI7eu2c+8199Db3YskSZIkSZIkSZKk2atvXh8fuvZDbF69Gb1ubRTpPkomo0SaB5tbSPEnQDslN9A/wCdv+gS7N+4mSxmSJEmSJEmSJEmSZq+IoDmvSaPWyUOPPsRLr7xE6QUr68trf916ovUsJZFREj0HenvJ4r8LYg0QlFij1uB3rv0d7jp8J5WsgiRJkiRJkiRJkqTZL0sZq5au5PkXn+fhHz3MiZMnKLlqESzvWFb7q6knWi1KIKME8rG8krLsnoi4DahRcpftuIzfv/tfU2uvIUmSJEmSJEmSJGnuSJG4aHQTP3zyEX70kx9RchFEk4hftg9Vvzl1dOoUc1yiBFKW1kVwK5BTcqODo3zhzs8zr3MekiRJkiRJkiRJkuaeeZ3z+MKdn2fpoqWIPIJbU5bWUQIZc1w+3teVUtwDXAtUKbGerh4euONz7Nuyj4hAkiRJkiRJkiRJ0tzU291Lrb3G17//daZem6LkeiLihfbh+jenJl99jTksMcelKDYVcBvQoMTaKm3cfNlNXLHrClIkJEmSJEmSJEmSJM1dKSWOXHqY6w9ej2gUcFuKYhNzXMYc1jve1w/xhxHsBoKSylLG/q37uf/m+xnoH0CSJEmSJEmSJEnS3Fdrr7F04RA/fu5Jnnz2SYqioKwCcgqqteHa37QmW68yRyXmtGJvBIeAoKQigtGhUT587YcYHRxFkiRJkiRJkiRJUnmMDo7y4fd9mNGhUSKCEot/dD3EGHNYxhyVj/ctTBH/PTBAiXXVu/j4DR/nmr1Xk1JCkiRJkiRJkiRJUrkM9A9QFPB33/s7Xjv+GiVWiYhV7SPV/3lqcqrFHJSYoxLcBmyg5MZ3jHPDweupVCpIkiRJkiRJkiRJKp9KpcINB69nfMc4YkNWZLczRyXmoHy8b3kEHwASJdbb3ctnbvk0eVeOJEmSJEmSJEmSpPLKu3I+fcun6Kh2UHKJiLvy8b7lzEEZc0xzotkWwb8J4gqgQkm1Vdr4vTu/wMSOCVIkJEmSJEmSJEmSJJVbb3cvnbVO/uahv+HUqVOU2LwIivpI7T+2JlunmEMy5pB8LI/I0r4gPgIsoqRSJC7feTkfv/FjdDe6kSRJkiRJkiRJkqQUiYH+ASafnuTxpx6noKCk2gLyAr7fPtR+dOroFHNFYg5JWdYHXAeMUmIrBka495p76O/tR5IkSZIkSZIkSZJ+o7+3n3uvuYcVAyOU3ChwXcqyPuaQjDkiH8tTZGlPRPwu0EtJdTe6uPPQXVyz92qqbVUkSZIkSZIkSZIk6Tcigvk983ll6lUefuwfOHb8NUoqC2IB8PX2ofYnpo5OFcwBiTkitWU5wS3AACUVEWxevYVbL7+FekcdSZIkSZIkSZIkSfr/q3fUufXyW9i8egsRQYkNENyS2rKcOSIxVxTsDuI2IFFSA/0DfOGOz7OobxGSJEmSJEmSJEmS9Nss6lvEF+74PAP9A5RYCuI2CnYzR2TMAfl437wU8WVgGSWVpYz7b/kk1+67FkmSJEmSJEmSJEl6N4vnL+bYa1N89R++SlEUlFSKiKH24fpfTk2+eoxZLjEHJLge2E2J7Vy/g7sO34UkSZIkSZIkSZIkna7brryNzas3U3K7E1zPHJCY5ZoHm8siuAdIlNSC3gV84qZP0OhoIEmSJEmSJEmSJEmnq7e7l/tv/iQLehdQYimCu/PxvsXMcolZrkjcDmykpNoqbXzgig+wY90OIgJJkiRJkiRJkiRJOl0RwZ6Ne/jAFR+grdJGiW1KUdzNLJcxizUnmluC+DSwjBJKKbF/y34+dsNHWdS3CEmSJEmSJEmSJEk6U9W2KgubC5l85gmOPnuUoigooWoQXfWR2rdak61nmaUyZqnmRLNWwN1BXAdUKJkgWLZoGZ++5VPsWLcDSZIkSZIkSZIkSXqvmvOadNY6+dYj3+bFX79ISTUL+Fl9pP73rcnWCWahxCxVwOogDgMdlFBHewfX7ruGfZv3IUmSJEmSJEmSJElna9/mfVy77xo62jsoqY4gDhewmlkqMQs1J5q1gAlgIyV10cqLuPPQndTaa0iSJEmSJEmSJEnS2aq117jz0J1ctPIiSmxjwERzolljFkrMQgXML+AuoEpJff6OBxjoH0CSJEmSJEmSJEmSpstA/wCfuOkTlFi1gLsKmM8slJiFAu4OYjUlFBHcctnNbF+3HUmSJEmSJEmSJEmabvs27+OWy24mIiijIFYH3M0slJhlmhPN/gI+AgQlNNA/wIeu/RBtlTYkSZIkSZIkSZIkabpVK2186NoPMdA/QElFAR9pTjT7mWUSs0wBHw5iPiVUa69x2xUfYHjJMJIkSZIkSZIkSZJ0rgwvGeaWy26h2laljIKYX8CHmWUSs0hzorkyiBuAoIQ2r9rMoT2HaNQaSJIkSZIkSZIkSdK50qg1OHzJITav2kxJRRA3NCeaK5lFErNIAbcCw5RQT3cPhy85xMjACJIkSZIkSZIkSZJ0ro0OjnLl7ivpbnRTUsMF3MoskpglmhPNLUFcBTQomRSJ7Wu3cd2B62irtCFJkiRJkiRJkiRJ51pbpY2bJ25i1/qdpEiUUCOIq5oTzS3MEolZoDnRrBVwGNhACc3vmc+H3vdhert7kSRJkiRJkiRJkqTzpTmvyYfe/2Hm98ynpDYUcLg50awxCyRmgQJWB3EI6KCEJnZMsGv9TiRJkiRJkiRJkiTpfNu1ficTOyYoqY4gDhWwmlkgMcM1J5q1gAlgEyU0v2c+n7jx41TbqkiSJEmSJEmSJEnS+VZtq/KJGz/O/J75lNSmgInmRLPGDJeY4QqYX8BdQJUSuvvw3SxbtAxJkiRJkiRJkiRJulCWLVrG3YfvpqSqBXFzQfQxwyVmuiIuD2I1JRMRbF+7jRvHbyClhCRJkiRJkiRJkiRdKCklbhy/gW1rt1FGAZsouIIZLmMGyyfyRiL9jwTzKZm+eX185rbfZfu67aSUkCRJkiRJkiRJkqQLqbPeSXtbla8+/FWOvXaMkomAFe0j1f9panLqODNUYgYL0gTBKkqmklUY2zLG7g27qGQVJEmSJEmSJEmSJOlCq2QVLr3oUia2T1DJKpROsCpIE8xgiRkqH8u7EunDQKJklsxfwtV7j7CwuRBJkiRJkiRJkiRJmikWNhdy9d4jLJm/hBJKifThfCzvYoZKzFCpLbsS2EzJVNuqHNx2gH2b95FSQpIkSZIkSZIkSZJmipQS+zbv4+C2A1TbqpTQRakt288MlZiBeg70dlFwNdCkZJbMX8Jdh++m0dFAkiRJkiRJkiRJkmaaRkeDuw7fzZL5SyihPgpu7DnQ28UMlJiBIqX9EbEbyCiRLGXce829rF2+BkmSJEmSJEmSJEmaqdYuX8O919xLljJKphIRuyOl/cxAiRmmOdHsjijGgCFKZsPIBm44cD2SJEmSJEmSJEmSNNPdcOB6NoxsoISGIoqx5kSzmxkmMcMUsBbiciCjRNoqbdxzzT30dPcgSZIkSZIkSZIkSTNdT3cP91xzD22VNkomg7i8gLXMMIkZpDnR7Ay4ClhJyexYt4M9G3cTEUiSJEmSJEmSJEnSTBcR7Nm4mx3rdlBCK6OIA82DzTozSGImKWIhRbwfqFAijVqDmyZuYvH8xUiSJEmSJEmSJEnSbLF4/mJumriJRq1ByVSAW4lYzAySmEEKuI5gHSUSEVyy6RJ2rd9JJasgSZIkSZIkSZIkSbNFJauwa/1OLtl0CRFBqQTriuAaZpDEDJGP5Z0R3E3J9HT1ML5tnMGFg0iSJEmSJEmSJEnSbDO4cJDxbeP0dPVQNgG352N5JzNEYoZIWbYXWEmJRATrhtcxvv0gWcqQJEmSJEmSJEmSpNkmSxnj2w+ybngdEUHJbExZtpcZIjFTBB8CghLprHVyaM8hlvQvQZIkSZIkSZIkSZJmqyX9Szi05xCdtU5KJkjcxgyRmAGaE80DEbGFkhkdHOXG8RtIkZAkSZIkSZIkSZKk2SpF4sbxGxgdHKVsgrikOdE8wAyQuMDysbxCEVcBfZRIljLuu+4+uhvdSJIkSZIkSZIkSdJs193o5r7r7iNLGSUznyKuysfyChdY4gJLlbSKYDfQQYmsH1nPZTsmkCRJkiRJkiRJkqS54rIdE6wfWU/JdBDsTpW0igsscQHlY3kGMQasoUTaKm3ce8291DvqSJIkSZIkSZIkSdJcUe+oc+8199JWaaNk1kCM5WN5xgWUuICytqw/InYC8yiRHet2sGfjbiICSZIkSZIkSZIkSZorIoI9G3ezY90OSmZeROzM2rJ+LqDEBZKP90UBW4ArgaAkGrUGN03cxOL5i5EkSZIkSZIkSZKkuWbx/MXcNHETjVqDEgngygK25ON9wQWSuEACuiDGgSYlERFcsukSdq3fSSWrIEmSJEmSJEmSJElzTSWrsGv9Ti7ZdAkRQYk0IcYDurhAEhdIUAwFHKJEerp6GN82zuDCQSRJkiRJkiRJkiRprhpcOMj4tnF6unook4BDQTHEBZK4YOJyYAUlERGsG17H+PaDZClDkiRJkiRJkiRJkuaqLGWMbz/IuuF1RAQlsgLici6QxIUSxe2USGe9k0N7DrGkfwmSJEmSJEmSJEmSNNct6V/CoT2H6Kx3UipR3M4FkrgAmhPN9wWxnhIZHRjlxvEbSJGQJEmSJEmSJEmSpLkuReLG8RsYHRilTIJY35xovo8LIHGe5WN5lYLrgIySyFLGfdfdR3ejG0mSJEmSJEmSJEkqi+5GN/dddx8lk1FwXT6WVznPEudZZLGSiN2UyPCSYS7bMYEkSZIkSZIkSZIklc1lOyZYunAppRKxO7JYyXmWOM8ipauAPkrktis+QK2jhiRJkiRJkiRJkiSVTa2jxq1X3ErJ9EVKV3GeJc6jfCLvDWI30ElJDC4YZP/W/aRISJIkSZIkSZIkSVLZpEhctuMyBhcMUiKdQezOJ/JezqPEeZTILgU2AUEJRARHLjnMQP8AkiRJkiRJkiRJklRWg/0DTGwfJyIoiQDWJrIdnEeJ86R5sNlOwVZggJJY3LeYA9sO0N3oRpIkSZIkSZIkSZLKKu/KuXLXlSzsXUiJLKdgd/Ngs53zJHG+BMsjYidQoQRSJHZv3MWaZWuQJEmSJEmSJEmSpLJbtXQV29ZupUQqEbGTYDnnSeI8yMfyBKwCtlISeVfOjnU7mZ/PR5IkSZIkSZIkSZLKbmFzIXs2XULelVMiW4FV+VieOA8S50GqpE6C/UBOSawcGuXA1v2klJAkSZIkSZIkSZKkskspsW/zXlYMrKBEciJ2Zm1ZnfMgcT5E6i+IqymJWnuNSy/ey+CCQSRJkiRJkiRJkiRJ/2x4yTBjW8aotdcoiwJuLIgFnAeJ86EodgYspyQWNhfy/n3vIyKQJEmSJEmSJEmSJP2zFIlDe66iv6efsggYpih2cR4kzofgbkpk78V7GR0aRZIkSZIkSZIkSZL0ZhtGNrBn0x5KJbib8yBxjjUPNlcHsZ2SqLZVueOq25EkSZIkSZIkSZIkvb07rrqdaluVsghie/NgczXnWOIcKxJHgAYlsWX1FtYsW4MkSZIkSZIkSZIk6e1tXLGRLau3UCKNInGEcyxxDvUc6JlHwfuBoAQqWYWPXv9R2iptSJIkSZIkSZIkSZLeXluljY9e/1EqWYWSCAre33OgZx7nUOIcSlnaHxHLKYkta7awfmQdEYEkSZIkSZIkSZIk6e1FBOtH1rFlzRbKIiKWpyzt5xxKnCP5WN5OERNADyVQbatyaPdV9OV9SJIkSZIkSZIkSZLeWV/ex6HdV1Ftq1ISPRQxkY/l7ZwjiXMkZdkowWagSgmMDo6yfd0OOqodSJIkSZIkSZIkSZLeWUe1g+3rdjA6OEpJVAk2pSwt4xxJnCuJHcBKSiBLGbs37mbV0pVIkiRJkiRJkiRJkk7PqqUr2b1xN1nKKIlVpNjNOZI4B/KJnp6ArUAPJbB4/mIu2XQJXfUuJEmSJEmSJEmSJEmnp6vexSWbLmHx/MWURDNgez6R93AOJM6BVGTLIDYDwRyXIrFxxQbGNu9DkiRJkiRJkiRJknRmxjbvY+OKDaRIlEBArE9FNsA5kJhm+ViegBFgNSXQqDXYs+kSGrUGkiRJkiRJkiRJkqQz06g12LPpEhq1BiWxEWJVPpYnpllimqUsNaDYBnRTAvM653H5zsuQJEmSJEmSJEmSJL03l++8jHmd8yiJbii2pSw1mGaJ6ZZSDxGXUxKXXnwpg/2DSJIkSZIkSZIkSZLem8H+Qbat2UpZRMS+SGke0ywx3YpiMGADJRARvH/f+0gpIUmSJEmSJEmSJEl6b1JK3HL5LUQEJbG1KIqlTLPENIvgWiBRAoP9g1x68aVIkiRJkiRJkiRJks7O3ov3Mtg/SElkEVzLNEtMo3wsr0IcoSSuP3g9KSUkSZIkSZIkSZIkSWcnpcT1B6+nPOJIPpZXmUaJaZRVsk3ASkqgp6uH8e0HSZGQJEmSJEmSJEmSJJ2dFInx7Qfp6eqhJFZmlWwT0ygxvY4AQQnsWL+dpQuXIkmSJEmSJEmSJEmaHksXLmXH+u2URREcZBolpknzYLOtgIOUQJZlXLbjcprzmkiSJEmSJEmSJEmSpkdPVw97L95HlmWUQFBwuHmw2cY0SUyXYG9ELKME1ixbw7rhtVSyCpIkSZIkSZIkSZKk6VFtq7Jl9WbWLFtDGUTEcoK9TJPENCngUiBnjkuRuGh0E8sXL0eSJEmSJEmSJEmSNL2WL17ORaObSJEogbyAS5kmiWmQj/c1ibgYqDHH5V05W9Zspbe7F0mSJEmSJEmSJEnS9Ort7mXLmq3kXTklUCPYmE/k3UyDxDRIUawLGAaCOW54yTC7NuxEkiRJkiRJkiRJknRubFm9maULl1ICEcSKRLaRaZA4S/lEHsDFwDLmuLZKGxtG1jO8ZBhJkiRJkiRJkiRJ0rmxeulqNq3cRFuljRJYDmzJJ/LgLCXOUpAWBGwFOpnj8s6cK3dfRYqEJEmSJEmSJEmSJOncSClx1e6ryDtzSqAzYGuQFnCWEmcpiGGIbZTAkv4lbF+3DUmSJEmSJEmSJEnSubV93TaW9C+hHGJzkJZxlhJnIR/LMwqGgWWUwMGtB+isdSJJkiRJkiRJkiRJOrc6a50c3HqAklhGUQznY3nGWUichawtq0ewEWinBI5cegRJkiRJkiRJkiRJ0vlx5NIjlEQ9gouytqzOWUicjYKcgjFKYOXQSlYtXYUkSZIkSZIkSZIk6fxYtXQVo4OjlELBGAU5ZyFxFgqYT8QGSuDKXVeSZRmSJEmSJEmSJEmSpPMjSxn7t+6nFCI2FDCfs5A4G1FsBzqY4zqqHezdvJcUCUmSJEmSJEmSJEnS+ZFS4vKdl9NR7aAEOohiO2chcRaCdBklsGrpKpYvWoYkSZIkSZIkSZIk6fxavmgZq5auogyiiL2chcTZOUgJ7Nu8l97uXiRJkiRJkiRJkiRJ51dvdy/7Nu+lFCKu4Cwk3qN8vG8H0MUcN69zHlvXbKVRbyBJkiRJ0kxQFAUvv/YykiRJkiSVQaPeYNPoRdTaa5RAno/3bec9SrxHKYqrgWCOWzGwgoH+QYJAkiRJkqSZ4NjJY/zdU1/j5KmTSJIkSZI01wXB8sXLWbt8LSUQCSZ4jxLvQT6WVyB2McelSGxYsYGlC4eQJEmSJGmmOHnqJI8+/0N+9spPkSRJkiSpDJYuHGLDig2kSMx5wcF8LK/wHiTegyzLlgUsZY7Lu3I2jW5iXuc8JEmSJEmaKQoKnvv1Mzz2y0eRJEmSJKkM5nXOY9PoJvKunLkuYGmWZct4DxLvQZHYBcxjjlvSv4QNI+uRJEmSJGkmOVWc5OgLR/nOTx/mpamXkCRJkiSpDFYtXcnC5kJKoLNIXMx7kDhD+VgewA6gizksIhjoH2DV0CokSZIkSZppXjt5jEd/8QjffvbbHDtxDEmSJEmS5rr1w+tZunApEcEclwN787E8OEOJM5SytCCIUaDKHNZV72Js8z5qHTUkSZIkSZpJjp04xj957eQU/+8TX+GnL/8USZIkSZLmunpHnbEt++iqdzHHVYNYmbK0gDOUOEMRsQYYYI7rqneyZ9MeJEmSJEmaaZ575Tn+yasnXuX7P/8+jz//OKeKU0iSJEmSNNft2bSHrnonJbCYFKOcocQZKmANMMAct254PSsGViBJkiRJ0kxz4uRr/JNjJ6Z49fgrfOWJv+HYiWNIkiRJkjTXrRhYwYrBUUpggIK1nKHEGcgn8k6CUaCLOW7f5r1UsgqSJEmSJM00x04c4zdSCr7z3MM8/dIzSJIkSZI011WyCge3HaAE5hGszifyTs5A4gykIi0KWA0Ec1hEcOlFlyJJkiRJ0kz0zK+f5jdSgqkTU/zVD/+KggJJkiRJkua6sc1jRARzXASsTkVaxBlInIEgBiDWMsctai5i1dAqJEmSJEmaiY6fOs5vpBREwDee+gY/f/nnSJIkSZI0160cWkl/Tz9zX6wNYoAzkDhN+XhfpYgYBYaY4w5s3U9EIEmSJEnSTPSr1i/5jRRBELw09RL/afI/IUmSJEnSXJcisffiSymBoSJiNB/vq3CaEqcpKBpQrKcEdm7YRUQgSZIkSdJM9OLUC/xLKQXHTx3nm09/ixdaLyBJkiRJ0lwWEezbPEY5FOuDosFpSpymBI0o2Mgc193oZt3ytUQEkiRJkiTNRL8+9mv+pZQCioKnX3yah5/7DtL/xx58PftZJ/iB/nxf5SMkjoSQoEEwHUjj6TAz7XK7traqd2v6whe7Ll/tXrhq13/MXnldtmfs6TTddACajFrkJkjkKJTDUc5HWTo5/MK7UNOzg2kBAhR+5z3P8wAAADRZKSX/4ut/nqWLl6bpSp3vVMniXKIql6guWVKX3JOG+/4938+KZSsCAAAAvahOnTPjp/JxVZWkJOcmzuW9I+9mdHo0AAAA0GTLr1+ev/jmX6Tp6pJ76pLrcomqXKpu7i4pK9Nwf3nn97K0b2kAAACgF41MDadTd/JxVVXykbqus/PUruw6tSt16gAAAEBT9V/Xn3/9Fz9I05WUlaXO7blEVS5RKeU7abhFCxblrtvvyqKFiwIAAAC96NzEuXTrOh9XlZJ/cnLkZHac2pnJ1mQAAACgqRYtXJS7br8rixYsSvOVH+QSVblUJf8qDbd61erccuMtqUoVAAAA6EXnxs+kW3fycaUkVVXykU7dyXtH3svpsdMBAACApqpKlVtuvCWrV61O45X8q1yiKpfuf07D3Xnbnbl11a0BAACAXjUyPZK6rvNJVSn5JwfPH8yuU7vS6XYCAAAATXXrqltz5213punquv7rXKIql2DZj5bdnWRJGqwqVe687c7cvOLmAAAAQK86dOFg2nUnn1RVJf+k0+3kqZ1PZ7w1HgAAAGiqm1fcnDtvuzNVqdJkpZSVy3607O5cgiqXoEr1L5OUNNjK5Stz9+13pSpVAAAAoFedGT+dbt3JJ5WS/8Hes3uz89SuAAAAQFNVpcrdt9+VlctXpuGqKtVf5RJUuQR18oM03NdW3Jx7vn5PAAAAoFeNt8ZyYfJ86rrOJ1VVySc9ufPJtLvtAAAAQFPd8/V78rUVN6fp6pTv5xJUuQQl5TtpsFJKbrrh5tx+8+0BAACAXnVq7FQmWuO5mKoq+aQ9Z/Zk1+ldAQAAgKa6/ebbc9MNN6eUkiYryb/MJajyOfr/ZsWfJbk5DbZw/sLc82d3p29BXwAAAKBXnR0/k8n2ZC6mKvkTY9NjeWXfKwEAAICm6lvQl3v+7O4snL8wDXdz/9+s+LN8jiqfo0q+n2RJGmxJ35L8T9/9nwIAAAC97OToYMZbY7m4kjlzSj6u0+1ky4mt2XlqZwAAAKCp/uruv8riRYvTcEuq5Pv5HFU+R0l9T5LFabDFixbnrtvvCgAAAPSqTreTY8NHM94az6cr+aTB4cG8fuD1tDqtAAAAQBN9787vpW9hXxpucUl9Tz5Hlc/Q/8P+BXXJHUkWpsFWr1qdVctXBQAAAHrVhcnzuTB1IZ+lKvkT7W47u04P5PCFwwEAAIAmWrV8Vb624mtpuIV1yR39P+xfkM9Q5TNUVbWqpNyaZE4a7K/v/qsAAABALzs9fjpnxk7ns5SSizpw7kB2ntqVTrcTAAAAaKJ//e0fpOHmlJRbq6palc9Q5bPMKd9IsjIN9707vxcAAADoZafGTubU2Ml8mlKSqiq5mMn2ZN498m7OjJ8JAAAANNH37vxeZoHlqapb8xmqfIaS8mdJVqbBqqrKD/7iBwEAAIBeNdGeyLHhI5lsT+SzlFLyaTYe35idp3amW3cDAAAATfPtb347VVWl4b5WSu7MZ6jyKfp/1D83yR1JbkyD3bbqtvQv6Q8AAAD0qgsT57Pn7EA+T1XlU3W6nazbtz7jrfEAAABA09yy8pbctuq2NNyNSe7o/1H/3HyKKp+iqqv+JDen4b5353dTUgIAAAC9qE6ds+NncujCwXy+kpR8qk3HN2XXqV0BAACApikp+d6d380scHNVV/35FFU+VdWfZFUa7i/v+quUUgIAAAC9qN1pZ+fpbRlvjeXzlJJUpeTTtDqtrN3xZAAAAKBpSin5y7v+KrPAqqTqz6eo8ilK6uVJbk3Dff/uv04pJQAAANCLpjtTeefo27lcBk4PZOD07gAAAECTlFLy/bv/OrPArSX18nyKKp+iLuX6JKvSYKtXrc6K/hUBAACAXnXgwv4cHz2aS1GSVKXks4xNj2XtjrXpdDsBAACAJlnRvyKrV61Ow62qS7k+n6LKRfT/qL8qyU1JVqXBvv3Nb2dJ35IAAABAL+rW3byw97nUdZ1LVvKZunU3O07tyMbjmwIAAABNsqRvSb79zW+n4VaV5Kb+H/VXuYgqF1HV1cKk/noa7s7b7kjfor4AAABALzo+ciwDZ3fmUpWSVCWf69z4uWw4tiGT7ckAAABAUyxauCjfuOXrab7661VdLcxFVLmoamHqcnsabO6cufnW6m+lb0FfAAAAoBe9cejVjE2P5gsp+VytTivbBrfmwLkDAQAAgKboW9CXb63+VubOmZtGq8vtSbUwF1HlIkrqRUnuSIPdcP0NWblsZaqqCgAAAPSao8NHsvnkxrS77VyqUkqqUnIpDg8dyQfHPshEayIAAADQBHPmzMnXVnwtN1x/QxrujpJ6US6iykXUpSyoS25Lg33jlm/kphtuDgAAAPSabt3NW0dez7Hho/miSsklaXVaeXX/azk2dCwAAADQFDfdcFO+/rWvp8nqktvqUhbkIqpcVL28JLenwb5xyzdy84qbAgAAAL3mwPl92TT4QaY7U/niSi7VkaEjeePQG5nuTAcAAACa4Mb+G3PbqtVpspLcntTLcxFVLqbOPWmwuXPm5uYbbs7SxUsDAAAAvWSqM5WtJzfnyNChfBmlJKWUXKpX97+WocmhAAAAQBMsv355bll5S6pSpdHq3JOLqHIRJeWuNFjfwr6sXH5j5lRzAgAAAL2iTp3jw8fyztG30uq28mWVkks2ODKYNw++GQAAAGiCOdWcrFy2Mn2L+tJkJeWuXESVi6q/mwZbfv3yrF51WwAAAKCXtDqtvHXk9RwZOpQvq5SSL+rpXU9nZGokAAAA0ARfu/GWLFuyLM1WfzcXUeUi6lLuSINdv3hpVi1fGQAAAOglh4cOZd2BF9KpO/mySpKSL+bU6Ok8N/B86roOAAAAzHQrl92YJX1L0mR1KXfkIqp8Qv+P+vtKclcabOni67Nq+aoAAABAr5hsT+bhbfdndHo0X1nJFzLdmc4r+1/J8ZHjAQAAgJnu1pW3ZvnSZWmyktzV/6P+vnxClU+o6uqeNFhVqqxctjKrlq8KAAAA9IJO3clbR17PwJld+apKSUop+aJOjJzI6wdeT7vbDgAAAMxkK/pXpH/JspRS0mRVXd2TT6jyJ6q70mDz5s7LqhtWBQAAAHrFwfP788K+59LqTOcrK0nJFzfeGs+GYx/k6NDRAAAAwEw2b+68fG3FzZk3d16arborn1DlE0rq76TBFi5YmLtuuzMAAADQC0amhrPuwIs5MnQ4dep8VSVf3p4ze7J5cHPa3XYAAABgJvvmrd/KwvkL02Ql9XfyCVU+oS7ljjTYgvkLcttNtwUAAACutXa3lbePvpl3jr6ZdreVy6GUklLypUy1p/Lq/tdyfHgwAAAAMJOtXnVr5s+bnyarS7kjn1DlY/p/2D+vJPekwRbMW5Dbbro9AAAAcC3VdZ3dZwfy/N5nMjo9ml6x89TOfHBsQ9rddgAAAGCmumP1HVk4f2GarCT39P+wf14+psrHVdXNSeanwfqX9Of2m24LAAAAXEtnJ87kqYE1OTZ8JJdbKSVfxbMDz+XEyIkAAADATHXLjbdk8aLFabj5qaqb8zFVPqaaU25OMj8NtnrlrQEAAIBr7fm9z2TLyU25EqqqpJR8aUcuHMkfdr8QAAAAmKnmz5uf1atWp+HmVaXckI+p8nF1uTnJ/DTYd+/4XgAAAOBaevfY23n14Lp0up30qlf2v5Ljw8cDAAAAM9W/+Ma/SMMtSCm35mOqfFyplyWZlwa747ZvBQAAAK6Fuq6z//zePLHj4QxPDedKKflIyVdxfuJ8nt71TLp1NwAAADATffOWb6bh5qXUK/IxVT6mpHw9ycI02B2r7wgAAABcbXXqDI4ez6PbH8rhoUNJ6lwxJSn5atrddt498m52nRoIAAAAzETf+da303ALSsrt+ZgqH1MnNyaZl4ZatGBR7lx9ZwAAAOBqG54cyh/2PpMdp7elW3czE5waPZV1+9ZldHo0AAAAMNN8/Wtfz9w5c9Ng85Isy8dU+ZiS3JBkXhrq1pW3JiUAAABwVbU6raw/+FJeO/RKptqTudJKKUnJV9bqtPLB8Q8ycHogAAAAMNMsXLAwt668NQ02P8nN+Zgqf9T/NytuStKfBrvjtjtSUgIAAABX06YTH+SZ3Wsz3hrL1VCVpOTyODlyMm8eeitDk0MBAACAmaSk5M+/8edpuP7+v1lxU/6oyj/rS7IgDXbT8lVJCQAAAFwVdeocHjqUB7b8JsNTw5mJunU3r+5/NQOnB1LXdQAAAGDGKMlNy1el4eYn6csfVfmjKrktyYo02B2r70xJCQAAAFxpdV3nyNDh/PS9/5aTo4O5qkqSkstmbHosT+96JiNTIwEAAICZoqTkjtV3puGWValvyh9V+Wd9SeanwW5acVNSAgAAAFfc4OjxPLbjoRweOpQ6da6mqpSUXF6bjm/K+8c2BAAAAGaSG/pvSMP1JaU/f1Tlj0rJ8iRL0mCrV96akhIAAAC4koYmL+SZ3WuzcXBD2t1WmqDVaWXN9jUZmhwKAAAAzASllKxeeWsabkkpWZ4/qvJHdV3fmGRpGmrp4qVZtGBRAAAA4Eqa7kznD3ufzZtHXk+rM51rpuSyO3z+cF7Y82IAAABgpli6eGmWLl6aBuurU1+fP6ryof4f9pcPXZ9kURpq1Q2rsmD+ggAAAMCV0u6288rBl/LU7jWZaI3nWqqqKpfbdGc6r+x/JYcvHA4AAADMBPPnLciq5avSYNeVlBX9P+wv+VCVj1TVdUluSIPddMNNmT9vQQAAAOBKaHVbeeXgy7lv868y3ZnOtVZyZRw6fyhP73w6k+3JAAAAQK+bN3duli9dlgYrSVakqq7Lh6p8qJpTliS5IQ12w9IbMn/uvAAAAMDlNt2ZzgfH38/Tu3+f6c50mqzdbeeDYx9k24ltqes6AAAA0MsWzl+Ym1d8LQ3XX6qqLx+q8pG6XJfkhjTYquUrM3/e/AAAAMDl1Oq2snFwQx7d/mBOjA6mV5SSK2Zw5EReP/h6hiaHAgAAAL1s/rz5WbV8ZRpueUmW5ENVPlLqRUmuS4PdcP2KzJs7LwAAAHC51KlzZOhQ1g48nmMjR1LXdXpFKSUlV0a37ubNg29l68lt6dbdAAAAQK+aU83JdX1L0nD9KfXifKjKh0rK9UluSoOtXrU6C+cvDAAAAFwO3bqbo8NH8rP3/3sOnt+fuq4zm4xOj+axLY9leHI4AAAA0Kv6Fvblm7d+Mw13U0m5Ph+q8o/mJpmfhlowb0EWzl+QUkoAAADgq5poTWTj4Ib8x9f+nxy6cDDdupteU/Khkitq95ndWbvjyXTrbgAAAKAXlVKyaP7CLJi3IA02P8ncfKjKh+rUS5IsT0PduOzGXH/d9QEAAICv6sLk+byw79ncu/FnOT1+Kr2qmpOr4rndz2Xf2X0BAACAXnX9ddfnxmU3psGW16mX5ENVPlRS5ifpS0MtW7Is1/VdFwAAAPiy6tQ5OXoij21/KE8NrMnZ8TMhGZkcyZrtv8/o9FgAAACgFy1asCjX9V2XBusrKfPzoSqzwHV912XR/EUBAACAL+vI0OH8w4af5NVD6zMyPRL+UafuZNPxTXnvyHsBAACAXtS3cHGuX3x9ZoO5/X+zoq9O7ipprhX9K7L0uqUBAACAL6rdbWfziY25f8uvc2J0MHXdzUxQSsnVcmHyQp4beDa3L7st31j+jQAAAEAv6V9yfVYuX5kmq5O7+v9mRd/cJCXJ3DTYogWLMn/e/AAAAMClqlNndGok6w+8lCd3r8nI1HBmkqqUXC11XWfHqZ15df+ruWnJTemb1xcAAADoFfPnzc+iBYvScHOTlKoqdZVkYRps8aLFWTR/UQAAAOBS1HWdwZHjeWLno3ly4ImMTA2Hz9bpdvLy3pezdXBrunU3AAAA0Cvmz1uQhfMXptHqzC1JqVKX+SW5OQ22fMmyXNd3XQAAAOBSHBk+nPu3/DrrDryQkemRcGnOjJ/N2h1PZnhqOAAAANArliy6LsuXLkuTleTmksyvklR1nUUBAAAAsu/cnvz8/b/PpsENmWxPZiabM6fK1bb1xNa8vPflAAAAQK+oqipzqjlpsjpZkmROlaSUkjlpqEULFmXp4qUBAACAz9LutvPqwXX5b+/85+w7tyfdupuZruTqa3fbeXTrY9l9enfq1AEAAIBesGD+wsybOy9NVZI5SUpVSvqS3J2G6lvYl/4l/QEAAICLqVPnwuT5PDnwRO7b/KucGB1MnTp8eUOTQ/n1ht/k7NjZAAAAQC9YtXxlli5emsYq+bOSemEVAAAAmMXOTZzLo9sfytMDv8/I9HAapeSaqOs6u8/szkt7X8pkezIAAADAFbcwpVRVnZQk89NQfQv7smzpsgAAAMAnHRs+kge2/DrrD76YsdZYmqYqJdfK2PRYXtjzYrYMbk237gYAAACupev6lmTh/IVpsPl1UqqSLEhyaxpq4fyFWdK3JAAAAPBxe87uzm82/TJvH3kjnW4nXH6DI4N5cseTOTl6MgAAAHAt9V93fRYtWJQGu7UkC6okVZKFaahSSpISAAAA+Ein28mmEx/klxt/mm2ntqRbd8OVUdd1Ng1uyvMDz2e6Mx0AAAC4VqpqTqqqSoMtTFJVdeq+NNiC+QuypO+6AAAAwHhrLOsOvpi/f/e/5uD5/enW3XBldbqdPDPwbE6OngoAAABcK0v6rsuC+QvSaHW9oKqTb6XBFi9cnGVLlwcAAIDZbbw1nmd2P5lHtj2QkanhzAZVlZ4wOjWaNdvXpN1tBwAAAK6FZUuXZ/HCxWmyOrm9Sl0WBgAAABrs9NjJPDnwRJ7evTbDU8OZLUop6RWvH3g9205sCwAAAHBl1Cn9VZX0pcEWL1qcZUv6AwAAwOx0Zvx0ntj5aJ7b83Qm2xPh2hibHsua7WsyNDkUAAAAuNquW7Q4C+YvSNNVdXJXGmzh/IVZ0rckAAAAzC516hy6cCA/ee+/5bVD6zPZnshsU9I7unU3205uzx92v5BO3QkAAABcTcuWLsviRYvTZCX5XpVkbhqsqqqUUgIAAMDs0a272X1mID/f8ONsP7Ul7W47s1GpSnrJ+PR4XtjzQj44tjHduhsAAAC4WqpSpaSk4eZVabB5c+dlxfU3BAAAgNmjU3ey5eSm/Pi9/5p95/ZkNqtKes7RoaN5dtezOTFyMgAAAHA19S/pz9w5c9NkVRps7py5WX79DQEAAGB2mGxP5q3Dr+eBLb/OqdGToTdtOLYhf9j9fKY70wEAAICr5aYbbsq8ufPSZFUAAACgAaY703nj8Kt5eNsDOTp8JHXq0JtanVaeHXgubx56MwAAAMDlUwUAAABmuInWeJ7d82Qe2np/To+fSl3X4SMlvWpkaiS/ePeXOXThcAAAAIDLo0oyPwAAADBDjU2P5vGdj+TBrfdlZHo4/I/mzCnpVecmzuXHb/04x4ePBwAAAPjqqlJyewAAAGAGOjl6ImsHnshze54KM09d19l5amce3PRgzo6fDQAAAPDllZKVVZL+AAAAwAxzfORYHt/5cJ7f+0za3XaYmVqdVt4+8k5e2PNixlvjAQAAAL6026s02Px587N61eoAAADQLGfGT+fxHQ/lnSNvZqo9GWa20anRPLnjybx7+N10up0AAADAlbB08dLMmTMnTTY3DTanmpPFCxcHAACAZqhT5/jIsfzD+3+fvef2pN1th89WSklSp9ednzifn7/7D+nvW5bv3vydlJQAAADA5XTT8psyb+68NFkVAAAAmAG6dTeHLxzMf3nzP2bXmZ1pd9vh85XMHOcnzudvX//bHDh3IN26GwAAALicqqpKSUmTVQEAAIAe1+62s/vsrty78ec5NnIkNNfJ0ZP5yds/zb6z+wIAAAB8MVUAAACgh7W6rWwc3JD7N/86e8/tTl3Xobnqus7AqYE8vOWRHB06FgAAAODSVQEAAIAe1a272Xpicx7c+tvsO78nnW4nNF+r28r7R9/PI1sezpmxMwEAAAAuTZVkTgAAAKDHdOtutp3akp9v+HEGR46nruvwxZSSzJlTMhNNtaeyft8reXLnUxmfHg8AAADwucrcuq7vLqUEAAAAesVUezLbT2/LT977u4xMDYfZqdVt5ZEtj6ROnf/zu/9H+ub1BQAAALi4OrlxbimlLwAAANAjxqbH8uaR17J21xMZmRoOrN2+NssW9uff3P1vsnDuwgAAAAB/qiS3V2mweXPnZdXylQEAAGBmGG+N59VDL2fNzkdzZvxU4CPTnek8sX1NXtr7cibbkwEAAIAvY9mSZZk7Z26arEqDzZ0zN8uWLg8AAAC9r9Vt5bVD67J21+M5N3E28HFnx87m4c0PZ/3+VzLVmQoAAAB8UTcuW5G5c+emyaoAAADANdbpdrL+wIt5cOt9uTB5IVw+c+aUNEGdOqfHTueBjQ9ky+CWdOpOAAAA4IuoqjkpKWmyKgAAAHANTbQn8tL+5/Pbzfdmsj0Z+Cxnxs7kb1//u2w6vinduhsAAADgn1UBAACAa2RseizrD7yUx3Y8nFanFbgUZ8fP5u/f/HE2HtuYTt0JAAAA8I+qAAAAwDUw3hrPq4dezlMDazI8NRT4Ik6Mnsgv37837x15P526EwAAACCpAgAAAFdZq9vKa4fWZe2uJ3Ju4mzgi6rrOofOH8rj2x7P/rP7AwAAACRVAAAA4CrqdDtZf+DFPLj1vlyYPB+urJKSUpU0UbfuZuepnfnFe7/MgXMHUqcOAAAAzGZVAAAA4CqZaE/kpf3P57eb7s1kezJcBSUpaa5Ot5Mtg1vyt2/8XQ6cOxAAAACYzaoAAADAVTA2PZb1B17KYzseTqvbClxOA6cH8pO3f5r95/YHAAAAZqsqAAAAcIWNt8bz6qGX89TAmgxPDQWuhB0nd+Te9+7N7jO7AwAAALNRFQAAALiCWt1WXju0Lmt3PZFzE2cDV0q37mbz4JY8tvWxDA4PBgAAAGabKgAAAHCFdLqdrD/wYh7cel8uTJ4PXGntbjtvHXo7D25+KKfHTgcAAABmk7kBAACAK2CiPZHXDq7LfZt/lVa3Fa6NkqQqJd3UmS3a3XZe2PNCWt1W/u+//r+y8rqVAQAAgNmgCgAAAFxmY9NjWX/gpTy24+G0uq3AtbB+3/rc98H9OT12OgAAADAbVAEAAIDLaLw1nlcPvZynBtZkeGoocC2t278uv9v0u5wcPRkAAABouioAAABwmbQ6rbx2aF3W7noi5ybOBq61TreTdfvW58FND+XU6OkAAABAk80NAAAAXAZ13c36gy/lwa33ZbI9GXpIyaw21Z7Ky/teTp06//4v/31WLL4hAAAA0ERVAAAA4Ctqd1vZfHJTHtn2u0y2J0PvKCWpSma9VqeVP+z+Q57c+WRGpkYCAAAATTQ3AAAA8BVMd6azaXBDfrf1voxMD4ceVMIfrdm+JvPmzMu/+4t/l8Xz+gIAAABNUgUAAAC+pFa3lY2DG/LI9gdzcnQw0OtanVae2PZEfr/99xmdHgsAAAA0ydwAAADAl9CpO9lyYlMe3nZ/BkePp04dmAkmWhNZu31tkjr/9s//bRbPXxwAAABogrkBAACAL6hOnWPDR/OLD36SCxPnU6cOzCTDU8N5YtuaJCX/+5//b7lu/nUBAACAma4KAAAAfAHdupvDQ4fyt2//p5yfOJc6dehlJSUl/Kmx6bE8tPmhPL7tiYxMjQQAAABmuioAAABwibp1N3vP7c69H/wsx0eOht5XSlJK+BStTiuPbX0sT+96Ju1uOwAAADCTVQEAAIBLtP/8vjy07f7sPbc7dV2HmaGU8BlanVbWbF+TdfvWpd1tBwAAAGaqKgAAAHAJTo+dylMDT2TgzK50up1Ak4xMjuR3mx7My3tfTrvbDgAAAMxEcwMAAACf48Lkhfx28y+zcXBDOt12oGnq1Dk5cjL3b3wgpZT88Bs/zLw58wIAAAAzydwAAADAZxibHs3P3v/v2Tj4fqDJ6tQ5PXY6v3zv3rS7nfyv3/pfsmDOggAAAMBMUQUAAAA+xdDkhTy9e222ntwUZrISLt3Q5FB+s+E3Wb/vlQAAAMBMUgUAAAAu4sLkhTy756k8v/eZtLvtMHOVkpRSwqUbmhzK/Rvvz8bjmwIAAAAzRRUAAAD4hOnOVN45+mbWHXgx462xMPOVEr6gs+Nn86v3f5UPjm0MAAAAzARzAwAAAB/T6rTy+uHX8tiOhzIyNRyYreq6zr6z+3Lv+/fmI9/72ndTlSoAAADQq6oAAADAH3Xrbt4//m5+vfHnGZkaDsx23bqbfWf35Wfv/Cwbjm5Ip+4EAAAAelUVAAAA+FCn7mTryc15cOtvM92ZDvDPDl84nF+898vsOb0nAAAA0KuqAAAAwIcGzuzMg9vuy+mxUwH+1OELh/PrDb/O4QtHAgAAAL2oCgAAALPe/vP78sTOR3Nk6FDq1KFZSikp4XLYemJb7n3vlzl84XAAAACg18wNAAAAs9qx4aN5eNv92XlqWzp1JzRPyYdKuAy6dTfvH9uQbur8h+//h9zef1tKKQEAAIBeUAUAAIBZ68z4mTy+8+FsPrExnboT4PN1up28d+S9/OLdX+TI0JHUqQMAAAC9oAoAAACz0nhrPE/uejxvHn4twBe3eXBzHt/2RM6MnQ0AAAD0gioAAADMOmOtsTy756m8cmhdgC+n3W3n5b0v5/6N92docigAAABwrVUBAABgVml323nz8Gt5Yd+zmWpPBvjy2t121u9bn99+8NsMTQ4FAAAArqUqAAAAzBrtbjtvHH41v9/1WIYnh8IsUcIVNN2Zzrp96/PEticy2Z4MAAAAXCtVAAAAmBU6dSdbTm7KkwNP5Oz4mdSpw+xQSlKVEq6cidZEntr1dB7d+lhGpkYCAAAA10IVAAAAZoWD5/fnd1t+k2PDRwNcfuPT41m7fW3W7ngyU+2pAAAAwNVWBQAAgMY7OXoiD297IEeHjwS4ckanR7Nm+5q8sv+VAAAAwNVWBQAAgEYbnhrK4zsfybZTWwJceWPTY3lg0+/yyv5XAgAAAFdTFQAAABprsj2ZNTsfy9tH3ki37ga4Ok6NnsqvN/wm6/atS7fuBgAAAK6GKgAAADTSeGssT+1ek/UHX8p0ZyrA1XVi5EQe3vJI3j+6Ie1uOwAAAHClVQEAAKBxWt1W3jj8Wl7Y+1wmWuNhdiv5UAnXwKHzh/K7Tb/LlsEt6XQ7AQAAgCupCgAAAI2z6/SOrN31eIanhgKllJSUcG0MnB7Irzf8JseGjwUAAACupCoAAAA0yuGhQ7l/y69yZvx0gN6w58ye/Oydn+fs+NkAAADAlVIFAACAxjg9dir3b/5VDg8dCtBbNh/fnL994+9ycvRUAAAA4EqoAgAAQCOcnziXh7c9kB2nt6Wu6wC9pVN3svn45jy46cGcGTuTOnUAAADgcqoCAADAjDc2PZrn9j6d946/k3a3HaA3TXem88r+V/LQ5odzfuJ8AAAA4HKqAgAAwIzW6kzntUPr8+rBlzPVngzQ2ybbk3l538t5dtezmWpPBQAAAC6XKgAAAMxo209ty9qBJ3Jh8kLg05QSeshEayJP7nwqv9+xNgAAAHC5VAEAAGDGOjZyNL/Z9IucnzgX+CylKikl9JDhyeE8tvWxvH7w9XTrbgAAAOCrmhsAAABmpBOjJ/KL93+SE6ODgc9T8pGSpA69Y2RqJD975+fp1nX+9W0/yLw58wIAAABfVhUAAABmnHMTZ/PYjoey59xA6tQBZq4zY2fy4KYHs3lwc9rddgAAAODLqgIAAMCMMt4az/qDL2fj4Htpd9sBZr7DFw7nwc0PZdfpXenW3QAAAMCXUQUAAIAZo91tZ8Pxd/PC3mczNj0WoBm6dTe7Tu3K7zY+mHMT5wIAAABfRhUAAABmjJ2nt+eBLb/NhcnzAZqlW3ez5cSW/JfX/mtGp0cDAAAAX1QVAAAAZoTjI8fy603/kAuT5wI0U6fbyebBzfntht9maHIoAAAA8EVUAQAAoOedGT+dh7ben8GR44Evo5SkhJmg0+3kxb0v5fFtj2d4ajgAAABwqaoAAADQ00amhvP8nmey5eTGdOtu4EsrYYaYaE3kpb0v56U9L2V8ejwAAABwKaoAAADQs6Y6U3nryBt57fD6TLYnA8we58bP5bFtj+eD4xvTqTsBAACAz1MFAACAntStuxk4szPP7HkyQ5MXAsw+58bP5adv/zTbTmwLAAAAfJ4qAAAA9KSjw0dy3+Zf5eToYIDZ6+z42fz4rZ/kwPmD6dbdAAAAwKepAgAAQM+5MHkhD229L0eGDgXgyNCR/PStn+TI0JEAAADAp6kCAABATxlrjeWZ3Wuz+cTGAHykrusMnNmdhzc/kqNDRwMAAAAXUwUAAICe0e628+bh1/LqoXXp1J0A/JOp9lTeOvRWnht4PsNTwwEAAIBPqgIAAEBPqFNn5+nteWHfcxmeHApcTlVVUsJMN9mezDO7nsnLe1/OVHsqAAAA8HFVAAAAuObq1Dl04WAe3/lwjgwdSp06cDmVfKiEBphsT+ZX7/866/e/km7dDQAAAPyTKgAAAFxzo9OjeXbPU9l1ekcAPs90Zzq//eC32Xh8Uzp1JwAAAPCRKgAAAFxzz+55Km8cfjUAl+r8+Pn8ZsNvsvv07gAAAMBHqgAAAHBNvXfs7byw99l0uu0AXKo6dQ6cO5CHNj+cA+cOBAAAAKoAAABwTdSps/vsQB7d/mBGp0cC8EW1u+18cOyDrNm+JmfGzwYAAIDZrQoAAABXXZ06gyPH88SOh3N0+EgAvqx2t50X9ryYJ3c8mbHpsQAAADB7VQEAAOCqG50aycv7X8jOMzvSrbsB+KrWbF+TF/e+lHa3HQAAAGanKgAAAFxV7W47G46/lzcOv5Kp9mTgaiilhGZrdVp5dMujee/IewEAAGB2qgIAAMBVdejCwTw5sCYXJi8ErpZSkpISmu3c+Lk8uPnBbD2xNQAAAMw+VQAAALhqxlpjuXfjzzI4ciwAl1udOvvO7s/Dmx/J4QuHU6cOAAAAs0cVAAAArorx1nju2/SrHDi/L3XqAFwJ3bqbDcc25P6N9+fkyMnUqQMAAMDsUAUAAIArbroznVcPvpz3j7+Tbt0NwJX21qG389TOpzM2PRYAAABmhyoAAABcUd26m11nduSl/X/I6PRIAK6Gdred53c/nxf3vBgAAABmhyoAAABcUSdHT+SZ3U/m+MixAFxNY9NjeXzbE9lwbEMAAABovioAAABcMeOt8fxh3zPZdmpLunU3AFfb2bGzuff9X2XXqV2pUwcAAIDmqgIAAMAV0a27eevI63luz9PpdNuBa66EWahOnYPnDuaBTb/L0aFjqVMHAACAZqoCAADAFbH77EAe3f5goFfMqUqYnbp1N5sHN+eJbY/n/Pj5AAAA0ExVAAAAuOxOj53Kmp2PZGjqQgB6QavTyiv7X82zA89mqj0VAAAAmqcKAAAAl9V4aywv7n8+A2d2pq7rAPSKidZEntz5VN47+n4AAABonioAAABcNu1uO+8eezuvHVqfyfZkAHrN8ORwfvr2T3Nk6GgAAABolioAAABcFnVdZ/fZXXlqYE3OT5wLQK86O342/+mV/zeDI4MBAACgOaoAAABwWZyfPJfn9jydY8NHA9DrDpw7mAc2PpCz42cDAABAM1QBAADgsnhp/x/yweD7AZgJWt1W3jnybl7Y80LGpscDAADAzFcFAACAr2zziY15ad/z6XTbAZgpRqdG89TOp7Px+MZ06k4AAACY2aoAAADwlRwfOZZHtj+QoamhAMw058bP5Wfv/CxHh44GAACAma0KAAAAX9rQ1FDW7Hw0By8cDPS6qiopJfAnzoydyX9+9b/k/MT5AAAAMHNVAQAA4EuZ6kzljUOvZOPghnS67QDMZHvP7s19H9yXCxMXAgAAwMxUBQAAgC+sruvsP7c36w++lNHpkQDMdN26m9cPvpEX976UifZkAAAAmHmqAAAA8IWNTo/m97sey7HhowFoitGp0fxh9x+y+fimdOtuAAAAmFmqAAAA8IXUdZ3n9z6dbSe3pFt3A9AUdeocHz6ehzc/nIPnDgYAAICZpQoAAACXrK7rfDD4fn6/67F06k4AmqZbd7Pr9EAe2PRAzoydCQAAADNHFQAAAC7Z0ZEjWbPzkXS6nQA02ZuH3srvd6xNu9sOAAAAM0MVAAAALsnI1HBe3PdcDg8dSp06AE33zK5n8uahNwMAAMDMUAUAAIDP1a272XhiQ945+lamO9MBmA0mW5N5ePMj2XpiawAAAOh9VQAAAPhcB87vz9MDazM0ORSYqaoS+ELq1Dl4/mAe3/ZEBocHAwAAQG+rAgAAwGcamryQtQOP5/DQwSR1YKYqVQl8Ud26m/ePvp81O36f4anhAAAA0LuqAAAA8JneOfpWPjj+fgBmq063k3V71+XV/a+m1WkFAACA3lQFAACAT7X33O48tXtN2t1WAGaz0enRPLr1sWw7uT0AAAD0pioAAABc1PDUUB7f8UjOjJ0OAMmp0VO5f+P9OTt+NgAAAPSeKgAAAPyJuu5m3YGXsuvM9tSpA8A/Gjg9kAc2/i4TrYkAAADQW6oAAADwP+jW3Wwc/CCvHHgpE62JAPDPOt1OXjvwWp7a9XSmO9MBAACgd1QBAADg/1enzsmxE3lp/x8yOHo8APyp0enRvLj7xWw8tjHtbjsAAAD0hv+PPfhsj+ww0MT64q7//2evP639eDSrkahAUlQziM0O7JzRABo551ioQuW61yPPaMUdSVQHhArnnCIAAAD8L91+N/fWf8j0/qsA8I9tn2/ni7kvs1XbSpUqAAAA3LwiAAAA/C9LJwv5fuXb9MpeAPjHyqrM2723+Xr+67R77QAAAHDzigAAAPD/a/aa+cWb/ye19llgHBVTU4HL1B10c2vh6zzaeJQqVQAAALhZRQAAAEhn0MmvZn6RtbOVwLiamsq/mwpcpk6/k//z0X/P4tFiAAAAuFlFAAAAJlxZlXm58yyPNh+krMoA8GEa3Ub+x9P/kb36XgAAALg5RQAAACbcXmM3P6x9n/NOLQB8uKqq8u5wPl/O/SEX3YsAAABwM4oAAABMsFa/lYeb9zN/NJuyKgPAx2n32/lh5Yc82XySsioDAADA9SsCAAAwocqqzPzRXL5f+TbtfjsAfJrT5ml+Pf1Zlo+XAwAAwPUrAgAAMKGOm0f5/N1vctI6DgCfrkqV1ZPV/PL1L3PSPAkAAADXqwgAAMAEGlSDfLfydeYOZwLA5Xqw/jC3Fr7OoBwEAACA61MEAABgAs0dzuT7lW8DwNX4fObzvNx5GQAAAK5PEQAAgAlz3qnly/nf5aLbCABXo96p59/e/CobZxsBAADgehQBAACYIFVV5fbqn7Jw/C5VqgBwNapUmT+czxezX+SiexEAAACuXhEAAIAJUVZlXu4+z53VP6XVawUm0f/x36YC16U36OXe6v18v3w7vUEvAAAAXK0iAAAAE+K4eZTba99lt7ETAK7Heec8X737Ku8O36WsygAAAHB1igAAAEyA7qCbR1sP8nb/dQC4Xuun6/ndzO9z1j4LAAAAV6cIAADABFg/W82txS/S7rcDwPV7tvUsf3x3KwAAAFydIgAAAGOurMr8bu6znLROAsDN6A16+Xz288zuzwYAAICrUQQAAGCMVVWVr5e+yuu9FwHgZtU79fz3x/9X9hv7AQAA4PIVAQAAGGMbtfXcXv0ug2oQAG7e+ul6fv3ms9Q79QAAAHC5igAAAIypZu8if1r5Onv1nQAwHLqDbh5vPs6jjcfpDXoBAADg8hQBAAAYQ2VV5vXey7zYfZZe2QsAw+O4eZyv3n2VrdpWAAAAuDxFAAAAxtDBxX7ur9/JSes4AAyXqqqydLSUL+a+zEX3IgAAAFyOIgAAAGOmM+jk3voPebH7LFVVBfiJqcBQGFSD3Jq/lR/Xf0xZlQEAAODTFQEAABgzKydLubP6fYC/VUxNBYbJ/3z1y6ycrAQAAIBPVwQAAGCM9Mpefvfusxy3jgLA8DtoHOTXbz5LrV0LAAAAn6YIAADAGLm79kPmDmcCwGgoqzIvtl/kT0vfp1/2AwAAwMcrAgAAMCbWz9byzdIf0ht0A8DouOhe5Nb8rbzaeRUAAAA+XhEAAIAxUO/W89XC59mubweA0VKlylZtK1+9+yq79d0AAADwcYoAAACMuEHZz4udZ5k+eJ1B2Q8Ao+nZ1vP8sHwnnX4nAAAAfLgiAAAAI+6weZgHG3dz2joJAKOrX/bz1buvsnC0EAAAAD5cEQAAgBHWHXTzdPtR5o/mAsDoO24e5/998S/pDDoBAADgwxQBAAAYYfsXe/lq4Yt0Bp0AMB7mDuby2+nfpqqqAAAA8P6KAAAAjKhe2cuvZ/5nztqnAWB89Mt+/jh/Ky93XqaqqgAAAPB+igAAAIyo17sv8nznaQAYP0fNo/x+5vfZb+wHAACA91MEAABgBB1eHOTW0h9SloMA729qKjASqqrKzP5sfli5k1avFQAAAP65IgAAACOmX/ZzZ+37LJ8spkoV4P0VxVRgVDR7zXy78G0WjxdTVVUAAAD4eUUAAABGzNLJQp7tPEm73w4A422vvpdfvf5VzjvnAQAA4OcVAQAAGCG19llur/4p62erAWD8VanyfPtFvnr3VcqqDAAAAP9YEQAAgBExKAeZOZjOq93nAWCy/Obtb7NyshIAAAD+sSIAAAAj4rR9kq+Xvsp5pxYAJkuz18yv33yWWrsWAAAA/r4iAAAAI+L+xt0snSwEgMlTVVVebL/In5a+T7/sBwAAgL9VBAAAYATsNXbz1cLnKasyAEymi+5Fbi/fzvzhfAAAAPhbRQAAAIZcu9/Or97+axrdegCYXFWqLB8v58u5L3PcPA4AAAD/uyIAAABDrKzKPNt+nJmDN6mqKgDwfOtFnm89T7/sBwAAgL8qAgAAMMQOLw7yYPN+6t16AODPGt1GfvP2t9msbQYAAIC/KgIAADCk+mUvr/ZeZPF4PmVVBgD+YuNsI5/PfBEAAAD+qggAAMCQ2q3v5OHm/Vx0GwGA/+re6r082ngUAAAA/kMRAACAIdTut3N3/YfMH82lShXgckxNBcZGs9fML17+Itvn2wEAACApAgAAMIQ2amt5uHE/wOX6b0URGCdbta3cencrrV4rAAAAk64IAADAkOmVvXy18EWOW0cBgJ/T7nfycONR3uxNp6zKAAAATLIiAAAAQ+bt/pu82XsZAHgf+/X9fL/0pxxdHAUAAGCSFQEAABgi9U49f1z8Mu1+OwDwPgbVII83nuTB+oP0Br0AAABMqiIAAABDol/288Pqd1k+WUiVKgDwvrqDbj6b/k02zjYDAAAwqYoAAAAMiY3aeh5vP0iz1wwAfKjj5nH+9fW/pjPoBAAAYBIVAQAAGALNXjPPth9l63wrAPCxXmy/yJONJwEAAJhERQAAAG5YlSprZ6t5tPkgnX47APCxOr1OPp/9Irv13QAAAEyaIgAAADes2Wvm/voP2b/YCwB8iipVlo6X8vX81+kOugEAAJgkRQAAAG7Y3MHb/LhxN2VVBgA+VaffyY/rD/Jq53XKqgwAAMCkKAIAAHCDuoNuvpj/XbqDbgDgsmzXtvPt4rc5bh4HAABgUhQBAAC4QU+2Hmb5ZDEAcNle77zOs63n6Q16AQAAmARFAAAAbshJ6zjfLv8xg2oQALhsjW4jv5/5fY6aRwEAAJgERQAAAG5AlSqPtx5m63wrwPWaKqYCk2KztpnPpn+TKlUAAADGXREAAIAbsHS8kLtrt9PsXQS4XsXUVGBSVFWVbxa+yfOt5wEAABh3RQAAAK5Zu9/Oy93n2T7fDABctUE5yG/f/jYnzZMAAACMsyIAAADXqEqVtbPVPN5+mF7ZCwBctSpVFo4Wc3vlhwyqQQAAAMZVEQAAgGvU6bfzbPtR9uo7AYDr0uw283DtQdZO1gIAADCuigAAAFyjg4uD3Fu/k7IqAwDXpUqVhaPF3Fu7n2avFQAAgHFUBAAA4JoMykF+8fr/znmnFgC4bv2yn+8Xv8/s/kzKqgwAAMC4KQIAAHBN5o5m8vbwTQDgphw1j/Ll3B9Sa9cCAAAwbooAAABcg/NOLX9Y+DxlWQYAbtKL7Rd5tPE4AAAA46YIAADANXi5+zzLJ4upUgUAblK/7Oez6c9y3DwOAADAOCkCAABwxQ4u9vNw88c0uvUAwDDYq+/l9zOfp0oVAACAcVEEAADgCvXLfh5vPcjc4dtUVRUAGAZlVebOyp282nmVqqoCAAAwDooAAABcob3Gbl7sPE130A0ADJOT1kluzX+dk9ZJAAAAxkERAACAK9Ire5k5mM7y6XIAYNgMykFm9mfycvtl+mU/AAAAo64IAADAFWl0Grmz+qf0Bt0AwDA6bZ3m3tr9HDQOAgAAMOqKAAAAXJFnO4+zXlsLMFyKqQD/qaqqvNp5lSebT9Ib9AIAADDKigAAAFyBo+ZRfjn9LymrMsCQmQrwE71BL1/O/SG79d0AAACMsiIAAACXrKzKfLv8x7T6zQDAKNg538nns19kUA4CAAAwqooAAABcss3aRp7vPElZlQGAUXFv9V7eHc4HAABgVBUBAAC4RP2yn4eb93N4cRgAGCWNbiOfTX+WZq8ZAACAUVQEAADgEq2frWZ6/3W6g04AYJRUVZXZg9ncX70fAACAUVQEAADgkrT77TzZfpT1s9UAwCg6b5/nu8Xvsnm2GQAAgFFTBAAA4BJUVZWV06U83X6UQTUIAIyq1dO1PN58kk6/EwAAgFFSBAAA4BK0++082XqU3fpOAGCUXXQvcmflTrZqWwEAABglRQAAAC7BXmM3DzfvBQDGwfrpeu6t3ku73w4AAMCoKAIAAHAJvlu+lfPOeQBgHPTLfr5Z/Db7jf0AAACMiiIAAACfaLO2njvrtwMA4+SsdZZ/efEvGZSDAAAAjIIiAAAAn6BX9vKHhc9TVoMAwLh5tPE4b/ffBgAAYBQUAQAA+ARLxwuZOZhOVVUBgHEzKAf57dvfptauBQAAYNgVAQAA+EidficPNu7lrH0aABhHVarMHy7kyebTAAAADLsiAAAAH2nxeD5zhzPpl/0Ao2FqKimmpgK8v/POeX5Y/iFbta0AAAAMsyIAAAAfodlr5tnO42zXtwKMlqkiwAeoqiqzB7N5sP4wvUEvAAAAw6oIAADAB6pSZae+lbnD2QDAJOj0O7mzcicrJyupUgUAAGAYFQEAAPhA3UE3r/deZvt8MwAwKTbONvJ8+3m6/W4AAACGUREAAIAPdNI6zr31HzKoBgGASTEoB/nT0vfZqe8EAABgGBUBAAD4QPfX7+TgYj8AMGn26nv5cvYPAQAAGEZFAAAAPsBx8yi3Fv+QqqoCAJOmqqp8u/htVk9WAwAAMGyKAAAAvKeyKvPN8h/T6rcCAJNqUA3yb6//Lc1eMwAAAMOkCAAAwHvarG3k+c6TVFUZAJhUVVVleu9tXm6/DAAAwDApAgAA8B76ZT8PN+/n8OIwADDpap1aflx7kFq7FgAAgGFRBAAA4D2sn63m7cHrdAedAMCkG5SDvNl7k1c7rwMAADAsigAAAPwTg7Kf2cO32axtBAD4DyfNk3y39F12zncDAAAwDIoAAAD8E7uNnbzYeZruoBsA4K9m9mYydzCbQTkIAADATSsCAADwM3plLzMHb7N8uhwA4H/X7rfz7eJ3qXfrAQAAuGlFAAAAfsZFt5EHG/fSG3QDAPytuYO5vN55EwAAgJtWBAAA4GcsHs9n+XQpAMDf1xv08uvpX6fVbwUAAOAmFQEAAPgHuoNufjv7qwzKfoDxMRXgsq2erOaL2S9TVVUAAABuShEAAIB/4OXu86zX1gOMl6mpqQCXq6zK3F25m73GXgAAAG5KEQAAgL+j0+/k7trtVFUZYLxMTU0FuHx79b3cW72XQTUIAADATSgCAADwd8wcTGf1bDlVqgAA/1yr18qzrefZqm0FAADgJhQBAAD4L1q9Vh5s3kutfRYA4P1UqbJ0vJSX2y8zKAcBAAC4bkUAAAB+okqV2cPpLB7Pp6zKAADvr91r587K3ayerqVKFQAAgOtUBAAA4Cea3Yu8PZjOUfMoAMCHmz+cz8P1B+n2uwEAALhORQAAAH5it7GT6b1XKatBAICP8/3S7ew39gMAAHCdigAAAPyn7qCbmYPp7F/sBQD4ePuN/Xy/dDsAAADXqQgAAMB/anTr+XHjXvplPwDAp7k1fytn7bMAAABclyIAAAD/6en242zW1gMAfLpGt5Ffvv63DKpBAAAArkMRAACAf9cddPPt0h8DAFyOsirzZONJ1k7WAwAAcB2KAAAA/Ls3e6+y29gJAHB5jpvH+WHldrqDbgAAAK5aEQAAYOL1yl6+W7mVsioDAFye7qCbVzuvs3K8EgAAgKtWBAAAmHizB2+zWdsIAHD51k/X83z7ebqDbgAAAK5SEQAAYKI1e83cXbuds/ZpAIDL1y/7ubt6L8vHy6lSBQAA4KoUAQAAJtrK6VLWa6spqzIAwNXYPNvMs61n6fS7AQAAuCpFAACAidXutzK9/zr7jb0AAFfr+6XbOWkeBwAA4KoUAQAAJtZeYy9v99+kX/YDAFyt/cZ+nmw+DQAAwFUpAgAATKRBNcjG2Vo2amsBJstUkqkAN+Hz2c/T7rcDAABwFYoAAAATqdY+y3fLt9Iv+wEmzFQyVUwFuH4HjYN8MftFqqoKAADAZSsCAABMpLWz1aydrQYAuD5lVebOyp3sNfYCAABw2YoAAAAT6fuVb9IrewEArtdefT93V+9lUA0CAABwmYoAAAATZ7O2kdmDtwEArl+r18rzrefZqm0FAADgMhUBAAAmzp21P6U9aAcAuH5VqiwfL+fl9ssMykEAAAAuSxEAAGCi7Df28mL3WaqqCgBwM1q9Vu6u3sv62UYAAAAuSxEAAGBilFWZh5v3c9o6DQBws5aOlvJ693V6g14AAAAuQxEAAGBinLSO8+5oLp1+OwDAzeqX/dxduZt6tx4AAIDLUAQAAJgY80fvsn62mipVAICbt3KykundtwEAALgMRQAAgIlw3jnPzMF0ap2zAADDoTfo5bPpXwcAAOAyFAEAAMZelSrb55uZOXiTqqoCAAyP1dO1PFx/GAAAgE9VBAAAGHvdQTczB9M5uNgPADBcyrLMt4vfpdlrBgAA4FMUAQAAxt5Ft5HHWw8DAAyfKlUWjhYyvTsdAACAT1EEAAAYe3OHM9mpbwcAGE7n7fM83nycTr8TAACAj1UEAAAYe/fWf0hZDQIADKd+2c/M/mzeHbwLAADAxyoCAACMtaWTxUzvvwkAMNw2zzbzcONhLroXAQAA+BhFAACAsVVWZX5Y/S5VVQYAGH7Te2+zVdtKlSoAAAAfqggAADC2Di72M3/0LlWqAADDb+NsI8+3n6fb7wYAAOBDFQEAAMbW0+3HOW4dBQAYDYNykHur99PoNgIAAPChigAAAGPptH2SucO3afdaAQBGx9bZVp5sPg0AAMCHKgIAAIydKlXmD+eyfraWKlUAfmoqSVFMBRhOg2qQf331r2n32wEAAPgQRQAAgLHT6rUydzSbk9ZxAIDRc9I8yf3VHwMAAPAhigAAAGNnt76Td4czAQBGU1VVub38fWrtWgAAAN5XEQAAYKz0y35WThezU98OADCaqlRZPV3Ly51XAQAAeF9FAACAsdLsXeTV7ov0y34AgNF13j7Pk80nafVaAQAAeB9FAACAsbJd38qL3WcBAEZbWZV5u/c2z7aep0oVAACAf6YIAAAwVh5t/hgAYDwcXRzlzd6bXHQvAgAA8M8UAQAAxka9W8+TrUcBAMbHm9032a5tBwAA4J8pAgAAjI2nW49y3qkFABgfu+e7eb37Jp1+NwAAAD+nCAAAMBa6g24ebf2YsioDAIyPftnPneU7aXTrAQAA+DlFAACAsTBzMJ2t880AAONn9XQ1jzeeBAAA4OcUAQAARt6g7OfV3vPUO+cBAMbT90vfpzvoBgAA4B8pAgAAjLzdxm7WzlbTL/sBAMbT/NF83h28CwAAwD9SBAAAGHkLx/PZPt8KADC+yrLMrflb6Q16AQAA+HuKAAAAI+2sfZq5w7dpdi8CAIyvKlXmDxeyeroaAACAv6cIAAAwsqpU2a3vZOFoPlWqAADj7fDiMN8sfJt+2Q8AAMB/VQQAABhZvUEvC8fvcnCxFwBg/PXLfpaPl7NxuhEAAID/qggAADCymr1mpvdfBwCYHJtnm5nem06/7AcAAOCnigAAACNrt76dpZPFAACTo9lr5tn28xw0DgIAAPBTRQAAgJH1ZPtROv12AIDJ8u7gXdbP1lNVVQAAAP6iCAAAMJI6/U7urt0OADB5LroXubN8J41uIwAAAH9RBAAAGElPtx+l3W8FAJhMz7afZ/t8JwAAAH9RBAAAGDn9sp9HWw9SVmUAPtTUVFJMBRhxzW4zd1fuBAAA4C+KAAAAI2ejtp6N2loAPs5UMhVgDNxf+zGNbiMAAAB/VgQAABg5r/depN45DwAw2U6aJ7m/ej8AAAB/VgQAABgpR83DzB68TbvfDgAw2cqqzDeL36bT7wQAAKAIAAAwUpZOFrNT3w4AwJ/t1ffyZPNpAAAAigAAACOj3W9l6XghZ+3TAAD8Wb1Tz/Pt52n32wEAACZbEQAAYGQcNY+ycrqUsioDAPBng3KQpaOlrJysBgAAmGxFAACAkXHcPMr62VoAAH5q42wj03vTGZSDAAAAk6sIAAAwEi56F3my9TDN3kUAAH6qX/bzavtlduo7AQAAJlcRAABgJDS69cwevg0AwN8zf7iQpaOlDKpBAACAyVQEAAAYCaunK9lr7AYA4O9p99t5svkkzW4zAADAZCoCAACMhLtrtwMA8HNebL/MfmM/AADAZCoCAAAMvfNOLbOH0wEA+Dn1Tj23l38IAAAwmYoAAABD78n2o3QH3QAA/DPfLnybVq8VAABg8hQBAACGWmfQydOtR6mqKgAA/0yz18zt5R8CAABMniIAAMBQWzlZynZ9KwAA76Osyjxcf5BOvxMAAGCyFAEAAIbazMHbNLr1AAC8r/WzjcwezAYAAJgsRQAAgKFV79azfraSbr8bAID3ddY6y5PNpwEAACZLEQAAYGgtHs9n83wjVaoAALyvftnPwuF81k7XAgAATI4iAADAUBqUg2yereekeRwAgA+1VdvO3MG7lFUZAABgMhQBAACG0nHrOIsnC+mVvQAAfKh6p563e29z1j4LAAAwGYoAAABD6aCxl8Xj+QAAfKy5g7nsnu8FAACYDEUAAICh0xl0snD8LvXOeQAAPtZB4yDTu2/S6XcCAACMvyIAAMDQaXYv8mrvRapUAQD4WGVV5t7a/Zx3zgMAAIy/IgAAwNA5vDjI2ulKAK7KVKYCTIbVk9WsnKwEAAAYf0UAAICh83TncXplLwBXYWoqmZqaCjA5vp7/JgAAwPgrAgAADJ0XO08DcJWmpgJMkNe7r7Nb3w0AADDeigAAAENl6WQx+xf7AQC4LJ1+Jz+uPQgAADDeigAAAEPl0eaPKctBAAAuS1mV+W7xu5y3zwMAAIyvIgAAwNC46DYye/g2VaoAAFymWruWZ9vPAgAAjK8iAADA0Hh3NJfT1kkAAC5bo9vIm503affbAQAAxlMRAABgaLw7ms1FrxEAgMs2KAdZPF7KyslqAACA8VQEAAAYCqftk2zWNtIb9AIAcBV2zneyfLQUAABgPBUBAACGwurpSvYaOwEAuCqdficvdl5mr74XAABg/BQBAABu3KAcZPNsPSfN4wAAXKXl4+Xs1fdTpQoAADBeigAAADfutH2SlbPl9MpeAACu0tHFUd4dzqXb7wYAABgvRQAAgBt33DzO+tlaAACuw5ONJ7noXgQAABgvRQAAgBs1qAbZa+zk6OIgAADXYel4OWtn6wEAAMZLEQAA4EY1e8283n+VQTUIAMB16Jf9fDP/dQAAgPFSBAAAuFG19llm9t8EAOA6Pd16llq7FgAAYHwUAQAAbtTS8ULOO7UAAFynTr+TJ5tPAgAAjI8iAADAjXqz/yoAANetrMrcXb2X3qAXAABgPBQBAABuTGfQyeu9lwEAuAlbZ1tZPV0LAAAwHooAAAA35vnO07T6zQAA3ITT1mnurtxNWZUBAABGXxEAAODGvNp9kVQBALgR3UE3y8fLOWwcBgAAGH1FAACAG3HaOs362UqqVAEAuCmbtc28O3wXAABg9BUBAABuxPLJQs475wEAuEm1Vi1LR0tp9VoBAABGWxEAAOBGLB4v5KJ3EQCAmzSoBpk9mMt+Yz8AAMBoKwIAAFy7k9ZxVs+W0xt0AwBw05aOl7J0vJRBOQgAADC6igAAANdu63wrR82jAAAMg96gl5fbr9LsNQMAAIyuIgAAwLUqqzIbZ6s5bh4GAGBYTO9Np9Y+DwAAMLqKAAAA16rRrWfrfDPdQTcAAMPi6OIo7w7fBQAAGF1FAACAa3XUPMra2WoAAIbN443HAQAARlcRAADg2lRVlYOL/eycbwXgJk1NJUUxFYCferzxOLv13QAAAKOpCAAAcG1a/WZmD6bTK3sBABg2g2qQB2sPAwAAjKYiAADAtWn321k8XggAwDCqqipPt56m0+8EAAAYPUUAAIBrs9fYy/b5ZgAAhtV+fS9rp2sBAABGTxEAAODazB/NpVf2AgAwrM479bzceRUAAGD0FAEAAK5FVVV5svUwAADDrNVrZXp3OocXhwEAAEZLEQAA4Foct46zUVsLAMCw26ptZfFwMQAAwGgpAgAAXIu3+69TpQoAwLA7bZ1m9XQtvUEvAADA6CgCAABci7cHb1JVVQAAhl2/7GfhaCFHzaMAAACjowgAAHDlLrqNbNY2AgAwKpaOlnLQOAgAADA6igAAAFdu7mg2551aAABGxWnrNE82nqTZawYAABgNRQAAgCu3crKUZq8ZAIBR8nr3TZrdZgAAgNFQBAAAuFKNbj1rZyvpDjoBABglG2cb2TzbDAAAMBqKAAAAV2r7fCvHzeMAAIyaftnPw41HAQAARkMRAADgSm2db+a4eRgAgFH0eONxAACA0VAEAAC4Mq1+K1vnm7noXQQAYBQdN4/zbOtZAACA4VcEAAC4Mqetk2yfbwYAYFRVVZVHG48DAAAMvyIAAMCVOWmdZLO2EQCAUVWlytzBXE6aJwEAAIZbEQAA4Er0y362zzdz3qkFAGCUnbZOM7M/EwAAYLgVAQAArkS7387KyVLKqgwAwChrdBqZ2Z8JAAAw3IoAAABXotm7yMLJfAAARl2/7GfxaCnrp+sBAACGVxEAAOBK7DV2s1ffCQDAODhoHGT9dD0AAMDwKgIAAFyJucPZAACMi1q7ls3aVnqDXgAAgOFUBAAAuBLvjmYCADAu+mU/C0cLOWoeBQAAGE5FAACAS9cZdLJ6shwAgHGydLSUg8ZBAACA4VQEAAC4dLMHb9MtuwEAGCenrdPMHbxLZ9ANAAAwfIoAAACX7tXui6QKAMDYebb5NBedRgAAgOFTBAAAuFSdQSerZ8upUgUAYNysnKzm4OIwAADA8CkCAABcqr36Ts7apwEAGEftfjtPN58EAAAYPkUAAIBLtXq6klavFQCAcfXj2oMAAADDpwgAAHBpyqrM3NFsmr2LAACMq+3adlZP1wIAAAyXIgAAwKU5ah7mqHmQsioDMMympgLw0cqUebH9IgAAwHApAgAAXJq9xm5OW6cBGHZTmcrUVAA+SlVVebr5NJ1+JwAAwPAoAgAAXJq9xm7OWicBABh3e/W9rJ2uBQAAGB5FAACAS9Hut7JX30273w4AwLhrdBqZ2Z8JAAAwPIoAAACX4rR1mq3zzVSpAgAw7pq9Zmb2Z9PstQIAAAyHIgAAwKU4a59mt74dAIBJsd/Yz8bpegAAgOFQBAAA+GRlVebw4iCnrZMAAEyKo4ujbNa2AgAADIciAADAJ+sOutmub2VQDQIAMCnqnXqWjhbT6DYCAADcvCIAAMAn6/Tb2ThbCwDAJKmqKmun6zlpngQAALh5RQAAgE/W7F1k+WQpAACTZuVkJbv1vVSpAgAA3KwiAADAJ9usbaTePQ8AwKS56F5k6Wgp3X43AADAzSoCAAB8srnDmQAATKqZ/bdp9poBAABuVhEAAOCTvTuaDQDApHp3MJ/Di8MAAAA3qwgAAPBJzju1bJ9vBQBgUrX77bw7mA8AAHCzigAAAJ9k9nAm/aofAIBJdn/tfgAAgJtVBAAA+CQLR3NJFQCAiTa7P5vz9nkAAICbUwQAAPhog3KQ9dpaqlQBAJhkVao83nwcAADg5hQBAAA+2kFzP8fNowAATLqqqvJk80kAAICbUwQAAPhoO+db6fQ7AQAg2TzbyknrJAAAwM0oAgAAfLTl06U0e80AAJCctU7zbPNZAACAm1EEAAD4KL2yl+3zrXQHnQAAkDR7rSwdL2dQDgIAAFy/IgAAwEc5ujjMebsWAAD+Q7/sZ+NsI4cXhwEAAK5fEQAA4KMcNg9S65wFAIC/Orw4zObZZgAAgOtXBAAA+CgHjf3U2mcBAOCvDhuH2TjbCAAAcP2KAAAAH6zdb2envpVmrxkAAP6qX/azeLSYo4ujAAAA16sIAADwweqd8xxeHAQAgL+1VdvKaes0AADA9SoCAAB8sPNOLfsX+wEA4G/t1vey3zhIWZUBAACuTxEAAOCDnXdqObzYDwAAf6vVa2XlZCXdQTcAAMD1KQIAAHyQ3qCbrfOttPvtAADw983uz6bZawUAALg+RQAAgA/SGXSyUVsLAAD/2PzhfOrt8wAAANenCAAA8EHa/XZWTpYDAMA/1ul38mL7ZQAAgOtTBAAA+CDnnfMcXOwFAICf92L7eQAAgOtTBPj/2IPT7rrOwzygz3nvhHkgCcqUaFu21eW2af//P8i3NM1qnKS2HMkSSYkYiBl3vrdZRJdYlgQJcMS5Z+8NAHAjj08eZTKbBACAN/vz/l9yNjoLAADwaZQAAAA38sPR9wEA4O3OR+f5y/63AQAAPo0SAADgRv60978CAMDbzefz/P33fx8AAODTKAEAAK5tMBnkyenjAADwdvPM8+f9P2c4GQYAAPj4SgAAgGv74fj7jKbDANRdVSVVFYCP7nhwnO8OvwsAAPDxlQAAANf2t6Pvk3kA6q9KqlQB+NjOhmf5089/CgAA8PGVAAAA1/bD8d8yzzwAAFxPf9LPX5/9e8azcQAAgI+rBAAAuJbpfJo/7/9rAAC4vvl8nifHT/K3wx8CAAB8XCUAAMC1/Hz6UwaTQQAAuJm98708OvoxAADAx1UCAABcy+OTHzOcDgMAwM0cD47zw/GPGU/HAQAAPp4SAADgWh6d/JjBZBAAAG5mNp/l8fGjHA+OAwAAfDwlAADAtfx89lNG02EAALi5R8ePc9g/DAAA8PGUAAAAb7V7/jQHF/uZz+cBAODmHh8/zu7ZbubzeQAAgI+jBAAAeKuDi/2cjk4CAMC7GU1H+be9/53BZBAAAODjKAEAAN7qWf9ZToenAQDg3X27/20Gk0EAAICPowQAAHirw/5BzkanAQDg3X178G3640EAAICPowQAAHij8/F5np7/nMlsEgAA3t356Dz/tvuvAQAAPo4SAADgjU6Gx9k73w0AAO/vHx79QwAAgI+jBAAAeKP+uJ/jwXEAAHh/f9r9l0zn0wAAAB9eCQAA8Eanw5PsXewGAID3t3++n59Pfw4AAPDhlQAAAFeazqbZu9jN+egsAAC8v3nm+R+P/zEAAMCHVwIAAFxpPBvn4GI/AAB8GPP5PP/05J8CAAB8eCUAAMCVRtNhHp88CgAAH84PRz/k2cWzAAAAH1YJAABwpeFkmL8dfRcAAD6ci/FFvj34awAAgA+rBAAAuFJ/0s+z/kEAAPhwLkYX+evBXwMAAHxYJQAAwJV2z59mMpsEAIAPZzgd5vvD73I+uggAAPDhlAAAAFf6y/7/DgAAH9Z8Ps/Ts938fPZzAACAD6cEAAC40rfP/hwAAD68/fP9PDr6MQAAwIdTAgAAXOnRyQ8BAODDO+4f5/Hx40xn0wAAAB9GCQAA8FpHg8Ocjk4DAMCHN51P8/jkcY4HxwEAAD6MEgAA4LV+OP5bMg8AAB/Jo+PHOewfBgAA+DBKAACA19o/3wsAAB/P45PHOewfBgAA+DBKAACA1/q3/X/JPPMAAPBxXIwu8t3h9xlNRwEAAN5fCQAA8IrZfJbHp48CAMDH9Ze9v6Q/7gcAAHh/JQAAwCuOh8fpjy8CAMDH9e3BtxlMBgEAAN5fCQAA8Iqfz55kOBkGAICPa+98L0/PdgMAALy/EgAA4BUHFwcZz8YBAODjms6m+den/xIAAOD9lQAAAK94cvoow8kwAAB8fP/4+H8GAAB4fyUAAMBLprNpnpw8zmg6DAAAH9+fD/6cwWQQAADg/ZQAAAAvORudZjDpBwCAT2M4GebP+38JAADwfkoAAICXHPQPcjo8CQAAn8g8+dPP/xwAAOD9lAAAAC85GhzmfHQeAAA+jXnm+eef/xQAAOD9lAAAAC85GRznYnweAAA+nb3zvTy7eBYAAODdlQAAAL+YzWfZu9jN6eg0AIusVFWqqgrAbXExvsi3B38NAADw7koAAIBfDCaDnA5PAwDAp9Uf9/O3w+8DAAC8uxIAAOAXZ6PTHPT3AwDApzWcDPPj8aNMZpMAAADvpgQAAPjFYNLP2fA0AAB8WrP5LLtnuzk4PwgAAPBuSgAAgF+cjc7yrH8QAAA+vf3z/Tw6fhQAAODdlAAAAM/NM8/Z8DRHg8MAAPDpHQ+Os3u2GwAA4N2UAAAAz01n0xwOnmUymwQAgE/vfHSexydPMpwMAwAA3FwJAADw3Hg2zt7FXgAA+HwenzzOYf8wAADAzZUAAADPTWaTHPUPAwDA5/P09GlOBicBAABurgQAAHhuOBnkb0ffBwCAz+fJyZPsX+xnnnkAAICbKQEAAJ6bzqY5HZ0EAIDPZzQd5btn32c4GQUAALiZEgAA4LmjwVGOB0cBAODz+u7ZdxlOBgEAAG6mBAAAeO6n08cBAODze3zyOKPpKAAAwM2UAAAAzz0+eRQAAD6/JydPMpqMAgAA3EwJAADw3M9nTwIAwOc3no7z/dHfAgAA3EwJAADw3M9nPwUAgNvhp+MnAQAAbqYEAAB4bvf8aQAAuB3+/fC7AAAAN1MCAABk7/xpxtNxAAC4HfbOdgMAANxMCQAAkL2LvQAAcHt89+z7AAAAN1MCAADk0fEPAQDg9uhP+tk/3w8AAHB9JQAAQHbPdzPPPAAA3B4/Hj8KAABwfSUAAED2L/YCAMAtMk/+evBtAACA6ysBAABycLEXAABuk3l2z3YDAABcXwkAADTc4eAw5+PzAABwe8yT/Hj0KAAAwPWVAABAw50MjzOZTQIAwO1y2D/MxfgiAADA9ZQAAEDDPT55lOFkGAAAbpfBZJDHx48DAABcTwkAADTcyfA4k9kkAADcLqPpKLtnuwEAAK6nBAAAGu7gfC/j6SgAANwuo8koT8+eBgAAuJ4SAABouKPBUSazSQAAuF2G02GenPwUAADgekoAAKDBzkdnOR+fZ555AAC4XaazaU6Hp5nOpwEAAN6uBAAAGuxkeJKL8XkAALidjvpH2TvbCwAA8HYlAADQYCfDk/TH/QAAcDsNJoOcjc4DAAC8XQkAADRYf3yR0XQYAABup/PReY76hwEAAN6uBAAAGuxsdJr+pB8AAG6n/rif0+FpAACAtysBAIAGOx2dZjDuBwCA2+l0eJqDi2cBAADergQAABpqNp/lbHiS4XQYAABup8lskrPhWSazSQAAgDcrAQCAhhpMBjkdnQYAgNvt4GI/p8PTAAAAb1YCAAANNZj0czY6DUBjVQGohZPBSQbjQQAAgDcrAQCAhhpMBjkdngagqUqVVFUAbr2z0XkGk0EAAIA3KwEAgIbqj/s5HZ4EoKmqqkpSBeC2O7g4yNnoLAAAwJuVAABAQw0m/ZyOTgMAwO12MjhJf9wPAADwZiUAANBQg8kgZ6PTAABwuw0mgxwNjjObzwIAAFytBAAAGmieeQaTfkbTUQAAuP0OL55lPB0HAAC4WgkAADTQeDrOwcV+AACoh8cnjzOajgIAAFytBAAAGmg6m+ZkeBIAAOrh8OIok9kkAADA1UoAAKCBxrNxDi72AwBAPTw9e5rxdBwAAOBqJQAA0EDT+TSno5MAAFAPx4PjTGaTAAAAVysBAIAGms4mOR4cBQCAejgdnuZ4cBIAAOBqJQAA0ECT2SSHg8MAAFAfu2dPAwAAXK0EAAAaaDKb5Hx0FgAA6uPn06cBAACuVgIAAA10PDgKAAD1sne+FwAA4GolAADQQAf9/QAAUC8H5/sBAACuVgIAAA20d74bAADqZfd8LwAAwNVKAACggU4GJwEAoF5+OvkpAADA1UoAAKCBnvX3AwBAvQynw0xmkwAAAK9XAgAADXTQPwgAAPXz7wf/HgAA4PVKAACggZ71DwIAQP0cDo4CAAC8XgkAADTQyeA4AADUzDzZO98LAADweiUAANAwexd7AQCgnnZPdwMAALxeCQAANMzx4DAAANTPPPM86z8LAADweiUAANAwe+e7AQCgnh4dPwoAAPB6JQAA0DCnw9PMMw8AAPUzGA8ynA4DAAC8qgQAABrmaHAUAADqaTwb5/DiMAAAwKtKAACgYY4GzwIAQD1NppM8u3gWAADgVSUAANAwo+koAADU03g2zrP+YQAAgFeVAABAw/xw/H0AAKin2WyW/rgfAADgVSUAANAg0/k08/k8AADU02g6yt7ZbgAAgFeVAABAgxz2n2UymwQAgHqazqfpj/sBAABeVQIAAA0ymAwym88CAEA9TaaTPOsfBgAAeFUJAAA0SH/cz3Q+DQAA9TTPPOPZOLP5LAAAwMtKAACgQQ76+xlPxwEAoL5OBifZO98LAADwshIAAGiQ0WSY+XwWAJKqSqoA1M98PstsNgsAAPCyEgAAaJCjwWHGs0kA+L+qANTOxbifk+FpAACAl5UAAECDjGfjzDMLAAD1NZlNMpoOAwAAvKwEAAAaZP98L+PpOAAA1NfZ8CyH/aMAAAAvKwEAgAYZTgeZzWcBAKC+xrNxhpNBAACAl5UAAEBDDKfDjKfjAABQb8PxMOej8wAAAC8rAQCAhjgbnWYwGQQAgHobToe5GPcDAAC8rAQAABpiNp9lllkAAKi//rif0XQUAADghRIAAGiI89F5hpNhAACov9PBSfrjfgAAgBdKAACgIS7G5xlOBgEAoP6G02Ems0kAAIAXSgAAAAAAauawf5Tz0XkAAIAXSgAAoCHOhqcZTPoBAAAAAFhEJQAA0BCDySCj6TgAANTfs4tnOR+dBwAAeKEEAAAaYp555pkHAID6G09HmcwmAQAAXigBAICGOBudZjDuBwCA+hvPJpnOpgEAAF4oAQCAhhhMBhnPxgEAoP6OB8fpj/sBAABeKAEAAAAAqJnpbJrZfBYAAOCFEgAAaIDz8XmOBocBAGBxDKejzOfzAAAAl0oAAKABprNpxtNxAABYHE9Pf85oOgoAAHCpBAAAGmA2n2U6nwYAgMUxn88DAAC8UAIAAA0wmPRzNjwNAACL42R4mslsGgAA4FIJAAA0wGQ2yWg6CgAAi+Owf5jJbBwAAOBSCQAAAAAAAABQeyUAANAAF+OLHA2OAgDA4tg9e5rxdBwAAOBSCQAANMB0Nsl4NgoAL1QBqLf+eJDZfBYAAOBSCQAAANBIValSBaC+prNp5pkHAAC4VAIAAA0wm88ynU0DwAtV/kMVgNp61n+WyWwSAADgUgkAADRAf3yRk+FxAABYHP1xP7PZLAAAwKUSAABogOl8lslsEgAAFss88wAAAJdKAAAAAABq6rB/FAAA4FIJAAAsuNl8lv74IgAALJ79870AAACXSgAAYMFNZpMcDQ4DAAAAALDISgAAYMHNM890Pg0AAAAAwCIrAQAAAACoqf3zgwAAAJdKAABgwc3mswwngwAAsHgO+gcBAAAulQAAwIIbT8fZO98NAAAAAMAiKwEAAAAAAAAAaq8EAAAAAKCmHh39GAAA4FIJAAAsuOlskuPhcQAAWDz9cT8AAMClEgAAWHDT+TSnw5MAAAAAACyyEgAAAACAmprMJgEAAC6VAAAAAADU1O7ZXgAAgEslAAAAAAA1dTY6CwAAcKkEAAAW3Hw+z2w+CwAvK6VKFQAAAGBRlAAAwIIbz8bZO98NAK9TBQAAAFgMJQAAsODm83nGs3EAAFhMZ6OzAAAASQkAAAAAQI3tnu0GAABISgAAAAAAamwynQQAAEhKAAAAAAAAAIDaKwEAgAXXn1wEAAAAAGDRlQAAwIJ7cvo4AAAAAACLrgQAAAAAAAAAqL0SAAAAAIC6mic/Hj8KAACQlAAAAAAA1Fh/3A8AAJCUAAAAAAAAAAC1VwIAAAA0VlUCAAAALIgSAAAAoLFKVQUAAABYDCUAALDgHp88CgAAAADAoisBAIAFNxj3AwDA4jofnQUAAEhKAAAAAABqap55npw8CQAAkJQAAAAAAAAAALVXAgAAAAAAAADUXgkAAAAAAAAAUHslAAAAAAAAAEDtlQAAAACNVUqVqgoAAACwAEoAAAAAAAAAgNorAQAAAAAAAABqrwQAAAAAAAAAqL0SAAAAAAAAAKD2SgAAAAAAAACA2isBAAAAGquqAgAAACyIEgAAAKCxSqkCAAAALIYSAAAAAAAAAKD2SgAAAAAAAACA2isBAAAAAKix4WQYAAAgKQEAAAAAqLGfTn8OAACQlAAAAAAA1Nh4OgoAAJCUAAAAAADU2L3VnQAAAEkJAAAA0FilqgJQd1tLmwEAAJISAAAAoLGqKv+hCkCdVVUVAAAgKQEAAAAAAAAAaq8EAAAAAAAAAKi9EgAAAAAAAACg9koAAGDBVVUJAAAAAMCiKwEAgAW3s7oTAAAAAIBFVwIAAAtuvbcRAK5WBQAAAFgEJQAAAECjlVIFAAAAqL8SAAAAoNGqKgAAAMACKAEAAAAAAAAAaq8EAAAAAAAAAKi9EgAAWHCrndUAAAAAACy6EgAAWHD3Vu4HAAAAAGDRlQAAwIJrl3YAAAAAABZdCQAAANBsVQBqq0qV39/9QwAAgKQEAAAAaLRSVQGos1bVCgAAkJQAAAAAAAAAALVXAgAAC65UJUvtpQAAAAAALLISAABYcO3SztbSdgAAAAAAFlkJAAAsuKqq0i7tAAAAAAAsshIAAAAAAAAAoPZKAAAAAABqbK23GgAAICkBAIAF1y7tbC1tBwCAxXR/9X4AAICkBAAAFlypWlnrrgUAgAVUJe3SDgAAkJQAAAAAjVZKFQAAAKD+SgAAYMFVqdIq7QDwelUVAAAAYAGUAADAgmu32tle3g4AAItpqbMUAAAgKQEAgAVXqpKl9nIAAFhM99fuBwAASEoAAAAAAGpsqb0UAAAgKQEAgAVXJSlVCQAAAADAIisBAIAF12318uX6wwAAAAAALLISAAAAAICaWuuuBQAAuFQCAAAAAFBT99d2AgAAXCoBAIAG6LV7We2uBQCAxdIu7QAAAJdKAACgAbqtbpbbywHgVVUAAACARVACAAANUKWkVCUAvKqqqgDUVbt0AgAAXCoBAIAG6LV7WemsBoBXlVIFoK7ur90PAABwqQQAABqg2+pmpbMSAAAWy2pvNQAAwKUSAABogFbVSru0AwAAAACwqEoAAKABVrqr2VreDgAAi+Xu8t0AAACXSgAAoAGqVKlSBQCAxXJv9W4AAIBLJQAA0ADdVifLneUAAAAAACyqEgAAaICl9nLWuusBAGCxrHZXAwAAXCoBAAAAAKip+2v3AwAAXCoBAICG2OhtZqWzEgAAFkendAIAAFwqAQCAhui1emmXTgAAWAylKklVBQAAuFQCAAAN0W130y7tAPCqqgpA7WwsbaRdtQIAAFwqAQCAhljrrme5sxwAXlWVKgB1s9HbSKu0AgAAXCoBAICGKFVJlSoAvKpKFQAAAKDeSgAAoCHurtzLem8jAAAshoebD9Nr9wIAAFwqAQCAhuiUTlpVKwAALIZWaQUAAHihBAAAGmKtu56lznIAAFgMy53ltKpWAACASyUAANAQ3VY3ndIOAACL4e7ynbRb7QAAAJdKAACgQe6t7KTT6gQAgPprlVaqVAEAAC6VAABAgyy1l1OqVgAAqL+dtZ10Wp0AAACXSgAAoEG2lrbTKe0AAFB/K52VlKoEAAC4VAIAAA2y0l1NqVoBAKDeOqWTVmkFAAB4oQQAABpka2kr7dIOAAD1tt5bz1J7KQAAwAslAADQIGvd9bRLOwAA1Fun1U6rtAIAALxQAgAADbLR20irtAIAQL2tdtfSay8FAAB4oQQAABpko7eZdmkHAIB6W+utZandCwAA8EIJAAA0zHpvMwAA1FupSkpVAgAAvFACAAANs7OyEwAA6m2jt56l9lIAAIAXSgAAoGEerH8VAADqrddeSqfVCQAA8EIJAAA0zFp3LUkVAADqa2dtJxu9jQAAAC+UAABAw3y9/ftUAeD/VaoA1EapSjqlnaqqAgAAvFACAAANs9HbCAD/nyoAtbHcWc56bz0AAMDLSgAAoGF2Vu4HAID6apd2eu1eAACAl5UAAEADPVj/MgAA1NNady1by1sBAABeVgIAAA201l0LAAD11G610231AgAAvKwEAAAa6OutPwQAgHpa7ixno7ceAADgZSUAANBAG0sbAQCgnrqtbpY6SwEAAF5WAgAADbSzej8AANTTcmc56731AAAALysBAIAG+nL9qwAAUE+9Vi8rnZUAAAAvKwEAgAZa6aykVCUAANRLu7SzsbQRAADgVSUAANBA3VYvX65/FQAA6qVd2tla2gwAAPCqEgAAaKBStbLaXQsAAPXSKq2s9dYCAAC8qgQAABqo0+pkZ/V+AACol06rk+2VOwEAAF5VAgAADdQpndxZvhsAAOql2+rki9X7AQAAXlUCAAAN1Cnt3Fu5FwAA6qVUrax0VwIAALyqBAAAGqhV2tlevptO6QQAgPpYai/l4ebDAAAAryoBAICGWuuu5c7K3QAAUB+bSxsBAABerwQAABpqqb2cte56AACoj/tr9wMAALxeCQAANNRKZzmbvc0AAFAPVap8tfkwAADA65UAAEBDLbVXst7bCAAA9bHeWwsAAPB6JQAA0FCr3dXcWbmbKlUAAKiBKvnDnT8EAAB4vRIAAGioVtXKRm8z3XYvAADUw+byZgAAgNcrAQCABtvqbWW1sxoAAOrhi7UvAgAAvF4JAAA02Fp3PUvt5QAAcPs93PgqAADA1UoAAKDBtpfvZK27FgAAbr+13loAAICrlQAAQINtLm1mpbsaAABuv4ebvw4AAHC1EgAAaLC17nq2l7ZTqhIAAG63L9bvBwAAuFoJAAA03N2VnXRa3QAAcLs93Px1AACAq5UAAEDD3V+9n26rGwAAbrcH6w8CAABcrQQAABruwfqX6ba6AQDg9trobWStuxoAAOBqJQAA0HD3VnbSbXUDAMDtdX9tJ51WJwAAwNVKAACg4baWtrPR2wwAALfXvdWdtFvtAAAAVysBAADym83fBgCA2+v+2v10SzcAAMDVSgAAgPxq7UGqVAEA4Ha6u3o37VY7AADA1UoAAID8p7t/DAAAt1OVKr9a+yKdVicAAMDVSgAAgPxq7UFSBQCAW2i9t57V7mqqVAEAAK5WAgAAZL23kY3uRgAAuH22ljez0lkJAADwZiUAAMBzv9n6OgAA3D7rvY0sd5YDAAC8WQkAAPDcVxsPAwDA7XNv9W7WemsBAADerAQAAHju663fBwCA22d7+U5Wu6sBAADerAQAAHjuN1tfp1VaAQDg9mhVrWwtb2WpvRQAAODNSgAAgOdWO2u5u3wvAADcHqu91WwvbwcAAHi7EgAA4Lluq5tfrX8ZAABuj7XuWraWtwIAALxdCQAA8Fyv3ctvN38bAABuj43eeu6t3A0AAPB2JQAAwHOd0snO6hcBAOD2WOmuZmt5KwAAwNuVAAAAz7VLO/dWdrLUXg4AAJ9fVVXZXt7O9vJ2AACAtysBAAB+sd7byM7q/QAA8Pl1W918sfZFAACA6ykBAAB+sdHbyP3VLwIAwOfXbXVzf20nAADA9ZQAAAC/WOuu5+7y3QAA8Pn12r18ufFlAACA6ykBAAB+sdxZzp2Ve2mVdgAA+Ly6rW521nYCAABcTwkAAPCLKlXur97PRm8jAAB8Xmu9tXyx9kUAAIDrKQEAAF5yf/WLbPa2AgDA5/XrzYcBAACurwQAAHjJneW7We+tBwCAz6dKla82HwYAALi+EgAA4CUbS5vZ6G2mqqoAAPCZVMnvtr8OAABwfSUAAMBLWlUrv1p7kG6rGwAAPp8vN78MAABwfSUAAMArfrf9hyy3lwMAwOex3F7Orzd/HQAA4PpKAACAV3y18TC99lIAAPg8vrn3TQAAgJspAQAAXrGzej8bvc0AAPB5PNz8KgAAwM2UAAAAr2hVrfx++w8BAODz+N2d3wUAALiZEgAA4LV+f+ebVKkCAMCnVaXKf73/dwEAAG6mBAAAeK3/svPfkioAAHxid1fuZrmzFAAA4GZKAACA19pZ2clGdyMAAHxaX21+lW6rGwAA4GZKAACAK/3nnb8LAACf1m+3f5ul9lIAAICbKQEAAK70++1vAgDAp/Xb7d+k1+4FAAC4mRIAAOBKX2/9LlWqAADwaXRbnWwvb6dVWgEAAG6mBAAAuNKv1h9ke/lOAAD4NO6vfZHNpc0AAAA3VwIAAFyp2+rlq41fBwCAT+PBxoNsLW0FAAC4uRIAAOBKvXYvv9n8bQAA+DS2l7ez0l0NAABwcyUAAMCVeq1efrP52wAA8GncWd7OWnc1AADAzZUAAABXKlXJvdWd3FvZCcAim80C8NltLG3kwcaDtEorAADAzZUAAABvdGf5br7aeBgAAD6u7aWtfLH2RQAAgHdTAgAAvNHW0lYerH8ZAAA+rq2V7TxYfxAAAODdlAAAAG+01F7Or9a+zFJ7KQAAfBxVqmwtbWZreSsAAMC7KQEAAN7qV2sPsrV0JwAAfBy9di8PNx+m0+oEAAB4NyUAAMBbPVj/MneW7wQAgI9jqbOU32z9JgAAwLsrAQAA3ur+6he5u7KTqqoCAMCHt9xZzjd3vwkAAPDuSgAAgGv5auOr9FpLAQDgw1vvrufe2r0AAADvrgQAALiWr7d+n+XOcgAA+PB+d+d36ZROAACAd1cCAABcy9fbv89SezkAAHxYVVXlP937JgAAwPspAQAArmWjt5GHG78OAAAf3h/u/iEAAMD7KQEAAK6lSpW/u//fU6UKAAAfTq/Vyx93/hgAAOD9lAAAANf2X3b+LqkCAMAH9M29bwIAALy/EgAA4Nq+XP8qG73NAADw4fxx548BAADeXwkA8H/Yg6/2us4DTbDv/vZJODjIOSeCASSYRSpREpWDKUtyuVy5uv3UTc/0/7+aB3va7VIFW4EB4YS1FsBLa5VWjhdvBACA83Nr9WYAAIA3VwIAALySh5uPAwDA+ei1etmZ2wkAAPDmSgAAgFdyc/kknboTAADe3PHycaY70wEAAN5cCQAA8Ep67akcLR4HYJw0TROAq3CwuJ9eqxcAAODNlQAAAK9kqjWV60s3AzBOzs6aAFyFvYX9dFvdAAAAb64EAAB4Jd26m935vdSlFQAAXt/81Hw2ZtZTlzoAAMCbKwEAAF5JVVVZ7q9kdXo1AAC8vu257Sz0FwMAAJyPEgAA4JWt9FdzMH8YAABe387cTpamFgMAAJyPEgAA4JXNdGezPrOZuqoDAMCra5VWVmdW0+/0AwAAnI8SAADglbVKK+uDjQw6gwAA8Ormp+azObOZUpUAAADnowQAAHgt27M7WeqvBACAVzffm8/aYDUAAMD5KQEAAF7LxsxWlvrLAQDg1S32F7MxuxEAAOD8lAAAAK+l1+plb/4g3VYvAAC8vE7dyc7cTma6MwEAAM5PCQAA8NpurZxkuj0dAABe3lR7KkfLRwEAAM5XCQAA8Nr25w8z050NAAAvr9/u52jpKAAAwPkqAQAAXlu/3c/x4vUkVQAAeDlL/aVszKwHAAA4XyUAAMAbebz1NFUVgJF11jQBuCxVqtxau5VWaQUAADhfJQAAwBu5uXKSXqsXgFF1dtYE4NJUyf3N+wEAAM5fCQAA8Ea6dTe3V+8GAIBf12v1crx8LQAAwPkrAQAA3tjdtQcBAODX7S/sZ9AZBAAAOH8lAADAG7u+dD39dj8AAPyyO+t3AgAAXIwSAADgjc1257I7tx8AAH5elSp3N04DAABcjBIAAOCN9TvTOV27FwAAft7qYDXbc9sBAAAuRgkAAPDGunU3h4vX0m/3AwDATztZO0m/3Q8AAHAxSgAAgHOxOLWU7dndAADw064tX0uv1QsAAHAxSgAAgHOxOLWUnbndAADw1wbdQbZnt9KqWwEAAC5GCQAAcC6mO9PZmz9Ivz0dAAD+u63ZzSz1l1KlCgAAcDFKAACAc1GlysHCUVan1wIwSs7OmgBctL2F/SxPLwcAALg4JQAAwLnZnNnK+mA9VVUFYFQ0TQAuVKfuZH9hL7O92QAAABenBAAAODf9dj8HC9fSq3sBAODPlqeXsz23HQAA4GKVAAAA5+rmykmmO4MAAPBny9PL2ZnfCQAAcLFKAACAc3W0cJSFqcUAAJC0Sis7cztZmV4JAABwsUoAAIBzVZdW3tp8mipVAAAmXb/dz/WV6ylVCQAAcLFKAACAc/dw863UpRUAgEnX7/Rzffk4AADAxSsBAADO3dbsdtZnNgIAMOlWB6vZmtsKAABw8UoAAIALcX/9YQAAJllVVbm3cS+t0goAAHDxSgAAgAvxaPNJqqoEAGBSValyf/NeAACAy1ECAABciLXBem4u3wrAsDs7awJwERamFnJr9VYAAIDLUQIAAFyIqVYv1xaPAwAwqe5v3g8AAHB5SgAAgAvRrbu5sXwrs925AABMoodbDwMAAFyeEgAA4EJUVcnmzHb25g8CADBp5qfmc7R0GAAA4PKUAAAAF2apv5yDhcNUqQIAMEmuLR1ltjsbAADg8pQAAAAXplN3cn3pZpanVwMAMCmqqsqTnScZdAcBAAAuTwkAAHChduf2sjq9GgCASTHXm8v23HZapRUAAODylAAAABdqqb+cvfmDtOt2AIZRE4Dzdbh4mJXBSgAAgMtVAgAAXKhSlZys3M50exCAYXR21gTgPO3N72apvxQAAOBylQAAABfu5spJZrozARhGTROAc7M4tZhry8fptXoBAAAuVwkAAHDhptuDPN58mipVAADG2cpgJfsLewEAAC5fCQAAcCkebr6VqqoCADCuSlWyNbeVzdnNAAAAl68EAAC4FPvzB1kbrAcAYFz12r0cLR6m2+oGAAC4fCUAAMClaJVWHm0+CQDAuJrpzOR04zQAAMDVKAEAAC7No80nKVUJAMA4Wuwv5mDhIAAAwNUoAQAALs3mzGburT8MwHBpAvCmqqrK27tvpy51AACAq1ECAABcmqlWP7dXT1OqEoBhcNY0ATgPrdLK27tPAwAAXJ0SAADg0rTrdo4Wj7PcXwnAMGiaAJyLvfm97MzvBAAAuDolAADApVofrOf68s0AAIyTB1sPAgAAXK0SAADgUs1153Mwf5Ru3Q0AwDioqipPdt4KAABwtUoAAIBLVVVVbq+dZmduLwAA4+B0/TSbs5sBAACuVgkAAHDpNgYb2ZjZTKlKAABG3en6afrtfgAAgKtVAgAAXLpO3c3J6mmm29MBABhlc7253Fi5nk6rEwAA4GqVAAAAV+Le2v0MurMBuEpnZ00A3sTh0mE2ZjZSpQoAAHC1SgAAgCsxP7WQ26unqVIF4Ko0TQDeyN78bhb7iwEAAK5eCQAAcCWqVPlo/5OUUgcAYBTNT83n2vJxptpTAQAArl4JAABwZY4Wr2Vtej0AAKNoa3Yzx8vXAgAADIcSAADgSj3b+zAAAKOmLnW253ayPlgPAAAwHEoAAIAr9XDzrcx25wIAMEoGnUFON07TrtsBAACGQwkAAHClFqcWc7p2LwAAo2S2O5N7G3cDAAAMjxIAAOBKTbcHeWvraTp1NwCX7eysSdME4JVUqXKyfjtL/aUAAADDowQAALhSVVVle3Yn1xaPAwAwCqqqysdHzwMAAAyXEgAA4Mot9Vdybel6WqUVAIBhtzm7mZurNwMAAAyXEgAA4Mr1Wr3cWLqVxamlAAAMu6e7T9Mu7QAAAMOlBAAAGArXlo6zNbsdAIBhVlVV3t59GgAAYPiUAAAAQ2G2O5c7q/fSb/cDADCsTtdPszm7GQAAYPiUAAAAQ+N0/V7mevMBuCxN0wTgVZyun6bf7gcAABg+JQAAwNDYHGzlaOE4VaoAXIazswC8tLneXG6sXE+n1QkAADB8SgAAgKFRlzofHnycqqoCADBsDpcOszGzkSpVAACA4VMCAAAMlZvLJ1kfbAYAYJi0Siun66dZn1kPAAAwnEoAAICh0iqtfHn8TaqqCgDAsFibWcv15ePUpQ4AADCcSgAAgKFzsnoni1NLAbh4TQB+TVVV2Znbyf7CfgAAgOFVAgAADJ2F3mIebjwOwEU6a5o0Afh1U61eTlZvZbG/GAAAYHiVAAAAQ2eq1cvp2v1MtwcBuDBNAF7KTG8297fuBwAAGG4lAADA0Kmqkt35vdxYvhkAgKtUpcrh4mEOFg4CAAAMtxIAAGAorU2v5976g3RbvQAAXJWqqvLF9c9TlzoAAMBwKwEAAIbW8dLNbM9uBwDgqiz2F3N/834AAIDhVwIAAAyt7dmdHC5cS6u0AnDemiZJE4Bf9HTnaTp1JwAAwPArAQAAhla7bud07V4GnUEAzlvTNGkC8PPapZ0PDz8MAAAwGkoAAIChdm/9YVam1wJw3poA/LLj5eNszm4EAAAYDSUAAMBQ69SdfHTwSaqqBADgspSq5N39dzPoDgIAAIyGEgAAYOg93Xo3C72FAABcltXBam6sXE+n7gQAABgNJQAAwNCb7kzn/b0PAwBwWW6t3srG7GYAAIDRUQIAAIyEp9vvpt/uB+BcNQH4K9Od6dxavZn53lwAAIDRUQIAAIyEten1PNl+JwDnpWmSJgB/bXN2MzdWbqRUJQAAwOgoAQAARkK/3c+jzSeZ7gwCAHBRWqWVW6s3c7x8HAAAYLSUAAAAI6GqquzO7eXm8kkAAC7KbG829zcfBAAAGD0lAADAyFiaWs7t1dNMtfsBALgIW7NbOV0/DQAAMHpKAACAkVGXOicrt7M1sx2AN9U0TZImAD8qVcmzg2eZ7vQDAACMnhIAAGCkbM/t5mDhMK3SCsCbOGuSpgnAfyhVyfsH7wUAABhNJQAAwEipqzrPDz7NUn85AG+kCcB/8/G1jzPfmw8AADCaSgAAgJFzsHCU46UbqVIFAOA8tOt2Pjh4FgAAYHSVAAAAI+njg89SVVUAAM7DjeUb2V88CAAAMLpKAACAkXRt8TjHizcC8Dqa/EkTgB+9tfM4g850AACA0VUCAACMpHbdyWfXvkyVKgCvqmmaNE0A/q+9hb3cWb+TTt0JAAAwukoAAICRdbJ6muOlGwEAeF1VVeXu+t3szO8EAAAYbSUAAMDIGrQHebr9blqlFQCA17HQW8jJ2q0MOoMAAACjrQQAABhZ7bqdk5Xb2ZnbCwDA69hd2M3J2kkAAIDRVwIAAIy0zdnt3F2/n1KVALy0JmkCTLqp9lRO1+9kqb8UAABg9JUAAAAjrVN3cnvlNOuDzQC8rKZJmqYJMNkWphby3sH7KVUJAAAw+koAAICRd2vldk5W76RVWgEAeBlVVeXe5r3szu0EAAAYDyUAAMDIa5VWHm48zkx3NgAAL6Nd2vns+LMAAADjowQAABgLt1fv5MbSzVSpAgDwa/YW9nK0dBgAAGB8lAAAAGOhU3fzbP+jVFUVgF/TpEmaABPsm1vfpF3aAQAAxkcJAAAwNk7X7md//jAAv6pJmgCTantuK3fXTwMAAIyXEgAAYGy0Szvfn/xNWqUVgF/SBJhUpSp5f/9Z5qfmAwAAjJcSAABgrFxbvJ6jxeMAAPyU1cFqHm0/Sq/VCwAAMF5KAACAsTLoDPLuzrO0604AAP7SnfU72ZrbDAAAMH5KAACAsdIq7Zys3snR4rUA/JymSZqmCTBZ5qfmc2/jbua6cwEAAMZPCQAAMHY2ZjbzaOOtdOtuAH5O0wSYMAcLBzldP01VVQEAAMZPCQAAMHbqqs7J6mm253YDAPAn053pvLXzOKuD1QAAAOOpBAAAGEt7c/u5s3Y33bobAICV6ZU82n4cAABgfJUAAABjqS513t15lqXplQD8V02SpmkCTI6qqvJg80F25rYDAACMrxIAAGBsbc/u5GT5dqpUAfgPTXLWBJggvbqXL258HgAAYLyVAAAAY6tUJV8e/yZ1qQPw3zUBJsfpxml25nYCAACMtxIAAGCsbc1u56P9TwIATKZuq5s/3PvbVFUVAABgvJUAAABj7+PDzzPXmw/AnzVJE2BCPNp6lK3ZrQAAAOOvBAAAGHvrg428u/N+AP6kaZKmCTABptpTeWfvnUx3pgMAAIy/EgAAYOz1Wr082nwrq9NrAfiTJsAkOF4+zvXl49SlDgAAMP5KAACAsVdVVQ4WjnJ/41EAgMnQbXXz1vZb2ZzdDAAAMBlKAACAidBvT+fJ1tvZnt0JADD+dud3c3fjNHWpAwAATIYSAABgYlxbup6bK7fTKq0Ak61pAoyxVmnl5urNHCweBAAAmBwlAADAxOjW3by3+yzzvYUAk6tJ0jRNgPG12F/IBwfP0iqtAAAAk6MEAACYKNcWr+d07V6qVAEAxk9VVbm/+SDXV64HAACYLCUAAMBEaZVWvrn+29SlDgAwfuqqztc3v067tAMAAEyWEgAAYOJszW7no/1PAkyoJmnOmgDj6dH2o1xfPg4AADB5SgAAgIn0yeHnmevOB5g8TZImwDjqtXp5cetFAACAyVQCAABMpLXBRt7dfT8AwPi4vX47h0uHAQAAJlMJAAAwkXqtXh5tPsnq9FoAgNHXa/Xy0eFHmekMAgAATKYSAABgIlVVlYOFw9zfeBRgspydNQHGz531OzlZvZW61AEAACZTCQAAMLH67ek83XonO3N7ASZHkybAeJlqT+Xh1oOsDlYDAABMrhIAAGCi3Vi+lYebj9OtuwEARk+VKkdLR3mw9TB1qQMAAEyuEgAAYKLVpc67O8+yPL0SAGD0TLWn8nj7UbbntgIAAEy2EgAAYOJtz+7k8ebTVFUVYPw1Z02A8bE2s5YPDj5IXdUBAAAmWwkAADDxSlXy+bWv029PBxhvTZOcNQHGRKlK3t19J2uDtQAAAJQAAAD8H4tTi/n6+EXqqg4AMBoGnUF+c/KbVFUVAACAEgAAgH/33t4H2Zs/CAAwGr66+WXmenMBAAD4kxIAAIB/tzS1lA8PPk677gQYX00TYAysz6zn+dHzAAAA/KgEAADg37VKOycrd3K0eC3A+GqaAGPg+dHzrA7WAgAA8KMSAACA/2JjsJn3dz/ITHcmAMBw2p3fzePtR+m2OgEAAPhRCQAAwH9RlzqPNp/kxvJJqqoKMH6apgkwulqllWcHz3K0dJQqVQAAAH5UAgAA8Bfmewt5a/NpBp2ZAOPn7KwJMLr2FvbyaPtROnUnAAAA/1UJAADAT3iw8Si3lk9SpQoAMBy6rW7ub97P0eJhAAAA/lIJAADAT5jpzubr69+mVCUAwHBYnFrM86OP0q7bAQAA+EslAAAAP+Pa0vW8tf12gPFx1jQBRlNVVXl77+3sL+wHAADgp5QAAAD8jLqq87uTP2SuNx9gPJydNQFG00x3Jn979/cpVQkAAMBPKQEAAPgFy/3lfLD3PK3SCgBwdb668WXmenMBAAD4OSUAAAC/oNvq5cn2O9mZ2wsAcDXWZ9bz/Oh5AAAAfkkJAADAL6hSZXduN0+23k631Qsw2s7OmgCj5/nR86wN1gIAAPBLSgAAAH5Fp+7mre23czB/GGC0NU2AEbM7v5vH24/SaXUCAADwS0oAAABewtbMdt7dfZbpziAAwOVolVaeHTzL0dJRqlQBAAD4JSUAAAAv6f3dD3Nt8ThVqgCjqQkwSvYW9vJo+1E6dScAAAC/pgQAAOAlTbWn8vX1b9NpdQKMpuasCTAaeq1eHm8/ytHiYQAAAF5GCQAAwCu4vXqau2sPAgBcrPWZ9Xx6/GnadTsAAAAvowQAAOAV1FWdr69/m0FnJgDAxShVycfXPs7mzGYAAABeVgkAAMArOpg/yOfXvkqrtAKMlv/vrAkw/FYHq/nNrW9SVVUAAABeVgkAAMAr6rZ6eXv7vRwtXgswYpoAQ65dt/O709+l1+oFAADgVZQAAAC8hvWZjby9/V6mO4MAAOfnZPUk7+29GwAAgFdVAgAA8BrapZ3HW2/n+tLNVFUVYPidnTVJmgDDq9fq5dPjTzPTnQkAAMCrKgEAAHhNS/2lvLPzXmY6swGGXxNg2N1Zv5OT1VupSx0AAIBXVQIAAPCaqlR5tvdR7q8/TJUqAMDrWx2s5qsbX2ZjdiMAAACvowQAAOANvbj5fWZ7cwGGW9M0AYZTXeqcrJ3k9trtAAAAvK4SAACAN7Q9u5MP9z8OMNyaswBDaq47m/f338tsbzYAAACvqwQAAOAcfLT/SQ4XrgUYXk2AYVSlyo2VG7m/eT8AAABvogQAAOAcrE6v5dOjL9Iq7QAAL68udf7p4T+l3+4HAADgTZQAAACcg7rUebDxKO/tPkupSoDh0zRNmibAEKmqKl/e+DIHiwcBAAB4UyUAAADnZL63kKfb72Slvxpg+DRNgCGzMbOR397+NgAAAOehBAAA4BzdWD7Jw83H6dSdAAA/r1N38unxp1nuLwcAAOA8lAAAAJyjfrufT46+yNpgI8BwOWuaAMPj+sr1PN15kk6rEwAAgPNQAgAAcM42B1v59OiLlKoOMDyaswBDot/p5/3997I7v5sqVQAAAM5DCQAAwDmrqiqfH32VWyu3AwD8d6Uqub9xP+/vv5+61AEAADgvJQAAABfku1u/y6AzE+DqNU3SpAlw9ean5vPxtedZ7C8GAADgPJUAAABckKPF43yw/zylqgNcraZpAly9qqpyb+NeHm09CgAAwHkrAQAAuCBTram8v/tBDhYOAwAkvVYvvzv9Id1WNwAAAOetBAAA4ALtzO3lvd0PMtXuB7g6TZOkCXDFnh08y/7CfgAAAC5CCQAAwAVqlVae7X2YhxuPU6o6wNU4a5o0Aa7S9uxW/unBP6ZUJQAAABehBAAA4IINOjP5+PCzLPeXAwCTqNfq5cXJi8z15gIAAHBRSgAAAC7BjaVbebrzbkpVAlyRJsAVubl6Mw+2HqRdtwMAAHBRSgAAAC5BXep8dfwiGzNbAS5f0yRNgKswPzWfZwfPsjZYCwAAwEUqAQAAuCQLvYX8/vbfBwAmRalKTlZv5enuk7TrdgAAAC5SCQAAwCU6XbuXTw6/SKlKgMvTNE2SJsDlWh2s5ptbv8ni1GIAAAAuWgkAAMAlmmpP5dneh9ma3Qlwec7OkqYJcIlKVfL+/vt5sHk/AAAAl6EEAADgElWpcrBwmPf3PsxUux8AGFebs5v57vZvAwAAcFlKAAAALlmn7uad7fdyY/lWqqoKcLGaJv9HE+DytEs7P5z+kMX+YgAAAC5LCQAAwBVYnl7Jp4dfZKG3EOBiNWnSNAEu0YOtB3my8yQAAACXqQQAAOAKVKnyaPOtfLD/cepSBwDGxcr0Sr49eZGF3nwAAAAuUwkAAMAV+s3132Z3bj/ABWqSJsBlaNftfHD4Qa6vXE9VVQEAALhMJQAAAFdoujPItzd/yHR7OsDFaJqkaZoAF29/YT8fHDzLoDMIAADAZSsBAAC4YnfX7ufJ9jsBgFE26Azy/OijHCweBAAA4CqUAAAAXLGp9lSeH3ya/fnDAOevSZM0AS7Y5uxmPjr6KK3SCgAAwFUoAQAAuGJVqhwuXstn177KbHc2wPlqmqQJcJH67X7++NYfM9+bDwAAwFUpAQAAGAJ1VeetzSd5uPFWWqUVABglzw6f5e7GaQAAAK5SCQAAwJCY6c7m48PPszK9FuAcNUnTNAEuxvbcVl7cehEAAICrVgIAADBEjhav5YtrX6dUdYDz0aRJ0wS4AL1WL1/f/Drbc1sBAAC4aiUAAABDpFQlH+1/kuvLNwMAw+7B1oO8vft2OnUnAAAAV60EAABgyHRb3fzbo/+Vpf5ygDfTNMnZWYALsD23na9vfJX1mfUAAAAMgxIAAIAhtDq9mhc3vk+31QvwJpo0aQKcr16rl/f2382d9TsBAAAYFiUAAABDqF3aebDxKKerd1OqEuANNAHOUZUqB4sH+fz483Rb3QAAAAyLEgAAgCG13F/JRwefZHV6LcDraZrkrAlwjkop+eH0h2zMbgQAAGCYlAAAAAypUpWcrt3Pk+130q27AV5TE+AcvbP7Tp7svBUAAIBhUwIAADDEOnUn3974PrdW76RKFeDVNQHOy9bsVv7l0T+nXdoBAAAYNiUAAABDbrozyG9v/i6zvbkAr6ZJ0jRNgDfXb/fz29vfZm2wFgAAgGFUAgAAMAJuLt/KV8cvUpc6AHDZSlXyYOtBnuw8SbtuBwAAYBiVAAAAjIiPDj7J482nAV5BkzRNE+DNrAxW8uHhh1meXg4AAMCwKgEAABgRs53ZfHr0RdYG6wFeTpMmTRPgDbTrdp7uPM1b249TqhIAAIBhVQIAADAiqqrKrZXb+er4RfrtfoBfV5oS4M1cW7qW39/9fbqtbgAAAIZZCQAAwAipqzpPtt/Jg43HqUsrwM+rUmWq6QR4ff12P7+780OW+osBAAAYdiUAAAAjZqG3kE+PvsjK9GqAn1clqVMCvL5nB8/y1u5bAQAAGAUlAAAAI+j60s18e+P71FUd4Oe1mzrA6zlevpbv73yXdmkHAABgFJQAAACMoFKVvLf7QR5vPQ3w06pUmUonwKvrt/t5cetFNmc3AwAAMCpKAAAARlSn7uQPp/+YzZmtAD+tpAR4Ne26nS9vfJm3995Oq7QCAAAwKkoAAABG2Ep/Nd/d+pvMdecC/HdVqkw1nQAvr0qV46XjfHzteQadQQAAAEZJCQAAwAhrlVbubzzKe7sfpF13AvynKkk37bRTB3g5g+4gz48+yt7CXgAAAEZNCQAAwIib6czkg/3n2Z8/CPBfVemlnW7VCvDrqqrKg80H+fDww9RVHQAAgFFTAgAAMAa253bzxbVvMt+bD/BnVZNMNZ1UqQL8uun2dP718b9k0B0EAABgFJUAAACMgbqq897us3x08GnqUgdISqpUqQL8uk7dyf/77v+TjZmNAAAAjKoSAACAMfKb67/NjaVbAZKpphPg15Wq5NnB+3m0/SgAAACjrAQAAGCMTHcG+f3tv8/q9Fpg0rXTCvDrDhcP85tbv8l0ZzoAAACjrAQAAGDMHC5ey2fXvkq31Q1Msk7TSkmVduoAP222O5tPjz/NweJBqlQBAAAYZSUAAABjplN38t7uB3m6/W5gkk01nbRS0q3aAf5aqUrubd7Nh4cfpFN3AgAAMOpKAAAAxtBCbyFfXvsmN5dPUlVVYBLVKfmTKlWAv3a4eJB/uP8PmevNBQAAYByUAAAAjKmDhaN8du3LLPQWA5Oon26An9Zv9/P9nR+yt7AXAACAcVECAAAwxh5tPMkH+x+nVCUwaTpNK8BPe3bwLO8fvBcAAIBxUgIAADDGuq1uvjr+JteXbgQmTTt1qlSpUwX4T8dL1/L9ne/SLu0AAACMkxIAAIAxN9udy+/v/EMGnUFgkkw13bRSp59ugD+b683lt3e+y+bsZgAAAMZNCQAAwAS4vnQz/3D3f6TX6gUmQUmVkipVkpIqQNKu2/nq5ld5Z/fttEorAAAA46YEAABgArRKKw83H+fD/Y/TqbuBcTd11k3VBPh3pSq5u3E3z4+eZ6o9FQAAgHFUAgAAMCHmunP5+PDzHC1eS1VVgXFWpySpAvzZ8vRyvrzxZXbmtgMAADCuSgAAACbI9uxOvjp+kfneQmCc9dNJlaRV1Zmq2oFJVld1Pjv+NI+2HgUAAGCclQAAAEyQUpXc33iYz4++Sl3VgXHVblqpUqWkSit1YJIdLh3ku9vfpdfqBgAAYJyVAAAATJh2aee3t36XO6t3U1VVYBy1q1aAZLm/nP/97v/OdGc6AAAA464EAABgAlWp8k/3/2d25vYC46h/1kmVKn9SpUoVmDyDziB/uP+H7C/sBwAAYBKUAAAATKiNwUZ+e/N3WeovB8ZNSZUqf9au6rTTCkySTt3Je/vv5u3dp2nX7QAAAEyCEgAAgAlVl1burz/Mh3sfp9vqBcbJVNNJlSp/0kpJKyUwSQ6XDvPNrW+yOLUYAACASVECAAAwwfrtfj4+/Cx3Vu+mVCUwLlqpA5NqYWoh3568yMHiQaqqCgAAwKQoAQAAmHBL/eX84c4/Zn/+MDAOOk0rpSn5UZUqVarAJGiVVr64/nk+OvwodVUHAABgkpQAAACQnbnd/HDytxl0ZgKjrp1WSqr8qJtWOlUrMAlOVk/yd/f/LgAAAJOoBAAAgP/r0eZb+eTwi9SlDoyyVkpKqvyoqqqUVIFxtzW3lX9+9E/p1J0AAABMohIAAAD+wxfXvsrjzaeBUdZp2qlTApNk0Bnkxa3f5Hj5OAAAAJOqBAAAgP8w31vI19dfZH/+MDCqWimpUuVHU+mkV7UD4+ztvbfz/sGzdOpOAAAAJlUJAAAA/6Gqqlxfupnf3/67rA3WA6NoqumklTo/qlKlpAqMo1KV3N+8lx/ufJ/FqYUAAABMshIAAAD+yr31h/n48LP02/3AqCkpqZrARFgbrOXbk2+zv7AfAACASVcCAADAX6lLnef7n+btnfdTqhIYJd2mlTolP2pXddqpA+OmLnVenLzI4+3HAQAAICkBAADgJ810Z/P9rb/J/vxBYJTUKalS5Uft1GlXrcC4eW//vXx+/fO0SisAAAAkJQAAAPys5f5K/v7uv2bQGQRGQbdppdO0AuNuf2E//3j/H9JvTwUAAIA/KwEAAOAX3Vy+lX++/8fMdGcDw65KSUnJX+qmlTolMA5WB6v5tyf/lu257QAAAPCfSgAAAPhFrdLKg43HeX7waaZaU4Fh1kpJnZK/1EkrdUpg1A26g3x78m1ur52kqqoAAADwn0oAAAD4VTOdmXxy+HnurN1LXerAsGo1dVpNnb9UUgVGXafu5N29d/Lh4QfptroBAADgvysBAADgpaxOr+W7W3+TjZmtwLBqpU4rJX+pV7XTqkpgVFWpsr+wn+9uf5el/lIAAAD4ayUAAAC8tIP5w/zr/X9Lu7QDw6iVknbq/KU6dapUgVHVqlv545M/Zm9+LwAAAPy0EgAAAF5aVVW5s3qav7/7L+nW3cCwqZs6dVPyl0qqVKkCo6hTd/LHx/8zd9dPU1VVAAAA+GklAAAAvLKP9j/Os72P0q47gWHSSZ12WvlLM1U3ndSBUdMqrTw7eJZPjz8NAAAAv6wEAACAV9ZrT+XL429yZ/U0pSqBYVBSpU4dGCe3Vm/lhzvfp9/pBwAAgF9WAgAAwCurUmVjZitfHb/I1uxOYBiUpqTTtPJTelUndUpglGzPbef7O99lZ343VaoAAADwy0oAAAB4LaUqubVykq+Of5PZ7lzgqpVUaTUlP6WdOqUqgVEx3ZnO59c/y8Oth2mVOgAAAPy6EgAAAF5bq7Tz0cEn+er4Rbp1N3CVWqkzlU5+Tid1qsDwq0ud50fP8+LWi3TqTgAAAHg5JQAAALyRKlW+vv4ib++8l1KVwFWpktQp+TmDdFOlCgy7u+un+ZdH/5xuqxsAAABeXgkAAABvrFN38sPJ3+bO2r3AValTp9u083NaqQPDbm9hL//j8f/IoDMIAAAAr6YE/n/24PNZ0/OwD/Pvvp/neevpZXvD9sViKwpBNAKg2CCSaEQHSJAgJXlsyc7IllO+Jt+S/yAfkozjRI7GsUeJ4zhF43gyk/iDSyLbI6rYsk2FEkVSYhNJ7J43URRHoggQu8Ap73vOdV0AAMCmWBut55kLz+XM6rnATigpadLk7QxLLyUlMK3Wxmt5/vJzuWPljgAAAHD7agAAANgUtdScXjmbj5x+IqujtcB2ayc1g0mXt9OUJiUwnfpNPx8686G879j9aWsbAAAAbl8NAAAAm6apTR449nCeOPOJjHtzge3UpKam5O0sZpCSEpg2XdPlsdOP5ZN3fjKjbhgAAADenRoAAAA2VUnJh05/LA8ffzRd7QLboaZkbjLIj9IrbUpKYJqUlJxfP5+nLz6VxcFCAAAAePdqAAAA2HRd7fLMhedz5eD1wHZpJjU/yqj0U0oJTJOV0XJevvZSji4dDQAAAO9NDQAAAFtivj+fZy48lzuWTwW2WknJcNLLj9KlSQlMj652eeX6q7ly8EoAAAB472oAAADYMseX7shzF1/K/rkDga1UknSlzTtZzDAwLZ659Ew+cMcjAQAAYHPUAAAAsGVqqbl84GqevfPFrA7XAlulpGR+Msg76aUN7LS2tvnI2Y/kExc+nmE3DAAAAJujBgAAgC3VlCb3Hbk/Hzr9sYy6cWArlJS0kybvZL4MAzupqU2uHLycJy9+MiujlQAAALB5agAAANhy/aafD536SB4+/mhqqYHNViYlo0k/76RX2sBOKSk5sXwiz156NieWTwQAAIDNVQMAAMC2GHXjPHn+mVzcdzmw2fqTNrdivvQDO2XYDfPClRdy6eClAAAAsPlqAAAA2DbLw5W8duWzOb1yNrCZBunlVnRpAzvlU5eezfuO3pemNAEAAGDz1QAAALCtjiwczUuXX8vhhaMpKYHN0Ju0uRWrZS6w3bqmy49f+PF84s5PpGu6AAAAsDVqAAAA2FallJxfuzPP3Pl8VsfrKSmB92o06edWlJJ0aQLbpa1t7jt6X56965mMe+MAAACwdWoAAADYdrXUXD94Tz5y+omMe+PAezVML7eipGSuDALboZSSk6sn8+TFJ7Nvbl8AAADYWjUAAADsiEE7yCPHH8vDxx9LLU3gvRhOerkVJSXj0g9sh7XRWl66+lLOr59LLTUAAABsrRoAAAB2zEJ/Ic/c+VyuHLgaeC+G6edWlJT00ga2WlvbvHT1pdx9+Hra2gYAAICtVwMAAMCOmuvN5yfu+bM5vXI2tTSB21VS0p+0uRU1JStlHNhK/bafl6+9nI+c/XDa2gYAAIDtUQMAAMCOWxws5bPXv5DTK2dSSgncjsGkS5nklpQkvbSBrdJrevng6cfzyTs/kVJKAAAA2D41AAAA7LiSkuOLd+TJC8/myMKxlFICt2o46aWk5FaUlMzVfmAr1FJz/fD1PHXxqQy7YQAAANheNQAAAEyFpja5tO9KPnn+6Sz2lwK3ajDpJSm5VW2aDNMFNlMpJefWz+X5K8/l8MLhlJQAAACwvWoAAACYGl3T5b7D78+nLr6YtraBW9ErbUpuXZOafukCm2l9vJ6Xr76UM6tnUkoJAAAA268GAACAqdJrenn8jg/lx05+NL2mH3gncxuDlJTcqjZNxmUQ2Czz/fn81P0/metHrqepTQAAANgZNQAAAEydUkqev+vlPHL80XRNF/hRujQpuXVtqRmmC2yGUTfKs5eezf3H7k9JCQAAADunBgAAgKk06Ab52NlP5NqBe9LWNvB2RpN+SkpuVZsmo9ILvFfDbpgPnf1QPnHh4wEAAGDn1QAAADCVSkoOzh3KJ88/k9MrZ1NKCfxp/UmXZlJzO5rU9EsXeC9qqbn/2P15+uJTGXSDAAAAsPNqAAAAmFqllJxYviMvX/lMji4cD/xpbZqUlNyOkmSYLoN0gXejlpprh6/lhSsvZH28npISAAAAdl4NAAAAU60pTc6snM1rVz+bleFq4E8aTnpp0+R2dWnTlSZwu0pKzq2fyxv3fi7Hlo6mlBIAAACmQw0AAAAz4a59l/P6tS9kdbga+De6SZOakts1KF0G6QK369DCofzU/T+ZE8snAgAAwHSpAQAAYGZcPXA9nzz/TJYGy4E/NEiXdlJzu3pp0itt4Hbsn9ufV6+/kjNrZwIAAMD0qQEAAGBmdE2XB49/IB8+/bHM9+YD/XRpUnO7hqWXQbrArZrrzeVTl5/NA8cfCAAAANOpBgAAgJky7sb54MmP5L4jD6RremFv6yZtampuV5OaYemlpgTeyag3ypMXn8yjJx9N13QBAABgOtUAAAAwcxb6C3n1yut57MQH09Q27E29SZvepM27NUovXZrAj9Jv+/nY2Y/mucufyrg3DgAAANOrBgAAgJk0aAd5/q6Xc2n/ldRSw97TpkmbJu/WfBmmK23g7dRS89ipx/Kpy59Kr+kFAACA6VYDAADAzBr35vLpK5/L1QPXw97TpUk3afJuDUuXNjXwdu4+fHdeufZyFgeLAQAAYPrVAAAAMNMOzB3MUxeey5nVc2FvaSdN2jR5t0allzZN4K3cc+SevH7PZ7I6Wg0AAACzoQYAAICZVkrJyeWTef6ul3Ni6WTYO7o06dLk3eqly6j0UgI/6NTqqbxw5fkcXz4eAAAAZkcNAAAAM6+pbS7uu5RPX/1cji4eC3tDN2nTTZq8WyXJfAYpKYE/VEvNmbUz+cJ9n8+d++9MLTUAAADMjhoAAAB2hZKSC+sX8/SF57M+2hd2t5KkS5M2Td6LlTqXmhooKTm8eDifvv5aLh+8nJISAAAAZksNAAAAu8r7jz6YT118MevjfWH3qqnpT7q8VwtlmJoSWB4t5/nLz+XKoSsBAABgNtUAAACw67z/6EP56JmPZ9yNw+7UTpoM0uW9mi+DlJSwt426UV67/loePflo2toGAACA2VQDAADArtM1XT5w/LF87OwnMuxGYfepKekmbd6rLk2WyjDsXW1t8/RdT+eROx5OU5sAAAAwu2oAAADYlca9uXzi3NP55LmnM+7GYXfp0mQ06WUzLJZR2JvmenN55dorefqupzLshgEAAGC21QAAALBr9ZpeHj/54Txw7JF0TRd2j5qaXrpshpU6DnvPsBvmiQtP5OMXfjyjbhQAAABmXw0AAAC72kJ/Ic9dfDEPH380TW3C7tBOagaTLpthtcyHvaUpTR479VieOPexjHvjAAAAsDvUAAAAsOvN9xfy7J0v5AMnPpimtmG2lZQMJ/1slnHpZ5Au7B2PnX4sL119Mfvm9gUAAIDdowYAAIA9YXm4kqcvfCoPHH0ozLaSpEuTzVJTsliGYW94/NTjefXaq1kdrQYAAIDdpQYAAIA9oaRkbbSepy58Kvccui9NbcJsKilZ2Bhls9SU7KuLYXdra5v3Hb0vL119Mfvm1gMAAMDuUwMAAMCecmj+cF689FquHbgntdQwe0pKBqXLZqkpWSqjsHu1tc3VQ1fzyvVXc3jxcAAAANidagAAANhzDi8cyUuXX8vlA1fD7CkpGW70sllKSuZKP720YfeppebKoSt57fqrOb16KgAAAOxeNQAAAOxJh+YP5/mLr+SO5VNhtpRJMpz0spm6tFkog7D7HF06mjfu/VzOrJ0JAAAAu1sNAAAAe9bxpRN58dKrObJwNMyOfrq0abKZ+mmzWEZhd1kdreYn3/cTObF8IgAAAOx+NQAAAOxZtdRc2n8lr1/7Qk4un04tNUy/8aSfzdaVJgtlmBJ2g1pqji0dy1/8wM/m8sHLAQAAYG+oAQAAYE8rKbm471JevPRqTi6fSiklTLe5yTCbrUnNfBmkny7Mtlpq7li5I2/c90YuHbiUWmoAAADYG2oAAADg/3Fp/5W8eOm1HF04HqbbeNLPVhiXfsalH2ZXScmJ5RN57fqruX74WmqpAQAAYO+oAQAAgP/PxX2X8srlz+TowrEwvcaTQbbCKP2MSi/Mrv3z+/PGfZ/L3UfuTlOaAAAAsLfUAAAAwJ9w1/7LeeXKZ3Jk4WiYTuNJP1thWLqM009JCbNndbSaP/fAn82Vg1fSlCYAAADsPTUAAADwJ9RSc/nAtbx+7Qs5vnRHSkqYHoNJl3ZSsxVKSpbLOP20YXaUlBxePJyf/cDP5uqhq6mlBgAAgL2pBgAAAP6UkpLza3fmY2c+nvXx/pSUMB1Gk35KSrbKUh2nX9owG0pK1ufW8+ylZ3Nh/XxqqQEAAGDvqgEAAIC30NQmDx57JM9efCFLg+UwHYaTXkpKtspCGWaUfpgNq+PVvHDlhTx68gPpt/0AAACwt9UAAADA22hrmwePPZznL72Shf5i2HlzGaSkZKv00mSljFNTwnQb98Z57fpreezUoxm0gwAAAEANAAAA/AhNafLA0Yfy4qVXM99fCDtrMOmlZGut1fk0qWF69ZpePn/f5/PoyQ9k0A4CAAAAf6gNAAAAvINe08vDxx9NW7v8V7/8V/O73/lKJpmE7VWSzE0GKSnZSvvqQppS8+bkZpguJSWLw8W8ce/n8sjJR9LVLgAAAPBv1AAAAMAtaGubB44+lGcvvpD18f6UlLC9epMuzaRmqw3SZTmjMF1KStbn1vPpuz+dh+54KF3tAgAAAH9SDQAAANyipjZ58NgjefbiC1kaLIftNZz00qbJdjhUl8P0KCk5MH8gL1x5IY+e/ED6TT8AAADwp7UBAACA29DWNg8eezgbk438F//Hf5ZvfO/3w/YYpJcmNdthf11IboYpsX9+f37y/p/I5YOXM2gHAQAAgLdSAwAAALepKU0eOPpQXrz0aub7C2F7DCdd2tRsh7kyzEIZhJ23OlrNn3vwz+aeI/dk0A4CAAAAb6cNAAAAvAu9ppeHjz+aYTfML/yTn8//9c0vZWOyEbbOaNJPO2myHdrUHK4r+cbN3wo7o5aaI4tH8mfe/1O5dOBSaqkBAACAH6UGAAAA3qW2trn/yIP5zNU3cnL5VEopYWvU1HRpU1KyHWpqDtTFNKlh+9VSc8fKHfn8fW/k0oFLqaUGAAAA3kkNAAAAvEeX9l/Ji5dey7GF42FrDCZdBpMu26Ukmcsg82UQtldJyYnlE3nt+qu5dvhaaqkBAACAW1EDAAAAm+Divkt5+fJncnThWNh83aRJO2mynQbpsl7mw/baP78/b9z3udx95O40pQkAAADcqhoAAADYJHftv5xXrnwmRxaOhs3VS5te2mynfmmzWubTpobtcWL5RH7moZ/OlYNX0pQmAAAAcDtqAAAAYJPUUnP5wLW8fu0LObl8OrXUsDl6ky79SZvtVFKyUAaZK4Owtdra5tqha/nLj/5crhy8klpqAAAA4HbVAAAAwCYqKbm471JevPRqTi6fSiklvDclJYN06dJmuy2WURbLKGydrna5euhqPnvvZ3N8+XhKSgAAAODdqAEAAIAtcGn/lbx46bXcuX5XeG+aSc1g0mUnDEqX1TJOlyZsvlpqLh+6nNeuv5rTq6cCAAAA70UbAAAA2CIX913KqBvlr/3yX80/+vI/CO9OmybDSS87ZV9ZyLD08ubkD8Lmevz043n64tO5Y+VEAAAA4L1qAwAAAFvoxNLJvHDplUwyyT/+8j8Mt69Lk9Gkn52yUueyeHOYb+YPMgmb5fFTj+e1669mfbweAAAA2Aw1AAAAsIVKKTm+dEdeu/K53H3ovjS1CbenmdQM0stOaVJzpK6kSQ3v3aAd5InzT+Sz976e9fF6AAAAYLPUAAAAwBYrKTm8cCQvXXot9x95MF3ThVvXT5vBpMtOOtaspl+68N6Mu1GevPDxfPr6a1kdrQYAAAA2Uw0AAABsk8MLR/KZq2/k4eOPpalNeGc1JaONQXZaL20O1MXw7nWlzSMH3pePn/94FgYLAQAAgM3WBgAAALbRfH8hz975fP7Q3/0X/3NubtwIb6+kZJx+psGJupZfv/k74faNaj9PX3wqP3by8azMrQYAAAC2QhsAAADYZsvDlTx94VNpSs3f/Re/lO/f/F54ayUl85NhpsFKmctyGefrk2+HWzffm8tn7v50Hj31aEa9cQAAAGCrtAEAAIBtVlKyNlrPK1dez+poPf/tF/9mvvm9b4QfVicl40k/06CXNifrev7Bze9kkkn40WqpObJ4OC9fezkPHH8gbW0DAAAAW6kNAAAA7JB+088TZz+RkuQXf+W/zre+/63wg3ppM5r0Mw1qSg7UpYw3vpxvTb4b3l4pJafXTuczd3861w5dCwAAAGyHGgAAANhBXe3ysbOfyJPnP5X18b7wgxY3Rpkm49LPoboUfrTrh6/n9btfz7VD1wIAAADbpQYAAAB2WFe7fPTMj+fZO1/IvvH+8MeGk16mSS9tDpTFDNMLb+2eI/fkc/d8NlcPXQkAAABspxoAAACYAm1t8/6jD+W5u17K/rkD4Y8sTeYyTUqStTKf1ToXflBTmzx68tF8/r43cmL5RAAAAGC7tQEAAIAp0Wt6efDow9k/Ppj/9B/9x/mNr/1aJplkL1uajDJtxqWfQ2UpX8k38r3cCMmoN8rjpx7Py1dfytJwKQAAALATagAAAGCKlFJzZvVsPnf9J3Jq5UxqqdmreunSpck0OliXMl+GIZnvz+eFy8/nC/d9PkvDpQAAAMBOqQEAAIApdHL5dD57/Sdy9eDdqaXJXrS4MUyZlEyjhTLMkbqSJjV72f65/Xn+yvN56q6n0jVdAAAAYCfVAAAAwJS6Y+lkXrjrldx7+H3pmi57zeJklJqSaXWq7ssovexVJ5ZP5NN3fzpP3vnJdLULAAAA7LQaAAAAmFKllBxZOJpXrryeh449ml7Ty14ymvRTUjKtRqWX083+7EWnV0/njfveyEMnHkxb2wAAAMA0aAMAAABTrJaa9dF6Xrv62fSaXv7eb/5SvvPmd7LblZTMT4YpKZlmZ5oD+bWbv51v5rvZC9ra5tqhq/nC+76QwwuHU0oJAAAATIsaAAAAmAHDdpjXr30+T114LvP9hex285NBepM2065Lk3PNwdSU7Hb9tp9H7ngkP/PQn8+RxSMppQQAAACmSRsAAACYIR85/UTa2uR/+o2/ky99419ntxpN+mnTZNrVlByqy/nnG1/JVyffym61PFzOIycfzktXX8pCfyEAAAAwjdoAAADADOk1vXzw5IezNFjOL/yT/zK/9c0vZTcaTfppJ01mwVzp53hdy+/d/E5uZiO7zb65fXn6rqfz6MkPZKG/EAAAAJhWNQAAADBjek0/dx+6L5+/+8/k2NKJJCW7zWjST5uaWdCk5nBdymqZy26zPl7PZ+/5bD5y9sNZHCwGAAAAplkNAAAAzKBe08v59TvzF+7/Szm/diFNabJbDCa9jCb9lJTMiqUyzsm6nkG67AZNbXJy5WT+g4/++3n4jocyaAcBAACAaVcDAAAAM6qk5OD8ofzM+/9irh+6N8N2mN1gkC79dJk1J5r1HKiLKSmZZcNumPcdfV/+vQ/+uzmyeCS11AAAAMAsqAEAAIAZtzRYymtXP5sPnHg8495cZl1/0mUw6TJrujQ53xzKMF1m1eJgIR85+5F84X2fz4H5AwEAAIBZUgMAAAAzrqRkfbQvnzz/TJ48/2wWB0uZZYNJl/6kzSxaLXM51ezLLFofr+e5y8/lucufyv65/SkpAQAAgFlSAwAAALvE8nAlHzr10bx8+TOZ681nFrVpMp70U1Mzi2pKztQDWSiDzJKFwUJ++qGfzsfOPZHl4XIAAABgFtUAAADALjJoB3no2CP5tx74y1kbraeWmlnSm7RZmIwyy0aln/vaU+mnzbTrmi7n1s/lP/r4f5i7D13PsBsEAAAAZlUNAAAA7DK11FxYu5Cfvv9nc+e+S+k1vcyKLk1Gk35mWUmyVuZzoTmULk2m1Xx/Po+fejz/zmP/dg4vHE4pJQAAADDLagAAAGAXKqXm9MqZvHbl9dx7+P70m35mQX/SZTjpZdZ1aXJHXc/hupyakmmzOlrNc5efy2fu/nT2ze0LAAAA7AZtAAAAYJeqpebY4ol86uKLWR/vy3/zK38zNzbezLSqKRlPBmlSsxvMlUHONgfye5Pv5Pcm38m0ODh/MG/c97lcP3w9g3YQAAAA2C1qAAAAYJc7MHcwnzj3dF6+/Fq6ppdpVVKyNBlnN1kvCznbHEibmmlwbv1cfu7Rn8v9x+7PoB0EAAAAdpM2AAAAsAeMulF+7NRHs9Bfyl/75f88v/udr2RjspFpUlOztDHKblJTcrYeyLfqd/MrG1/OzWxku5WUjPvjPH7q8Tx76dmsj9cCAAAAu1EbAAAA2CO62uX9Rx/MfH8+f/2f/rX8+td+NTc2bmRa9Cdt5ifD7DYlJVfa4/nejZv5Fxtfyc1sZLuUUnJ44XCeOP9EPnTmQxn3RgEAAIDdqg0AAADsIbXUXN5/NXO9ufytL/5i/rd//b/m5sbNTIOVjfnsVm1qLjVHcjM38682vpab2ch2uLDvQp6//HyuH76WtrYBAACA3awNAAAA7EEnl0/nhbteydJwOf/9r/6t3Nh4MzttbTKf3WyuDHKxOZLvTt7Mb09+P5Nsnba2eejEQ3nqridzdu1sAAAAYC9oAwAAAHvU+nhfnjz3TMbdXP72r/5ivvG9b2QnrW7MZzcrSZbKKNfa4/n7N34jX518K1thYbCQJ+/8ZD589sNZGa4EAAAA9oo2AAAAsIfN9xfy8XNP5sDcwfz1f/rz+a1vfikbk41st/HGIO2kyW5XU7JW5vNQezZ/78av5GuTb2ez1FJzcuVkXrv7tVw/fC1NaQIAAAB7SRsAAADY47ra5f1HH8zycDl/45/9Qv7J7/xybmy8me20NplPTclesVCGeag9m//9xq/ndyffys1s5L0YdcNcO3wtn7vnczm4cDAAAACwF9UAAAAA/6/za3fm01ffyMMnHk1Tm2yntclCakr2ksUyyvvbMzleV9Olzbu1f35/nrrrqfzMgz+TgwsHAwAAAHtVGwAAAOD/d2j+cJ6/+FIW+gv5H3/tb+fbb347W60/6TLe6KekZK+ZK4NcbY5nlH6+uPHlfD83cqua2uTc2rl88uInc++RezLshgEAAIC9rA0AAADwA5YGy3ny3DNZH+3L3/hnv5Df/c5XspXmJ8N0abMXlSTj0s/F9nBWNsb5Bzd+M9/Kd/NOmtrk0ZOP5rnLz+XQwsG0tQ0AAADsdW0AAACAHzLsRnnsjh/LscXj+Sv/+D/Jr3/9V3Nz42a2wtJklP6kzV7WS5tjdS1r3Xz+/o3fyG9Pfj83cjOT/KCSkuXBUp6/+nyeOP9E2toGAAAA+CM1AAAAwFuqpebM6rn8hff/pTxw9OEM22E2W5smC5NR2jTZ60qScennoe5s7mnuyHpZSJsm/0avtDm/dCo/98jP5uMXPp62tgEAAAD+WBsAAADgR1oeruQzV9/I2mg9/8tv/lK++p3fzWYZT/oZbfTDH+vS5HSzP+t1If9q46v50sbX8/3cyMWF03n62vM5f+hyaqkBAAAAflAbAAAA4B2Ne3P5xLmncmD+UP67X/3F/Obv/fNMJpO8V+NJP+P0ww9bLMPMN4dzuC6n9np58MKHcubIxdTaBAAAAPhhNQAAAMAtGXajvP/og3n96udzcf1yaql5L5rUzG0M05u04a3VlKzU+Vw5ci3nTl9P1/UCAAAAvLUaAAAA4JZ1tcvZtfP58+//i/nwqScyaId5t3qTNkuTcUpKeHuLS2u5594Pp9cbBAAAAHh7NQAAAMBtKSmZ683l5SufzguXXsnB+UOppeZ2jSb9rGzMhbc3HM3n3vs+mq43CAAAAPCjtQEAAADela52+eDJD+fQ/OH8rS/+Yv7ZV34537/5/dyKmpKlyTi9tOGttW0vFy68LyurBwMAAAC8szYAAADAu9bVLnftu5yV4Wp+6Z//D/k7v/a3c2PjzbyTmprVjfnw1kqpOXTkdI4eP59amwAAAADvrAYAAAB4T2qpObJwNE9feD6fvf4TmevN5Z10kyZrG/PhrS0ureX06WsZDucDAAAA3Jo2AAAAwKaY683lAycey+GFI/n5//Ov5Ne++sW8ufFm3srhjdW0acIP6/dHOX36WvbtP5ZSSgAAAIBbUwMAAABsmqY0Obd6Pj9170/nsZM/lrluLn9aTcnhmyvhh5VSc/DQyZw4eSmllAAAAAC3rgYAAADYdPvG+/PCXa/kiRNPZClz+ZMWN0YZT/rhh/UHo5w9f2+6rhcAAADg9tQAAAAAW2LUjfPhcz+ee3sXc3BjOSUlf+jQxkpqavhhp89czerqwQAAAAC3rw0AAACwZcbDhVw+dC2TL/5B5pthvlK+kdWN+dSU8INW1w7l1OmrAQAAAN6dGgAAAGBLnTp1JXNllHM3DuXeG6czPxmGH9T1Brnr0kMZDucDAAAAvDs1AAAAwJaam1/OwUMnU1IymHRpUsMfK6XmyJEzWV45kFJKAAAAgHenBgAAANhSbdvl6LHzaZo2/LDx3GKOHjufwWAcAAAA4N2rAQAAALZUKTUrqwezuLQeflCpNfv3H8/6vmMppQQAAAB492oAAACALTcaLWT//uPhB42G8zly9Fx6vX4AAACA96YGAAAA2HJd18vK2sEMhuPwR2ptcuz4hRw8dDIAAADAe1cDAAAAbIvV1UNZWTkY/kh/MMrps9dSSgkAAADw3tUAAAAA22I0ms/y8r40TRuSQ4dOZW5uOQAAAMDmqAEAAAC2RSk1a+tHMhiMs9d1XS+nz1wLAAAAsHlqAAAAgG2zunYo4/Fi9rp9+09kfmElAAAAwOapAQAAALZNvz/KoSOn0zRt9qqu6+X0matp214AAACAzVMDAAAAbKtDh06l1iZ71dr60SwsrqWUEgAAAGDz1AAAAADbanFpPXPzS9mLmqbNgYMnMhrNBwAAANhcNQAAAMC2O3z4TPai+YXVrK4dTq1NAAAAgM1VAwAAAGy7I0fOZC9aWlrL0tJ6AAAAgM1XAwAAAGy78fxy1vcdzV7S74+yvu9Yuq4fAAAAYPPVAAAAANuubbocPHgye8lgOM76+pEAAAAAW6MGAAAA2Hal1qysHkjb9rIXlFKyuLiW+YWVAAAAAFujBgAAANh2pZSMx0tZXFrPXlBrm4OHTqXWJgAAAMDWqAEAAAB2RH8wzPLyvuwFtWmyb//RAAAAAFunBgAAANgR/f4oK6sH0zRtdrvl5fXMzS0FAAAA2Do1AAAAwI6Zm1vOeG4pu92+/SeSlAAAAABbpwYAAADYMfMLy5mfX85ut2/f0QAAAABbqwYAAADYMYPBXBYWVlObJrtVfzDKwuJaAAAAgK1VAwAAAOyYWmuWltbT6w2yW62sHEjbdgEAAAC2Vg0AAACwo5ZXDqTfH2W3Wl45kFqbAAAAAFurBgAAANhRi0vrGY8Xk5TsNqWUrK4eTK1NAAAAgK1VAwAAAOy4tbXDqU3NbtPrDTMYzqWUEgAAAGBr1QAAAAA7bm39cJraZLeZX1hJrzcIAAAAsPVqAAAAgB23unY4tTbZbZaW1tPvDwMAAABsvRoAAABgx7Vtl9W1w9ltRqP5tG0vAAAAwNarAQAAAKbC/gPHs5u0bZfhaCFN0wYAAADYejUAAADAVNi371h2k8FgnOFwHAAAAGB71AAAAABTYTy3mP5glN1iMBxnMJgLAAAAsD1qAAAAgKlQa5OVlQPZLXq9Yfr9QQAAAIDtUQMAAABMhVqbLK8cyG4xGi1kOFoIAAAAsD1qAAAAgKlQa5PV1UOptWbW1dqk1xuklBIAAABge9QAAAAAU6GUktFoPoPhXGZd1/UzN7cUAAAAYPvUAAAAAFOj1xtkYX4ls65p2/QHowAAAADbpwYAAACYGl1vkPmFlcy6rutlbm4pAAAAwPapAQAAAKZGvz/MwuJ6SimZZU3TpT8YBQAAANg+NQAAAMBUGQ7nMhiMM8t6vUGGw7kAAAAA26cGAAAAmCrD4TiDwTizqpSa4XA+AAAAwPaqAQAAAKbKYDDOYDjOrCqlZDAYBQAAANheNQAAAMBUGY0XMhrNZ1aVUjKeWwoAAACwvWoAAACAqVJrk8XF9fR6g8yiUkqGg3EAAACA7VUDAAAATJ3x3FLarpdZVErNeH4pAAAAwPaqAQAAAKbOcDSXtukyi0opGfRHAQAAALZXDQAAADB1FhZW0+sNMotKKRmO5gMAAABsrxoAAABg6nRdP4PhOKWUzJrReDEAAADA9qsBAAAAptLi4npKqZk1g8E4AAAAwParAQAAAKbS8sr+1FozawaDcQAAAIDtVwMAAABMpaXlfam1yawZjRcCAAAAbL8aAAAAYCqNRgsppWTW9HqDAAAAANuvBgAAAJhKTdNmYWEts2Y8XggAAACw/WoAAACAqbWwuJpZ07ZdAAAAgO1XAwAAAEythcXVzJrReDEAAADA9qsBAAAAptbKyoHMmn5/GAAAAGD71QAAAABTazxezCyptQkAAACwM2oAAACAqdV1/czPL2dWjMeLqaUGAAAA2H41AAAAwNQqtWZufjmzomnapJQAAAAA268GAAAAmFql1IznljIruq6fEgAAAGAn1AAAAABTq9aa+fmVzIq5+aWU2gQAAADYfjUAAADA1CqlZm5+KQAAAADvpAYAAACYWqWU9PujtF0vAAAAAD9KDQAAADDV2rbLcDCXWbC0tJ5aawAAAIDtVwMAAABMta7rZzy3mFlQSg0AAACwM2oAAACAqda2XYbDuQAAAAD8KDUAAADAVGuaNoPBOLOgPxillBIAAABg+9UAAAAAU61texkM5zILBoNxSqkBAAAAtl8NAAAAMNVKKen3h2m7XqZdKTUAAADAzqgBAAAApl6vN0ivGwQAAAB4d9688f1MJpPsZjW72I2bN/L1b3wtAAAAMOu63iC9Xj/TrG17qbUGAAAAptFvf/W38/0b389uVrOLvXnjzfz2134nAAAAMOv6/WF6/VGmWX8wTNN2AQAAgGn0rT/4djY2NrKb1QAAAABTr+t66bpeplktNSUAAADATqmTyeRLAQAAAKbaoD9Kvz8KAAAAwNv4h7WU8lsBAAAAplpt2nS9fkopAQAAAHgLN2oAAACAmTAcjNO2XaZVbdqUUgMAAADsjBoAAABgJgwG4zRNl2k1GIzTtF0AAACAnVEDAAAAzIRef5imaTOtatOklBIAAABgZ9TscpPJJAAAALAb9AejNE0bAAAA4Pbd3LiZSSbZzWp2sRs3b+Tr3/x6AAAAYDcYDsZp2jYAAADA7fuXX/6X+f73v5fdrGYXe/PGm/mdr/9OAAAAYDfoD8Zpmi4AAADA7fvem9/LxmSS3awGAAAAmAlt26XWGgAAAIC3UgMAAADMjPm55ZRSM426tp+mNgEAAAB2Rk3yZgAAAICZ0PX6KaVkGg0GozRtFwAAAGD7TTL5Up1M8o8CAAAAzIS5+ZWUUjKNSikBAAAAdsik/FYNAAAAMDP6/WFKKQEAAAD402p2sRs3b+Rrv/+1AAAAwG4xGs2nlBoAAADg9nz5q1/OmzfezG5Ws4vduHEjX/393w0AAADsFk3bJSUAAADAbfq9b/5ebty8kd2sljL5UnapSSa5ubGRyWQSAAAA2A2WltZTSxMAAADg1m1MNjLJJLtZyeSLdWNSfiu72He//9188zvfDAAAAOwGpdSUUgIAAADcuq9/4+v59h98O7vZRsrv1+xy3/6Db+fr/zd7cBZk12Ef+Pl3ToNYKVKiREuyJEsiLVuRJVu2rHHZM5NJxvE4ectDPHnL27xNUuVKOZOlpvKSuCZjWxpRlj3OiNZK0aRIURJJcUEDbIAAiI1NgliIpdHoBb33vX26771913P+oUeaMs2AJEhs3ef8vq+RIUmSJElSWezY+R4kSZIkSdLVa7ZbdHtdyi5NiAxJkiRJkrRpbN++C0mSJEmSpNdLiCxNYJISa3VarKzVkSRJkiSpLLZt24EkSZIkSbp6K2t1Wp0WZZbAZEqSdCmxbq9LY72JJEmSJEllsev29yJJkiRJkq5eY71Jt9el1JKkm/JTOSVVFAVFkSNJkiRJUlnctmUrG9FtW7czNLQFSZIkSZI2mqLIKYqCEusDkUZEH1iipNrdNllzFUmSJEmSyuL297yXjWjbth0MDW1BkiRJkqSNJmuu0u62KbG5iOilSZL0gTol1el1aK43kCRJkiSpLIaGtiBJkiRJkq5ec71Bp9ehxJpJkuQpkiRJkiRpU9m16w4kSZIkSZLeaAsQwICSWu+skzVXkSRJkiSpLLZt34UkSZIkSbp6iyuLrLXWKK2gAZGnEaxHcI6SanfbrDVXkSRJkiSpLBIShoa2IEmSJEmSrk6n26E/6FNWAVNB0kmRJEmSJEmbSpKm7Np1J5IkSZIkSa+XUgH1xgrN9SaSJEmSJJVFmg4hSZIkSZLeXnO9Sb2xQpklSfQgIg3okDBBibXaLdq9NpIkSZIklUGSJGzbtgNJkiRJkvT22r02rXaLMguS6YBuGpADLUqs3W3T6/eQJEmSJKkMkiRlx647kCRJkiRJb6/X79Hutim5dpDkKclgAFGnxBbri2SNVSRJkiRJKouEBEmSJEmS9PayxiqL9UXKLImYYzDopdnurJeQzFNiq61V1jstJEmSJEkqgyRJ2LZ9B5IkSZIk6e2td1qstlYptSTJspFskPJTDaBGSTXXm7S7bSRJkiRJKoMkSdi58z1IkiRJkqS31+62aa43KbEa0OA1KT/VARqU1NLKEqvNVSRJkiRJkiRJkiRJ1bLaXGVpZYkSawAdXpPymiBaQEZJdftd2r0OEYEkSZIkSZtdkqRs33E7kiRJkiTprUUE7V6Hbr9LiWVBtHhNyt+KZB3IKLGLly+y3llHkiRJkqTNLkkSdmzfxUZTFDkRBZIkSZIkbRTrnXUuXr5IyWVEss5rUl4T0AYalFhzvUFe5EiSJEmSpBuj3W4yGPSRJEmSJGmjyIuc5nqDkmsEtHlNymsCGgE1Smyhvkiv30OSJEmSpDJIkpShLbexkURREBFIkiRJkrRR9Po9FuqLlFlALaDBa1L+VlF0EmhSYrW1Gr1BH0mSJEmSymBoy21s37YTSZIkSZL05jq9DnPLs5RZAk2KosNrUv5WUTSBOiW2UFug1+8iSZIkSVIZJCSkaYokSZIkSXpz/cGA+toKJVejKJq8JuU12UgWwDrQp6Tma/N0e10kSZIkSSqFBJIkQZIkSZIkvblev8tCfYESa0fEWjaSBa9J+TsLQEZJrbXWaHfbSJIkSZJUBkNDW9i6bQeSJEmSJOnNrbXWWGutUWLNJEnq/EzKzwSxDvQosenFywSBJEmSJEmb3VC6ha1btyNJkiRJkq4sIphevEzJrQexxs+k/CeR1IEGJTa/PA+BJEmSJEmSJEmSJKkCalmNklsnkoyfSfk7XWBAiV2YPk8QSJIkSZK06SW8JkGSJEmSJF1ZEFyYPk/JdaBo8jMpP1PANLBMic3XFyCQJEmSJGnTGxrawvbtO5EkSZIkSW8iYL6+QMllBck8P5Pyd9aANiV2YfoCQSBJkiRJ0maXpkPcdts2JEmSJEnSlQXBmUtnKLkWSZ7xMyk/kw0v1yOiDgQlNbM4A4EkSZIkSZIkSZIkqeQ63Q4zizOUWB4RS9nubI2fSXmdJEkuAx1Kar2zzvnp80iSJEmSJEmSJEmSyu3S7CX6gz4l1kuSZI7XSXmdIKaALiV2YfoCkiRJkiRtdkmSkCQJG0m32ybPB0iSJEmStBG8MnaSkmsHMcbrpLxeJNNAlxK7MDWGJEmSJEmb3W23beP229/HRtLttcnzAZIkSZIkbQQXZy5Scj0iWeB1Ul4v4jLQpcROXDiBJEmSJEmSJEmSJKnczoyfoeTaBTHG66S8TpEkk0CHEru8eBlJkiRJkiRJkiRJUnn1+j2mFqYouR5JPsfrpLxONrxcj4g1SmylscLk/BSSJEmSJEmSJEmSpHKaWZqh1W5RZhGxkO3OGrxOyhskSXKGEuv2u0zNTyJJkiRJ0qaXJCRJgiRJkiRJ+vsuTF+g0+tQZkmSXOINUt4giIuUWLfXZWp+CkmSJEmSNrtt23awddsOJEmSJEnS3ze9cJlev0eZBTHOG6S8USRjlFin1+Hc1HkkSZIkSdrs0jQlTVIkSZIkSdLfNzk/SbffpdQiGeMNUt4gYJIS6/f7LNQXkCRJkiRJ11e/26HIcyRJkiRJutUW6gv0+33KLGCSN0h5g4BXKLEiChbriyzUF5AkSZIkSddPt9cmzwdIkiRJknQrLdQXWKwvUkRBmQW8whukvEE2vNyIiFVKbK21ykJ9AUmSJEmSdB1FAIEkSZIkSbfSQn2BtdYqZRYRq9nwcoM3SLmCJElOUmKrrTUW6otIkiRJkiRJkiRJksplob7IamuNMkuS5CRXkHIFQYxRYrWsxsTsJSRJkiRJ2sy2bNnKli1bkSRJkiRJf2di9hK1rEaZBTHGFaRcSXCCEmu1W8wuz9Lr95AkSZIkabO6bes2btu6DUmSJEmS9FO9fo/Z5Vla7RalFpzgClKu7AQlVkTB3PIcWSNDkiRJkiRJkiRJklQOWSNjbnmOIgpK7gRXkHJlMxGxSIldXpxheXUZSZIkSZJ0fayvNxkM+kiSJEmSdKvM1+cZn71EmUXEIjDDFaRcQQKthOQcJXZx5iJzy3NIkiRJkqTrI8/7FEWBJEmSJEm3ytLKEtML05RZQnIugRZXkHIFQdIGLlBiSytLXF6aIc9zJEmSJEmSJEmSJEmbW57nXF6aYWlliTKLhDMFyTpXkHIlRdGGOE/JXZoZZ727jiRJkiRJkiRJkiRpc1vvrnNpZpzSCy5EUaxzBSlXUBRFJ+AS0KPExmcu0e60kSRJkiRJkiRJkiRtbq12izMTr1JyPYhpiqLHFaRcQTaSRZIki8AsJXby4kka7QaSJEmSJOn6iCiQJEmSJOlWaLVbXJi6QMnNJkmykI1kwRWkvIkgloEpSmx6YZrllWUkSZIkSdL1sZotURQ5kiRJkiTdbMvZMtML05TcWAQLvImUNxU14DIld/zsi0QEkiRJkiRJkiRJkqTNKSI4fvZFKmCRpFjlTaS8iYKiDlym5E6PnyYikCRJkiRJkiRJkiRtThHBS+dGqYDLBUWdN5HyJrLdWTfgMtCkxEbPjhIEkiRJkiRtNtu27WTbtp1IkiRJklR1QXDiwglKLgPGs91ZlzeR8pZiGlimxMZnx1ltrCJJkiRJ0mYzlA4xNDTERlJEgSRJkiRJN9tqY5XJ+SlKLgtinreQ8lYipoBlSqwoCl6+cAJJkiRJknTtVrMliqJAkiRJkqSb6eULJyiKgpJbJmKat5DyFopILgM1Su74q8eQJEmSJEmSJEmSJG1OL5w8RAUsFaSTvIWUt5LntYiYB3JKbPTsKJIkSZIkSZIkSZKkzWn07Cgll0fEXDa8XOMtpLyFbCTLE7gIdCixizPjLNQXkCRJkiRJkiRJkiRtLgv1BaYWpim5TgITvI2UtxEkrwItSqyx3uDl8y8jSZIkSZKuTbOZEUWOJEmSJEk3y8vnX6ax3qDkWkHyKm8j5W0UESeAJiXWarcYPTuKJEmSJEm6Nv1el0CSJEmSpJtn9OworXaLkmsWESd4GylvJ8/ngBYl1ul1ODt5lvXuOpIkSZIkSZIkSZKkzaGx3uDMpTN0eh1KrkWez/E2Ut5GNpI1gXFKLCK4vDjDxemLSJIkSZIkSZIkSZI2h7HLF7m8OENEUHLj2UjW5G2kXIUIDlNy87V5zk2dQ5IkSZKkzaLbbdPtrLORtNtNIgokSZIkSboZLl4eY3FlkbKL4DBXIeUqFLCHkltaWeL81AWKKJAkSZIkaTPIiwF5kbORdLvrRASSJEmSJN1oRVFwfuo8SytLlF0Be7gKKVchG14+BqxRYkUUnJ86z9zyHJIkSZIkbQZbtmzl9tvfy9at25EkSZIkqWqmF6Y5PX6GIgpKbi0bXj7GVUi5eocpufNT57m8eBlJkiRJkjaDO+64i89+7h/zuV/7z/nEPZ/lfXd9kC1bbkOSJEmSpCqYr89zafYSFfA8V2kLVyviKEnyzyix6YVpZpZmKaIgTVIkSZIkSdrIkiTlzvd+gDvf+wH6/S6r2RJZtshKfYHFxSkaa3Uigput1Vpl+/ZdSJIkSZJ0oxRRMLM0y/TCNGUXwX6u0hau3n5Krt1tc27iLO3f+mfs2rELSZIkSZI2i9tu28YH7v4o7//Az9PrdWivN8lWl5iZPs/s7EUG/R43S7fTQpIkSZKkG6ndaXNu4iztbpvSS9jHVdrCVYokGQcmEvgEJfbS+ZdZW19j145dSJIkSZK02SRJyrZtO9m2bSd3vvduPvrRT9FuN5mbHWdq6lVWs2XyQY+8KCACSZIkSZI2o6yZ8cKpw5RdwASwxFXawlWLtQSOQfIJSuz4q8dZXlnmw+//MJIkSZIkbWZJkrBly1be8567eM8v38Uv/fJvsrZWY3ryLEtL0zQbGe12k8Ggx/WU5zmSJEmSJN1I9dU6py6eouwS4lhAg6u0hauUFDRJklES/oASW2utcfrSGT5772dJkgRJkiRJksrkjjvez6987h8yGPRYqS+wtDTN0uI0q9ky6+sNIgquVau1hiRJkiRJN0pEcPrSGdZaa5ReJKNJRJOrtIWrlOd5J71ty9kE1oA7KLHDJ1/gn//uH5AkCZIkSZIkldGWLVu5++c+xt0/9zGaH89YXV0mW1lgeWmG2vIs3e4671av10GSJEmSpBslIjh88gUqYC0SzhaDvMNV2sJVykayuOv33j8DyTjweUrs8KkjRASSJEmSJFXB7be/l9tvfy8f+tAn6HyiRbvTZGFugpmZMVbq8xRFjiRJkiRJG0VE8NyLI1TAOMRMNpIFV2kL70BSMEvKWeDzlNj47Djnps7xmU9+BkmSJEmSqmJoaAu7br+TXbffyV3v+xCf+uUv0GquMjl5humps3TaLYpiQFEUvJX2egNJkiRJkm6Uc1PnmF2epQLOJgWzvANbeAfyPF8YSrecBQbAFkqqKAr2HNvLZz75GSRJkiRJqqJ0aIitQ0NsvWs777vrg3zuV/8RiwtTzFy+QG15lnanRbfToigK3qi93kCSJEmSpBtlz7G9RAQlNwDO5nm+wDuQ8g5kI9kg4AKwRMk9c/gZBvkASZIkSZIEQ0O38eGfv5cvfPH3+cf/5L/jN37z9/jUL32BD37w42zbtgNJkiRJkm6GTrfD0y88TQUsBVzIRrIB78AW3qmICyTJHPBhSmx6YYqxy2N8+uOfRpIkSZIk/VSSJOzcdQe/sOsOPvrRT9FsrFCvz1OrzbG8OE22ukSn00KSJEmSpBth7PIY0wvTVMAcERd4h7bwThVxgaFkjpJrrDc5eOIgn/74p5EkSZIkSf9/aTrEHXd+gPfc8X5+/iO/SHu9QaOxwkp9HkmSJEmSboQjp4/QbDepgDmKuMA7lPIOFUWxGhETQI8Sa6w3GHlxH+uddSRJkiRJ0ptLkoStW7dz53vv5iMf/RSf+ezvIEmSJEnS9bbeWWfkxX001huUXCfgTFEUq7xDKe9QNpIFCceBBiUWEUzOT3Jq/BSSJEmSJOnqJEnC0NAWJEmSJEm63k6OnWRi7hIRQcmtQRzLRrLgHUp5NyJGgQYlN1+b59zkeSRJkiRJkiRJkiRJt9aZS2eYXZ6jAlrkcZJ3IeVdKAbFhYiYp+SyRsaJCydYba4iSZIkSZIkSZIkSbo1VpurnL50hkarQdlFxEJRFJO8CynvQjaStUk4RskVUXBy7CST81NIkiRJkiRJkiRJkm6NyfkpTo6dpIiC0ks4lo1kbd6FlHcpgb1AUHJnLp1hYvYSQSBJkiRJkiRJkiRJurkigkuz45y5dIYKiAT28i6lvEt5Pz8AtCm5drfNyxdeprXeQpIkSZIkSZIkSZJ0czXWGxw9fYx2t00FtPN+foB3KeVdykay5YDjVMC+0f3U1+pIkiRJkiRJkiRJkm6urJFx+NRhqiDghWwkW+ZdSrkm8TgVcG7yHBNzE0iSJEmSJEmSJEmSbq6JuQnOTZ6jGuLHXIOUaxEMA6uUXKfX4eiZoxRRIEmSJEmSJEmSJEm6OYoo2De6n06vQwWsEuznGqRci4TFIF6iAn6470fkeY4kSZIkSZIkSZIk6ebI85ynDz9NFQTxEgmLXIOUa5AUZEkke6mAsxNnOTd5DkmSJEmSJEmSJEnSzXFu8hznJs9RAUUSyZ6kIOMapFyD2p7aOgnHgYwKePzA40iSJEmSJEmSJEmSbo7HDzxORdSCOFrbU1vnGqRcq4gp4AQVsOfYXprtJpIkSZIkSZIkSZKkG6vZbrLn2F4q4kwCM1yjlGsUEZPACSpgZnGGo6ePIUmSJEmSJEmSJEm6sZ5/6XmmF6apiBMRMck1SrlGRV40A84AK5Rc1sx46tBTFEWBJEmSJEmSJEmSJOnGKIqCPcf3stZaowJWAs4UedHkGqVco2wkgyiOAGOUXH/Q5+XzL3N28iySJEmSJEmSJEmSpBvj7ORZTpw/QX/QpwLOE8UL2UjGtUq5DoqkGA9iAigoucn5SV48O4okSZIkSZIkSZIk6forioKjZ44xOT9JBRREXCoGxQWug5TrINudrREcB1qUXNbIePHsi9TX6kiSJEmSJEmSJEmSrq/6Wp0XX32RrJFRAa2Al7KRrM11kHKdBMl+IKPkiih4+fzLXJq9hCRJkiRJkiRJkiTp+pqcn+TkxZMUUVABWZDs5zpJuU4CjkfEFBXw6sSrvHh2lF6/hyRJkiRJkiRJkiTp+uj1e7x4dpRXJ16lCiJiKuA410nKdZINLw9IeAIISi7Pc/a/tI+VxgqSJEmSJEmSJEmSpOujvlZn5MXnyPOcCggSfpQNLw+4TlKuoyTYQ0UcOXWUyflJJEmSJEmSJEmSJEnXx8TcJAdfOURVJAVPcx2lXEf5ID8BnKcCVhorDB/dQxEFkiRJkiRJkiRJkqRrU0TB3uN7abVbVMT5PM/PcR2lXEfZSNYjYg8V8cjeRyiKAkmSJEmSJEmSJEnStSmKgkf2PkJ1xOPZSNbjOkq5ziJ4HCiogOmFafa/tB9JkiRJkiRJkiRJ0rXZ/9J+phemqYgiCoa5zlKutzR5NeAMFRARPPjMgxRFgSRJkiRJkiRJkiTp3SmKggefeZCIoAoCzpAmZ7nOUq63iAzYR0Uce/U404vTSJIkSZIkSZIkSZLenenFaY69epwK2UdExnWWcp0VSd6EOAy0qYDV5irPHn4WSZIkSZIkSZIkSdK78+zhZ1ltrlIRbYjDRZI3uc5SrrNsd5YTyRngDBXQarc4cOIgrXYLSZIkSZIkSZIkSdI702q3OHDiIK12i2qIl4l4Jdud5VxnKTdA5PkFggNAUHJFFLwy9gojo/uQJEmSJEmSJEmSJL0zI6P7eGXsFYooqIAgkiORxzg3QMoNsPLcSiMSjgLzVMDs8iwHTxygsd5AkiRJkiRJkiRJknR1GusNDp44wOzyLBVxmYSDK8+tNLkBUm6QJOIQcJYKyPOcg68c4vzkeSRJkiRJkiRJkiRJV+f85HkOvnKIPM+piDEijnODpNwg+SCfJuIloEMFXJi+wJHTR+j0OkiSJEmSJEmSJEmS3lqv32P03EtcmL5ARbQhjuSDfJobJOUGyUaynOAZoE4F9Po9ho/tob5aR5IkSZIkSZIkSZL01mqrNZ498gy9fo+KqBMMZyNZzg2ScmM9FxGXqIgXTr7AyYuniAgkSZIkSZIkSZIkSVcWEZy8eJIDJw5SFRExQbCfGyjlBqrtqfVJ+CYQVEB/0Of+H99Pf9BHkiRJkiRJkiRJknRlRRQ88PT36A/6VESQ8M3anlqfGyjlBivInwBaVMTBEwcZuzyGJEmSJEmSJEmSJOnKJucmGT46TIW0CvInuMFSbrBsdzYfEcNURLff5TtPfRdJkiRJkiRJkiRJ0pV9+yffodvvUhURMZztzua5wVJuivgeFbLn2B6m5qeQJEmSJEmSJEmSJP19C/UFdh/dTbXE97gJUm6CJEmPA6epiIX6Aj/a/yMiAkmSJEmSJEmSJEnSTwXB4weeYHZ5lgo5nSTpcW6ClJsiloDHqYhWu8WzR55lZmkGSZIkSZIkSZIkSdJP1Vfr/OTgT2i0GlREAfFjiCVugpSbIO/n60EcAmpUxNjlixw4cQBJkiRJkiRJkiRJ0k+9cPIw4zPjVMhiBAfyfr7OTZByE2QjWUFwFjhORdSyGodPHaG+VkeSJEmSJEmSJEmSqq6+Vue5F59jvjZPhZwALmQjWcFNkHKTJMFURBwDBlRAEQWHXjnE2YmzSJIkSZIkSZIkSVLVjU2PcfjUYQb5gIroRMTBJJjiJkm5SWp7al0SDgGXqIiJuQn2vbSfVruFJEmSJEmSJEmSJFVVs91iz7E9jE2PUSHTJByr7al1uUlSbqKC/AhwCiiogKIoePqFp5lZmkWSJEmSJEmSJEmSquri5TEe3vN98iKnIgrgVEF+lJso5SbKdmf1IPYDDSri9Phpdh95liIKJEmSJEmSJEmSJKlqiqLgyYM/YXphmgppBLE/253VuYlSbrIoimGgToX89ePfIFvLkCRJkiRJkiRJkqSqyRoZj+59lIqpR1EMc5Ol3GSRx3kiDlEhk/OTfH/vI0iSJEmSJEmSJElS1Xx/7yNMzk9SKRGHIo/z3GQpN1k2kvVIeBTIqZBvPvFNFuqLSJIkSZIkSZIkSVJVLNQX+eYT36RichIezUayHjdZyi1Q2117LCJOUyHz9XmeeP5xiiiQJEmSJEmSJEmSpLIrouCJ5x9nvj5PlUTE6dru2mPcAim3THI/FdJcb/LkoSeZWZxBkiRJkiRJkiRJkspuZnGGJw89SXO9SbUk93OLpNwy8TQwRkVEBKcunmb42B7yIkeSJEmSJEmSJEmSymxkdB+nLp4mIqiQMYinuUVSbpEgmQ94kgpZaawwfHSY6flpJEmSJEmSJEmSJKmsFuoLHDxxgJXGClUS8GSQzHOLpNwiAQ3gKWCOiogIDpw4wAunDjPIB0iSJEmSJEmSJElS2UQEL54d5bkXR4gIKmQOeCqgwS2Scotkw8uREK8Ae4CgIlrtFg/tfojZpVkkSZIkSZIkSZIkqWyWsiW+v+f71FZrVEgAuxPiRDa8HNwiKbdQ3s8XI+IgsEKFHDl9hKNnjhIRSJIkSZIkSZIkSVJZRAQvn3+Zvcf3UjErEbG/trs2zy2UcgtlI1kOMQK8SoX0B32++9QD5EWOJEmSJEmSJEmSJJVFXuT8hx99nVa7RcW8CnGQWyzlFisGxRgR+4B1KuTomaMcOXUESZIkSZIkSZIkSSqLI6eOcPDEQSpmnYh9xaAY4xZLucWykWxA8DiwRIX0+j2+8tB9DPIBkiRJkiRJkiRJkrTZDfIBX3noPnr9HhUzX5A8nI1kA26xlA2gtqd2OCIOUDEvnX+JJw48gSRJkiRJkiRJkiRtZkUUPP7847x0/iWqJiJeWBlePsEGkLJhxF8BPSpkrbnGD0Yeo75WR5IkSZIkSZIkSZI2q5nFGR7a/TBrzTUqpgfxV2wQKRtEMSiOBPEKFZIXOS+de4l9o/uQJEmSJEmSJEmSpM0oL3KGj+1h9NwoeZFTJUG8UgyKI2wQKRtENpL1gG9QMQv1BZ48+BNmlmaQJEmSJEmSJEmSpM1men6a4aPDrDRWqJzga9lI1mODSNlAEngGOEOFFEXB8LFhnn/5eQb5AEmSJEmSJEmSJEnaLAb5gMOnDnPgxAEigoo5kyTJPjaQlI1lAeIHwIAKaa43+ZtnH2J6YRpJkiRJkiRJkiRJ2ixml2b5m90P0Wq3qJgBxA8glthAUjaQ2u5aM4JngEkq5sjpIzz1wtMUUSBJkiRJkiRJkiRJG10RBftG93Hk9BGqJ8YjeKq2u9ZkA0nZaIJzEbEXyKmQ/qDP/T++n/naPJIkSZIkSZIkSZK00a2srfC1R/+C/qBPxeQR7CXiHBtMygZT5Pky8BNgioqZnJvkG49/A0mSJEmSJEmSJEna6B7Z+yhj02NU0BTwTJEXdTaYlA0mG8kiitgTEYeAnIp59LkfcHr8NJIkSZIkSZIkSZK0Uc0tz/GNJ75BBQ0i4lAUsScbyYINJmUDWtlbb5DwMLBExcwszfCVh+6j1WkhSZIkSZIkSZIkSRtNt9flKw/dx9T8FBW0CMm3V/bWG2xAKRtU0c+fA16mYvI858WzL7JvdB9FUSBJkiRJkiRJkiRJG8mR00cZGR2h1+9RQa8Ug8ELbFApG1Q2kjUiivuAgoqZWZzhx/sfZ742jyRJkiRJkiRJkiRtFEvZEo8+9ygTsxNUUBFR3JeNZA02qJQNrBgUe4FDVMwgHzAyOsLouVGKokCSJEmSJEmSJEmSbrWiKDh6+ii7j+xmkA+ooEPFoNjLBpaygWUjWTco/hwoqJjaao2/fvwbzC7PIkmSJEmSJEmSJEm32nx9ngee+R5L2RIVVETE/5ONZF02sJQNLiF9HjhAxUQE+1/az97jz1FEgSRJkiRJkiRJkiTdKkUUPHv4WZ49/CwRQQUdSJJklA0uZYPLg+WA7wINKugvHv0LFuuLSJIkSZIkSZIkSdKtslBf5CsP3UdFNQK+mwfLbHApG1w2vNxLgoPAi1TQ2PQYDw8/jCRJkiRJkiRJkiTdKvf/6OtML0xTUYeB/dnwco8NLmUziLgYEXuBDhX0N7sf4uTFk0iSJEmSJEmSJEnSzXb81eM8+twPqKhOROwrgktsAimbQG1PrZsk/AQ4SQWNz4zzl4/8Ja1OC0mSJEmSJEmSJEm6WVqdFl//0f3MLc9RUSeThKez4eUem8AQm0R7vD23454dH0mS5IvAViqkiILaWp0Pv/9DfPoTnyZNUyRJkiRJkiRJkiTpRiqKgh/t/zHfeeo7rLXWqKBWRHyrPlx7kE0iZRNJEr4HTFNB87V5Ht7zfS7NXkKSJEmSJEmSJEmSbrTphWl+OPJD5mvzVNR4kvA9NpGUTaS2u3Y+InYDQQUdPX2UH+//Ma12C0mSJEmSJEmSJEm6UTq9Ds8cfoZDJw9RUfGaZ2u7a+fZRFI2m+BrEbFOBbW7bR545nucHj9NEEiSJEmSJEmSJEnSjTA2Pcb9j/81zfUmVRQRywT/gU0mZZMp8vx8kvCnQFBB0wvTfOnBL9PtdZEkSZIkSZIkSZKk663X7/FXj/0V4zPjVFQkCV8r8vw8m8wQm0xnosOOe3aOA/9NkiQfoILGZ8b52M99jM/d+zmSJEGSJEmSJEmSJEmSrpfH9v2Qf/Otf0NVRcQ54H9e2buyyiaTsgklCUtJwjeAHhX1Vz/8fxm7PIYkSZIkSZIkSZIkXS8TcxN85aGvUGG9JOEbScISm9AQm1B7vD3Yfs/OjCT5fAIfp4Ia6w2iKPitz/4W227bhiRJkiRJkiRJkiRdi3a3zb978Cs89+Jz5HlOFQUciuDL9eHaLJtQyiYVJBcSeBTIqKBur8vTh5/h+ZefR5IkSZIkSZIkSZKu1b7R/Tz9wlN0e10qKkvg0SC5wCY1xCbVGV/Pt9+zs54kfBH4OJBQMc12k7VWg89/6vPcdeddSJIkSZIkSZIkSdK7MTE3wX0PfZXRc6NEBBUUwJEi+FI2vLzEJpWyia0ML18AHgFWqaCiKNg3uo8nDj5Ju9tGkiRJkiRJkiRJkt6pdrfNj/c/zu6juymKgorKgIdXhpcvsImlbHJ58BhwjIrqD/p868lvceLCK0QEkiRJkiRJkiRJknS1IoKTYyf57tPfpT/oU2FHcwYPs8mlbHLZ8PJsRPFloKCiphem+fc/+PfkRY4kSZIkSZIkSZIkXa28yPmLR/+S8ZlxKqyIKL6S7c5qbHIpJVAMir3AISps95Hd/OTgU0iSJEmSJEmSJEnS1frJwafYfWQ3FXeoGBR7KYEhSqAz0cl33LNjKUmSPwCGqKC8yDlz6Qy/+8V/yvve8z4kSZIkSZIkSZIk6a1cmr3EH375D1lcWaTC+hHxP63sXXmVEkgpjeRABPcDBRU1MTfBnz3wJdZaa0iSJEmSJEmSJEnSm1lrrfFnD3yJibkJKqyI4H5IDlASKSVRDAZrEI8Bl6mo/qDP3uN7eWTvo3S6HSRJkiRJkiRJkiTpjXr9Ho+NPMbe43vpD/pU2GWIx4rBYI2SGKIkOhOd2PHJnWvAx5Mk+TyQUkGtTov52jyfvfdX+Pm7f54kSZAkSZIkSZIkSZKkv1VEwejZUb784L/j4sxFKiyPiEcIHlh5bqVFSaSUSJHny8BPgCkq7NWJV3ngme9RX6sjSZIkSZIkSZIkSf9Jfa3Od57+LqcunqLixiF+WOT5MiUyRIl0JjrsuGfXJYh7kyT5NWCICiqi4ML0BX7uvXfz67/866RJiiRJkiRJkiRJkqRqK4qCH4w8xlcf/ir9QZ8K60XE94G/XNm7klMiQ5RMe3w93/nJnZdIkv8C+CAVlec5L5x8gd/7rd/jg3d9EEmSJEmSJEmSJEnVdvLiSf7ln/xLmutNKu50Evyr+p76AiUzRAm1L7WXd967cwj4r4GEihrkA6bmp/idX/0d7th1B5IkSZIkSZIkSZKqaTlb5l/9+f/KmUtnqLgC+L9qw7WfUEIpJZX3B98CjlNxh08d4VtPfpt2t40kSZIkSZIkSZKk6hkMBjzw9AMcOX0EcSDvD75FSQ1RUp2JTm/HPTtqSZL8t8AWKirPc+br89zzkXv5xY/9IpIkSZIkSZIkSZKqZf9L+7nv4ftYqC1Qcd2I+MOVvSunKKkhSmznPTsXSZK7gd8AEipqrbXGUrbE537xc9z9vruRJEmSJEmSJEmSVA0Xpi/wpw/8GaNnRymioMIK4JsJfKM93m5TUkOUWHu83d5x786lBP4R8AEqKiKYnJ9ky5bb+OJ/9pts37odSZIkSZIkSZIkSeXWXG/yzSe+yUPDDzPIB1TcK8D/WRuuXaTEUkquCE4HPAg0qLhH9j7CnmN7KKJAkiRJkiRJkiRJUnlFBCOjI3z36QfoD/pUXCPgB3lwjpIbouQ64+u9HffsmAd+PUmSTwAJFdXpdjg7eY7/6ou/y/ve8z4kSZIkSZIkSZIkldPE3AR/dN//wsTcBBUXrzkI/NuV4dosJTdEBWz7hW0rSTq0K0n4HWAHFVZfq9NsN/mnv/lfsmVoC5IkSZIkSZIkSZLKpdPr8L997X/n+ZefR9QhvlQMir2diU5QckNUQGeiEzvu2Xka4h8mSXIvkFBh0wvT7Ny2gy98+gskSYIkSZIkSZIkSZKkcsiLnD9/+M958Nm/oTfoUXHxmn3Av17Zu9KnAoaoiPb4en/bPbtG04T/AdhGhXV7Xabmp/jkRz7Bxz/0cdI0RZIkSZIkSZIkSdLm1h/0+dH+H/PVh7/K8uoyIitI/vuV4docFTFEhXTG15d33rvzo8A/oOJWGiss1Bf4tU/9Gne/926SJEGSJEmSJEmSJEnS5hQRnLx4kj/57p9wduIsek3E11aGa9+jQoaomB2f3DGeJMk/Aj5Exc3X5lnvtPjir3yRXdt3IUmSJEmSJEmSJGlzWl5d5s8e+BJ7j+0lIhAvR/B/tC+1l6mQISpmxz07G7wmSZJ/AmylwvIi59LMJXbtuJ0vfuaLpEmKJEmSJEmSJEmSpM0lL3K+/qP7+faT36bb7yJaEfFvgb3tS+2cCkmpmCLPu0nC08AeIKi4VqfFlx/8MkdOHyUikCRJkiRJkiRJkrR5BMGR00f58oNfptVpIQLYkyQ8XeR5l4oZomI6Ex3a4+2VnffubAL/AHgfkFBh/UGfF06+wO987rf54F0fRJIkSZIkSZIkSdLmMH55nH/xx/+CxfoiIoCLwB/XdteOdCY6VM0QFbXtF7ZeTtLk7iRJfgPYSsU1203m6/P85qe/wJ2334kkSZIkSZIkSZKkjW2+Ns///Y0/5tiZYxRFgWhFxNeLQf6dzkSnTwUNUVGdiU5/xz27pkn47QQ+RsUVUTBfm+dv/eov/io7tu1AkiRJkiRJkiRJ0sbUbDf51pPf5qHhh1jvrCMIOA7xr1f2rixRUUNUWHt8vbb93h2LCck/B1IqrtfvMTU/xUd+7qP80i/8EkNDQ0iSJEmSJEmSJEnaWIqiYGR0hD994M9YXFlE/1EexP+4Mlw/QoUNUXHb7912KYn0Q0nCF4CEimt1WoxNj/GFT3+BD3/gwyRJgiRJkiRJkiRJkqSN49zkOf7ovj/i0uwl9B8VEXw9kvyrnfFOQYUNUXGd8U6x454dJ4DfS5Lkg4jaao2TY6/w+7/9+9y+83YkSZIkSf8fe3ACH3d5GHj/98zoGskysmx84AtbPoBgzkACSYEUSDfdbj/b7vZ92337vtvdbd/NZ9vu283ZpGnSpg25SJNA7kACSQhHCE1aCAHZxhwOGGxj4/vQSLYs27Kl0eickTTzf96G3c0u5Yhv6/h9v5IkSZIkjQ2Huw/zx7f+CZt2b0b/XYT1BP5LT3MuzySXRlQvriuGEPoDXAvUITpznRSGC1x90dXUVNcgSZIkSZIkSZIk6ezK9+f59Hc+zcPPPIJ+4QhwSxJZV8wOlZnk0ohidqicWZw5DMwJIawA0oi97XuZWjeVy5ddTiqVQpIkSZIkSZIkSdLZURgucNfDd3PHj+9kpDSCXjYSY7wP+GbPyu4+RBq9rHpB9RCp1JEQwpuB8xCjpVGyB7MsmD2fZQuWIUmSJEmSJEmSJOnMK5VLPPzMI9z2wG105bvQL2yK8IlYKu8uthURpNHLim1FahbXdaaIUwnhaqAG0T/Yz77D+7jw/AuZM2MOIQQkSZIkSZIkSZIknRkxRtZtXccn7/4kLQdaiET0sp5I/GIk/EN+dS5BL0ujXyhmh5LqBdUbQipcEkK4CAhMcpHIoa5DdPflWLFkBY3nNBIISJIkSZIkSZIkSTq9Yoxsy27jr+/8OBt2biAS0cviP3k4KZU/kl+dG0G/kEavUGwrlmoX1W4lhH8NTEUv29u+l76BXq5ZcQ21NbVIkiRJkiRJkiRJOr1yfTn++o6Ps+qFVegVOkLkP/U80XMYvUIavUqhtdCVWZypDCFcD6TRy/a07yGJkWtXXEM6nUaSJEmSJEmSJEnS6TEyOsKXH/wy9/z0HpIkQb8wQox/3b2q+2H0Kmn0mmoWZdqBN4UQlqKXJUnC7v27qcvUsaJpBel0GkmSJEmSJEmSJEmn3n3N93H7/V+if6gf/S8xxseJ8VOF1kI/epU0ek21TZn+EFJHgLcD09DLhkeH2dG2g+nnzOBNiy4ihIAkSZIkSZIkSZKkUyNJEh599lE+893P0nG0A71CawjhIxBfKmQLEb1KGr2mQrYQqxdUdYRU+Lm3ADXoZf1D/exo28G8mfNYfN5iUqkUkiRJkiRJkiRJkk5OqVziqU1P84lvf4Jd+3ahV+iNMX4uKZV/0LO6ZxS9pjR6XcW2YimzOHM4BBZDWAKk0cvy/XkOHGlnyfwlzJs5jxACkiRJkiRJkiRJkk5MjJGtLVu55a5b2LhzI3qFEYiPQry9Z3XPUfS60ugNFbKFntrFtR0R3hFCmI5+4WDXIdo727n+iuupr61HkiRJkiRJkiRJ0ok51H2Ij33jr1iz8Un0SjHGbIA/z63MvYTeUBr9UtULqg+SSuVDCL8JpNAvdHQdpLP7MNddfh01VTVIkiRJkiRJkiRJOj69A7185Ksf4dFnHyXGiF6hHOG9San8aLGtGNEbSqNfqthWjDWL63aEEJsCYQUQ0MtijOw7vI/hkSJXXXQVVZVVSJIkSZIkSZIkSTo2g4VBbv3+5/jBqgcZGR1BrxAj8d5I+ER+da6Efqk0OibF7FA501T3HPC2AOcBAb1stDTKzn27CAQuWXopVZVVSJIkSZIkSZIkSXpjA4VBbrv/i9zx4zsYKg6hV0giPA/hj3pWduXRMUmjY1bdVFUg0hUCb4EwDf3C8OgwLR0tzGiYwbIFy6hIVyBJkiRJkiRJkiTptQ0Vh7iv+X7u+PEd9PT1oH8utsUYPxZD+cVitpigY5JGx6yYLSa1izOHQ0hNBS4HqtAvDAwNkO3IMn/WfJrmNRFCQJIkSZIkSZIkSdIrJTHhsece49Pf/QwdRzvQq/QS+QZwb8/KniF0zNLouBSyhWJmcSYLrAghNAEB/UJ3bze79u3mHVe+g2n105AkSZIkSZIkSZL0Sht3beQDX/og+w7tQ6+SxBhXE+Pf5lblOtFxSaPjVr2gujcVUgcI4QZgGnqFrt4uNu3ZzDWXXEPDlAZCCEiSJEmSJEmSJEmTXYyR1kOtvOfz72V763b0mloi4f+L5fKOYlsRHZ80Om7FtiKF1sK+TFMmHwg3A1XoFQ52HWTT7k1c3HQx5zacSyqVQpIkSZIkSZIkSZqskiRhS8sW3vOF97Jh5wb0mgYj8QM9K7sfLbYV0fFLoxNWvaB6V0inmgJcil6ls7uT1oOtLJ2/hFmNs0ilUkiSJEmSJEmSJEmTTYyRlo4Wbrnrk6zdvJYkJuhVShHuzzV3fxydsDQ6YcW2YinTVLM3EK4C5qJXiDFy4MgBjuaP8uYLr6ShvgFJkiRJkiRJkiRpsjlw5ACf/d6tPL7ucUZKI+jVYozPReKHitnCUXTC0uikZBZnekKgF8KvAFPQK8QYOXDkAB1HO3jHle+guqoaSZIkSZIkSZIkabLoG+zjQ1/+ED9Z+xOKI0X0mtoDfBxYW8gWEnTC0uikFLKFJLOotg2oDSG8BahAr1Aql2g50MK+Q/u47vLrqKmqQZIkSZIkSZIkSZroegd6ef9t7+fhZx5hpDSCXtNwjPErJPHbuVW5IjopaXTSCq2FkdpFtXsJYRGwDEihV0hiwp4De2ntaOWK5ZcztW4qIQQkSZIkSZIkSZKkiejg0YN86Csf5h/XPkypXEKvaRT4cYh8Krc614VOWhqdEoXWQm+mKXMgEK4E5qBXSZKEfYf20T/Uz2XLLmVK7RQkSZIkSZIkSZKkieZovovbH7idH635EcMjw+h1vRgjH86t6t6BTok0OmUK2UJ7bVNtJ/BrQAa9Sqlc4sCRAyRJwiVLVlBTXYMkSZIkSZIkSZI0UeT783ztoa9x7+P30jvYi15XD/De3MquJ9Apk0anVPWCqpaQDjEQbkKvqTBcYOe+nRRHirzt0reRSqWQJEmSJEmSJEmSxrtSucSt99zK3Y/cTU9fD3p9kfjxZLR8d7GtmKBTJo1OqWJbMck01e4KhEbgMiCgVymOFHlp7xZK5VHeevFbSaVSSJIkSZIkSZIkSeNVqVzi1ntu5WsPfZ2BoQH0uhLgW8Bne1b3DKBTKo1OuUK2MJRpyuwJhGXA+UAKvUqpXOLFXZsojhS54oIrqKqsQpIkSZIkSZIkSRpvBgoD3HrP5/jqD79GYbiAXlcZWBmJH801d+9Hp1wanRbVC6p7QiocJYTLA5wLBPQqpXKJtkNtTK2bytL5S6mqrEKSJEmSJEmSJEkaLwaGBnhg1QN880d3kO/Po9cVI2wHPpZr7n4enRZpdFoU24qxekF1e0iF0RDCNUAtek0DhQF2t++hLlPHsgXLqKqsQpIkSZIkSZIkSRrrBguDPLDqB3z5wa/QcaQDvaGuGOMnYqn8cLGtWEanRRqdNsW2Yrl2Ue2eSJgaAm8FAnpNvQO9bGnZwkBhgGsvuZZUKoUkSZIkSZIkSZI0VpXKJW6953N880ffpONIB3pDSYx8NRK+kl+dK6DTJo1Oq0JrYTizuPa5QLyaEBYBAb2mgcIAm/dsplQe5a0Xv5VUKoUkSZIkSZIkSZI01pTKJW6951a++sOvke/PozcUiXE1hD/uWdk1gE6rNDrtCtmhkZpFmXXAdSGEmUBAr6lULvHirk0MFQe5dOml1FTXIEmSJEmSJEmSJI0V+f48t95zK1976OsUhgvoDSUxxi0xxv/Qs6r7EDrt0uiMqFlS3RsIHSGEq4BG9LpK5RK79u9mtFTiwkUXUldTiyRJkiRJkiRJknS2Hc138bWHvsbdj9zNwNAA+qVaIH44ppLni9ligk67NDojitliUttUewiogHAFkEGvqzhSZE/7HgrDBZafv5z62nokSZIkSZIkSZKks+Xg0YPc/sDt3Pv4vfT09aBf6ijE20IIP+xp7imgMyKNzphCtjCcaardA2FBgIuANHpdheECO/ftYN+hfVx/+fXUVNUgSZIkSZIkSZIknWm9A7186Csf5kdrfkTvYC/6pUYi/BD4bK65uwedMWl0RhWyhcGaRTUvAW8LIcxDb2h4dIS9B/ay/9A+rr/ieqqrqpEkSZIkSZIkSZLOlL7BPt5/2/v5x7UPMzwyjH65GOPzMfLunpXdneiMSqMzrtha6Kluqm5OkfrXQAN6Q0mSsKd9L9mOLFcsv4KpdVMJISBJkiRJkiRJkiSdLjFGDhw5wIe+/CEefuYRSuUSOiZtSSj/q/zKngPojEujs6KYLfbWNmX2QXgLMA29oSQm7Du0j6P5o1y06EIa6hsIISBJkiRJkiRJkiSdakmS0NLRwme/dys/WfsTRkoj6Ji0QnxPT3PPOnRWpNFZk1lc10ZgMMDlwFT0hkrlEtmOLO2d7TTNa2LmtJmEEJAkSZIkSZIkSZJOlRgjW1q2cMtdn+TxdY9THCmiY9IR4ZPE8GAhO1RCZ0UanTWF7FAps7gmSwj1AS4DqtAbKpVLtBxoYVt2G9deei3T6qchSZIkSZIkSZIknSqth1p5zxfey9rNaxkpjaBjMhDhaxC/kVvZPYjOmjQ6q6oXVBcJYRNwXgjhIqACvaEYI4e6DrFx50YuWnQhs6fPJoSAJEmSJEmSJEmSdKKSmLBx10be8/n3smHnBpKYoGNSiHBXTOKnelZ296CzKo3OqmJbkWJrYai6qfqFEMPSEMIFQEC/1KGuQ/zspZ9x3rlzmT9rPpUVlUiSJEmSJEmSJEnHa6g4xGPPPcYHvvRBtrduR8cs/pMfJaH84fzKniPorEujMaGYLQ5UL657IRW4FpiLjklPfw8v7X2Jupo6lsxfQlVlFZIkSZIkSZIkSdKxGigMcl/z/Xzmu5+l7VAbOi4vJKH87/PN+cNoTEijMaOYHcrXNmVaIFwNnIuOSU9/D1tatlAqlbh06aVUVVYhSZIkSZIkSZIk/TKDhUFuu/+L3PHjO+g42oGOy2aI7+tp7tmKxow0GlMyTbUHgSOBcDnQiI7JwNAAL+19iaHiENdc/FYq0hVIkiRJkiRJkiRJr6d3oJdbv/857vjxHfT09aDj0hLho8TQXMgOJWjMSKMxpZAtlGsWZVoJIRXgSiCDjsnw6DBbW7bScqCFKy64gimZKYQQkCRJkiRJkiRJkv6nGCOHug/xka9+hB+sepCh4hA6LrkIX4xJcm/Pqu4iGlPSaMwpthZGqxdUrQ+pUBFCuAKoQcdktDTKrv272Nu+l6XzlzCjYQapVApJkiRJkiRJkiSpVC6xtWUrH/vGX/Hos48yMjqCjktvjPHzSan8ufwTPUU05qTRmFRsK5arm6q3hRgaQwhvBgI6JjFGWjpa2HtgD+edO5eFsxcQQkCSJEmSJEmSJEmTV5IkPLXpaW656xbWbHySGCM6LkmM8c4klD+bX50fQGNSGo1ZxWyxUL247sVU4AJgOTou7Z0H2N66ndnTZ7F0/lIkSZIkSZIkSZI0eT367KN84tufYOPOjeiEPJwQPpBfmTuKxqw0GtOK2aGB2qbMTgiXA3PRcTnac5SX9m6htjrDBQsvIJ1OI0mSJEmSJEmSpMljZHSE+5rv4zPf/Sy79u1CJ+R5iO/rWdm9F41paTTmZZpqjwJ7AuFSYBYQ0DHL9+dZv2MDhZEhLjz/QjLVGUIISJIkSZIkSZIkaeKKMZLry/HlB7/M7fd/iY6jHei4RWBzJL4feL6QLUQ0pqXRmFfIFmIhW2jLNGV2BMIlwGwgoGM2VBzihe3ryR5sZfHcxcycNpMQApIkSZIkSZIkSZp4Yoxsy27jr+/4OPf89B76h/rRcUuAjZH4Z7nm7icL2UJEY14ajRvVC6oPhnRqIMAlwHR0XJIkYff+3Wxt2caC2QuZN3MuqVQKSZIkSZIkSZIkTRylcol1W9fx8Tv/hpUvrCRJEnRC9ka4Jdfc/RM0bqTRuFFsKybVC6p2hHTqcIC3AfXouB3qOsSm3ZtoqG9gwewFVFdWI0mSJEmSJEmSpPGvMFzg4Wce4ZN3f5INOzegE3YowgeT0dJDxbZigsaNNBpXim3FpHpB1a6QDuVAuAGoQMetp6+HzXs2M1IaZdmCZdTW1CJJkiRJkiRJkqTxK9+f566H7+a2B26j5UALkYhOyHAk/k0yWr4rvyZfQuNKGo07xbZiUtNUs51IIYRwDVCJjksk0j/Yz4u7XuRw92EuXXoJ9bX1hBCQJEmSJEmSJEnS+HK4+zCf/u5nuOPHd9CV7yIS0QkZijH52xji1/Or8wU07qTRuFTMFoerm6pfTBESCFcDVei4jZZG2dqylWdf+hkXN13MjIYZpNNpJEmSJEmSJEmSNPYlScKufbv441v/hIefeZiR0gg6YfkYk1uSkNyeb873o3EpjcatYrY4UttUm4UwBXgTUIVOSGeuk+e3P8+0qY0snLOAqsoqJEmSJEmSJEmSNHYVhgus2fgk77vtfWzavRmdlEHguyHw1Z7mni40bqXRuFbIFvpqmzJbINQCVwEBnZBcX45NuzcRQorFcxdRV1OHJEmSJEmSJEmSxp7D3Yf53qP3cOs9t5LtyKKTkgDfgPiZ7ubudjSupdG4V8gW+mqbMhshNAJXoBPWN9jHlr1b6O7t5oKFy5k6ZSqBgCRJkiRJkiRJks6+SCR7IMsnvn0L9zbfS2euE520b0H8q+7m7oNo3EujCaGQLQzWNtVuAhYBy4CATkhhuMCOth08/eLTXL78cmZOm0kIAUmSJEmSJEmSJJ095aTMc1vX8Ue3/BEvbH+BoeIQOikJxPuAv+hu7j6EJoQ0mjAK2aHeTFNmUyAsAhYCFeiElMtljvQc4e/XPERdpo7z55xPpjpDCAFJkiRJkiRJkiSdOTFGunq7uPPH3+J9t72PI7kjJEmCTsow8FiEv8g1d7eiCSONJpRCttCdacrsCIT5wPlABTphI6MjPL/tBQ7nOpkzYw7Tz5lOOpVGkiRJkiRJkiRJp99oaZQtLVv43D1/x3ce+Q6DxUF00oaBxyLxo7nm7m1oQkmjCaeQLRzONGV2BsJCYCkQ0AkbGR1he3Y721u3MyUzhWULl5EKKSRJkiRJkiRJknT6lJMy//DUP/CZ732W1S+sZnh0GJ20CPw0Ej+aa+7ehCacNJqQCtnC4UxTZmMgXAYsRCclxsjBowd5cfcmcr05Ll16KTVVNUiSJEmSJEmSJOnUK44U+dIDX+K2B25nZ9tOYozolHgmEv8019y9DU1IaTRhFbKF7kxT5rlAuASYDwR0UvoG+3hp70vsatvJBedfQOPURkIISJIkSZIkSZIk6eTFGGk71MaHvvxh7n38Prp6u9ApkQDPROJ/zjV370QTVhpNaIVsoSvTlPlZIDQBC4E0OimjpVF2t+9h9fonyNRkmD9rPpnqDJIkSZIkSZIkSTpxA0MDND+/kg/c/gGe3vQ0I6URdEoMA49F4p/mmrt3ogktjSa8QrbQXbs400IIC4H5QAU6afmBPM9vf4GBoQHmz5rH9HOmI0mSJEmSJEmSpOO3t30v33742/zd9/+O1oOt6JQZBh6LxI/mmru3oQkvjSaF6gXVnSEdtgfCAmAJENBJKw4X2bxnM22H2ph+znTmzZxHKpVCkiRJkiRJkiRJv1ypVOKpF5/i1ntu5f6VD9A32IdOmQR4LBI/mmvu3oQmhTSaFIptxaSQLRzKNGU2BsJlwEJ0SiRJQtuhfby0dzMRaJq7mJrqGiRJkiRJkiRJkvT6uvJd3PkPd3LbA7exYedGSuUSOqWeicQ/zTV3b0OTRhpNKoVsoTvTlHkuEC4BFgABnbQYI9293azbuo7swSxL5i+lceo0UiGFJEmSJEmSJEmS/pckSdjSsoUPfunPeXD1g3R2d5LEBJ0yEXgmEv9zrrl7J5pU0mjSKWQLXZmmzM8CYRGwEKhAp8TI6Ag72nZw3+P3UZeZwryZ86jN1BJCQJIkSZIkSZIkaTJLYkJ3X46H1vw9f/LZP2F763ZGS6PolBoGfhqJf5pr7t6JJp00mpQK2UJ3pimzIxDmA+cDFeiUKZVLPL3paVoPZplxzgzOnXYulRWVSJIkSZIkSZIkTUYjoyNs3LmR2x/4Erc/cDsDQwPolBsGHovEj+aau7ehSSmNJq1CtnA405TZGQizgQuAgE6ZJEloOdDCxl0vMlQc4vw551NfW48kSZIkSZIkSdJk0jfYxw9WPcjn7/08T2x4gtHSKDrlEuCxSPxorrl7E5q00mhSK2QLhzNNmQ2BMAW4Ap1SkUh3bzeb97zE5j2baZq7mPPOPQ9JkiRJkiRJkqTJoPVgK3/7rU/wvUe/R0tHC0lM0OkQ74vwF7nm7m1oUkujSa+QLfTUNmU2QDgHuAwI6JQaHh1m/+H9rNm4huGRIkvnLyVTnSGEgCRJkiRJkiRJ0kQSY6SclHlk7SP82ef/G89ueZb+oX50WiTAt4C/yDV3t6JJL430TwrZQn9tU2YdhBrgYqAKnVKRSN9gH2s3r+W5bes4t2EGsxtnU1VZhSRJkiRJkiRJ0kRQGC7w4q4X+cuvf5Tb7r+NIz1HSJIEnRaDwDcg/lV3c/chpH+SRvofCtnCYG1TZiuEKcCbgCp0ysUY6TjawdrNaykOF5gzfQ6N5zQiSZIkSZIkSZI0nu07tI/vP34vn/rOp1m3bR3lpIxOmzzwXYif6W7uPoj0P6SR/jeFbKGvtimzJRLKAa4EKtFpMVgYZP2O9bQezDIlU8/cmXOprKhEkiRJkiRJkiRpPCkMF1j1wmpuv/827n7kbrp7u9FpNRRjcksIfLW7ubsd6X+TRvpnCtlCX/Xi2o2BpBhCeDtQgU6LJEloO9TGxl0byffnWTR3EVPrpiJJkiRJkiRJkjQetB1q44v3fZGv//3X2bBrI+VyGZ1WwzEmf5uE5Pae5p4upH8mjfQaitmhYk1TzUsQegLhEqAenRYxRnr7e9m0ZxMbdm5g5rRzmT9rPulUGkmSJEmSJEmSpLFoZHSEv3/yR3zwy3/OExueoLs3R4wRnVaHIvFvYohfzzfn+5FeQxrpdRSzxeHqBdUvhHRqf4BLgWlAQKdFqVziwJEDPLj6hxw8epD5M+cxJTOFqsoqJEmSJEmSJEmSxoLiSJGdbTu55a5P8qm7P0VXvotyuYxOqwTYG+GDyWj5rvzqfAHpdaSR3kCxrZhUL6jaHdKpzgCLgDlAQKfVtuw2Vm94guJIgWn102iobyCdSiNJkiRJkiRJknQ2JEnC/sP7eeiJh/irO/6apzc9jc6ICGyMcEsyWnoovyZfQnoDAekYNd48/VcC4TbgMnRGVFVWccXyK/j1a9/F/3nz7zL9nEYkSZIkSZIkSZLOpMHiID9Z+xP+fs2P+NmWnzEwNIDOmE2R+F9zzd1PIx2DNNIxKmQL+zNNmR0B5kFoQqddOSlz4MgBNuzcyNaWLZzbcC5zZswhnU4jSZIkSZIkSZJ0uq3fsZ5PfefTfO8n32Pzns2MjI6gM+b5SHx/rrn7SaRjlEY6DpnFmfYQwiYI84ElQECn3fDoMK0drazZ+CTZjlaWLVjKOVPOIYSAJEmSJEmSJEnSqZTEhMO5Tr543xf49Hc/w/rt6+kb7ENnTAI8DPF9wPOFbCEiHaOAdAKm3zx9SYx8KITwO0A9OqNmTpvJH/zGH/B/3PQ7zJs5j4p0BZIkSZIkSZIkSScjSRIO5w7z+HOP88X7b6O9sx2dcb0xxu8mhE/kV3YdRjpOaaQTUMgWctVN1WtDDPUhhOVABp0xg8VB1r60lk27N1FVWUXj1EbqMnWEEJAkSZIkSZIkSTpeR/NHeXLjk/zd9z/PV3/4VfoG+9AZl4sxfj4J5c/mV+aOIp2ANNIJKmaLheqm6hcCqUKAFcAUdEZ1HD3I2pfWcuDIAdLpCuaeO5fKikokSZIkSZIkSZKOxfDIMD976Vm+/vdf52sPfZ0tLVvQWdES4YtJqfy5/Or8ANIJSiOdhGK2WMgsymwOIRwGLgYa0Rk1PDLM7v27Wb9zPfsP72fuzHmcO+1cJEmSJEmSJEmS3sihrkN86juf5ps//iZrN6+lf6gfnRU7IvFjMYn35J/oKSKdhDTSSSq0FkYyTZntRHaEEN4EzAYCOmOSmNA70Mu21m2semEVEFk0ZxE11TWEEJAkSZIkSZIkSfq5JEZyfTm+99Pv8edf/hBPvfgUR3uOksQEnXEReAHie4DHe1bmikgnKSCdQtNvnH5hDNwSQvgNoAKdFelUmhVLVvCHv/mfuPaSaznv3POoSFcgSZIkSZIkSZImp1K5xMGjB3ly45N85YdfZU/7HnRWFWKMDyeh/F/zzfnDSKdIGukUKrQWuqqbqp8KMcwNISwCqtAZF2PkcPdhmp9fydaWraRCYErtFOrr6kmFFJIkSZIkSZIkaXIoJ2X2H97P4889zq33fI5vP3wXR/NH0Vk1EOGuJJQ/nG/OH0Y6hQLSaTDtxukzQiq8L8DvA3PRWVWXqeNXLn07N119EzdedSNzZ84lFVJIkiRJkiRJkqSJKYkJHUc6WPXCKlY+v5KnNz/DYGEQnXUdEb4dk/iFnlXd3UinWBrpNKhZWF0IKTYS6AuEFcBUdNaMlkZp6ciyfud6Nu7cwGBhiCXzmqiuqkaSJEmSJEmSJE0spXKJf3jqH/n8fV/ggVU/YGt2GyOjI+isa43wSYjf6FnZ3YN0GgSk06jx5um1AX4Nwt8B56OzLoTAlNopLJu/jHf/m3fzzqtvpramlhACkiRJkiRJkiRpfIoxUk7KrNu6ji/efxsv7n6RvoE+ykkZjQltEP9bjOGnuZVdRaTTJCCdAQ03NyxMxfT9IYTLgSo0JqRTaVYsWcEf/uZ/4tpLr+W8GedRka5AkiRJkiRJkiSNDzFGjuaPsmn3Ju748R08s3ktI6MjaMwYiTFuSEL59/LN+X1Ip1ka6QwoZou9NYsyqwlheoAFQAaddTFGDncfpvn5lWxt2UoqBKbUTqG+rp5USCFJkiRJkiRJksauzlwnT216mtvuv40v3n8bu/fvppyU0ZiRi/DDGPnP+ZU9B5DOgIB0BjXePH1WgP8A4d3AQjSm1GXq+JVL385NV9/EjVfdyNyZc0mFFJIkSZIkSZIkaWxIYkLHkQ6e3Pgkz2x+hic2rKG7txuNKQmQhXhnhG/nmrs7kc6QgHSGTb95+tQINxH5ZAhhGRpTQghMmzqNixdfzL9827/kd278t0ytm4okSZIkSZIkSTq7juSO8I/PPMwjax9ha3YrPX09xBjRmBL/yUsQPxZCeKK7ubsP6QwKSGdBw80NFSFJLUmlUt8C3gKk0JgSQqC+tp6l85fy7n/zbt559c1kajKkQgpJkiRJkiRJknRmJDEh35fnwSce5Nv/eBeduU76h/qJMaIxJyHG1UmMfxxTSTbfnC8hnWEB6SxqvHn6OcAtgfB7QAMQ0Ji0cM5C/q9f+3e88y3vZN7MeTTUNyBJkiRJkiRJkk6PgcIgbQdbeXzd49zz2PfZd2gfGrMi0BUjdwF/k1vZ1Y90lgSks2z6zdMbY+TfE3h3ICwBUmjMmj9rPjdffTPvuvZfsHzBcmZPn00qlUKSJEmSJEmSJJ28XF+Ove17WfXCKh5Y9QPaO9vRmFaOsCPG+IVIuD+/smsA6SwKSGNAw80NdamYemcg/BkhvB1IoTErhMDs6bO56sKrePtlb+O6y69j8dzFpEIKSZIkSZIkSZJ0fCKRXG+O57Y+xxPrn+C5rc+xp30v5aSMxrQEWBlj/EJSKq/Or8kPI51lAWmMaLihIZ2uSF9ECH8N/BYaFxrqG1gybwm/euU7+K13/BZL5y9FkiRJkiRJkiQdm85cJw8/8zA/WfsTsgezHOo6TKlcQuPCnZH4uWS0vDu/Jl9GGgMC0hjTeNOM+YH4HkL4f4FaNC7UVtcya/osrr/iev7vd/0+F55/IZUVlYQQkCRJkiRJkiRJ/12MkSQm7Du0jwdWPsCjzz7K/s52+gf70bjRE4mfAe7MNXcfRRpDAtIY1HBDQ0W6suJfAh8BLgUq0bhRXVnNFRdewR//mz/m4qY3MaNhBjVVNUiSJEmSJEmSNFmNjI7Q3dvNlpatfP+x79O8rpnh0WE0rowCm4G/LY+WHsmvyZeQxpiANIY13jTjzSHwHuBfAVPQuFKRruDNF76ZX7/2Xbzl4rewbMEy6mvrkSRJkiRJkiRpshgsDLKnfQ8vbF/P4+se55nNzzBaGkXjzjDwDzHymdzKrvVIY1RAGuMabpoxO0X8oxDCHwHz0bhTVVnFsgVLuXbFtbz9srdz/eXXU5epQ5IkSZIkSZKkiWqwMMiTLz7J2s0/Y922dWxv3c7I6Agal9pjjHeHyDe7V3XvRxrDAtI40PirjXUhFX6dEN4PXIXGpXQ6zdwZc1mxZAVvv/RtvPOt72T+zPmkUikkSZIkSZIkSRrvkiSh/Ug7jz/3OM9sXsuWvVvo6OqgXC6jcakUY3w+wBdiEn+SW50bRBrjAtI40XhTYyWB5cTwlyGE3wRq0LiUCinqMnWcM+Ucrrrozfzer/07rrvsV0ilUqRCCkmSJEmSJEmSxoskJiRJwlObnubex77PC9vX0zvQy2BhkCQmaNwajPBgjMlnA+zOrcyNIo0DAWmcabihoSZVmf6PgfBBYB6QQuNaCIH5s+bzO7/6b7nx6htZOHsh0+qnUVVZhSRJkiRJkiRJY83I6Ai5vhxth/bxxPrV/GD1g7R3thNjRONeAmQj8eO55u7vIo0zAWmcmn7z9HfFyAdDCFcDGTQhTKufxlsufgvXXX4db77gSs4/73wapzYiSZIkSZIkSdLZlCQJub4c+w/vZ/3ODazZsIa1L61lsDCIJozeGOMzkfDxnpVdzyONQwFpnGq4uSEdSF8UCH8Y4HeBmWjCSKfTXHT+hVy67DLefMGVXHHBFVyw8AJSqRSSJEmSJEmSJJ0pSZKwc99OXtj+Aut3bGBryxa2t+2gXC6jCSOBuI/Id2OMdyblpD2/Jh+RxqGANM413jz9XAjvIsb3hxDeBAQ0YaRCiob6BhbOWchlyy7j1699F1dddBVTMlOQJEmSJEmSJOl0GSgM8PSLz7Bq/So279nMvkP7yPfnSWKCJpQYYV2MyWcCPJFbmcsjjWMBaQJouGlGVYjJopAKfxkIvwek0IRTWVFJw5QG5s6cy01X3chvvP03WL5wOel0mlRIIUmSJEmSJEnSiUpiQrlcZte+XTz8zMOsfGEV7Z3t9A32MVoaRRNSORLvg/CBhNKRfHO+hDTOBaQJZPqN02ti4A+A94QQFgJVaEJbvnA577rmX3Dd5ddx/pzzaZzaSF1tHYGAJEmSJEmSJEmvJxIZHBok15ej7VAbT734FI8++1N27duFJryRGOO+CH8bCfflV3aNIE0QAWmCabihIZ2uSL+FEP4L8OvANDTh1VTVsHzhcq6/4nouW3opi85bxILZCzhnyjlIkiRJkiRJkvQ/9Q70sv/wfloPtrJpz2ae3Pgku/btojhSRJNCL8RmIp8vl8rr8mvyZaQJJCBNUNNvnD47Bn47hPA+YBGaNDLVGd60+E1c3HQxly29lIuXrGD5gmVkqjNIkiRJkiRJkiafoeIQW/ZuYXvbDrZlt7G1ZSvbstsoDBfQpNIaY/wKxIdyK3NZpAkoIE1gDTc0VKQrK341xvhnIYQbgSo0aaRCiob6BubOnMu8mfN4x5U38LZL3kbTvCYq0hVIkiRJkiRJkiau4nCRlgMtrNu+jifWr6HtUBuHug7SN9hPEhM0qYzEGFeFEL5QHi09lV+TLyJNUAFpgmu8qTEVI/NCCP9PCOFPgJlAQJNKCIH62nrqa+tZMn8JN111I9dfcT3LFiwjFVKEEAghIEmSJEmSJEkaf2KMxBiJMbJr/y5Wr1/Noz/7Ke2d7QwUBugf6ifGiCadCHQQ460xxh8QOJxbmUuQJrCANIk03tR4DYQPhRDeAUxBk1oIgVmNs7jusl/h+iuu56JFF9F4TiMNUxrI1GRIhRSSJEmSJEmSpLEniQmFYoH8QJ5cb47trdt5dutzPLH+CQ52HSTGiCa9nhjjyhD5WPeq7h1Ik0RAmmQabmhoSFdW/Dfgd4BlQBrpn0ytm8rFTRdzzYprWL5wOXPPPY95M+cxZ8YcUiGFJEmSJEmSJOnsSZKE9iPtHO4+TMfRg+zat4tntzzL1pat9A32If0PI8CWSPxOMlr+Rn5Nvog0iQSkSWj6zdOrYuT6AH9ACL8ONCD9bzLVGebPms/yhctZOn8pFyy8gAsXXcDCOQupra5FkiRJkiRJknT69Q8N0HJgL3sPtLB7/y62ZbfTerCV9s52CsMFpH/mSIzxRxG+FQkb8iu7SkiTTECapBpuaAjpivTcGMI7ifHPQggXAwHpn0mFFLMaZzFnxhzmzJjNBedfwNsueRvLFy5nVuMsJEmSJEmSJEmnTmeuk817NrNh5wa2Z7dz4GgHR3JHONpzlCQmSK8hibAB+DIx/jQplY/k1+Qj0iQUkCa5hptmVIWYLAqp8JeB8LtAGul1hBCoqaqhvraemuoazptxHtesuIbLll3GWy9+Cw31DQQCIQRCCEiSJEmSJEmSXi3GSIyRSKR3oJfNe17iZy/9jI07N7K/cz/9Q/0MFgYpjhSJMSK9gXKM3EHgb5LI0fzKrhGkSSwg6WUNNzdUBtL/IhD+PMAlQB0QkI5RKpVi4eyFXLb0Ui6/4HKuvOBKZjTMoD5TT6YmQ211Lel0GkmSJEmSJEmaTMrlMkPDQwwWBhksDNLV28WGnRt4ceeLbNqzmX2H95EkCdJxiMBghJci8VOR8k/zzflRJBGQ9AqNNzUugvAfQwi/CzQBAekEzZ81nxVNK1g8dxFL5i/lvBnnMWf6bGbPmM3UuqmkU2kkSZIkSZIkaSIZGR0hP5DncPdhjvYc5cDRDlo7suxo28nu/btp72xHOgkRaIkx3gfxW7mVuVYk/UJA0qs03NBQm66s+FXg3wO/CVQhnaSKdAXTz5nO4rmLWTx3MXNmzGHmtJksmDWfWY2zmDHtXGacM53KikokSZIkSZIkabzozHVyJHeEzlwnrQfbONjVwaGuw2QPZmnvbOdoz1GkU2QQWAV8szxaWp1fkx9C0isEJL2u6TdOXxgDvx1C+EPgIqRTqCJdQV2mjsapjUytm0p9bT0N9Q2cd+55LJnbxLxZ81g6fxlzzz2PqsoqJEmSJEmSJOlsGhkdoePoQfa07+ZA5wH2Hd7H4VwnR3JH6Bvso2+wj658F4OFQZKYIJ1im2KMd4TAT7ubu1uQ9JoCkl5Xww0NpCpSNQSWB1L/BfhdoB4ISKdBCIHKikpqqmqoqqwiU11DbU0dC2Yt4E2L30TTvMWsWHIJi+acT011DYEAAQKBnwshIEmSJEmSJEnHI8bIz0UiRIhEisNFWg+1sWXvS7QcyLItu439nfsZKg5SGC4yMjrC8Ogwo6OjJDFBOk0ikCfGO2PkTqA1KZeH82vySHptAUnHbPqN06+MgU+GEK4CGpDOksqKSubNnMdFiy5iVuMsli1YxvRzGpk3cx5T66ZSXVlNZUUl1VXVVFVWkU6nqa2uJYSAJEmSJEmSpMklxsjQ8BDlcpmR0RGGR4YZLY0yPDpM32AfB44coLs3x+79u+nMdbK9dTsHjhxgtDSKdJZEIBdjfD4hvDe/smsHko5JQNJxmfarjY0hlfr9EPh3wMVAHdIYMrVuKrMaZ9E4tZHzzj2PmY0zmZKZQtO8JjJVNZwzpYFMdYa6TC3nTGmgqrKKTFUNU2qnIEmSJEmSJGl8GhgaoDBSZGR0hN6BPIOFIQrDBXoH8hRGirQcaGGgMMCR3BEOHj1Iri9HZ66TvsE+pDGmP8b4AsR7gHtzK3MFJB2zgKTj1nBDQ0UqnXpTSKV+O8LvB1gEBKQxrrqympnTZjKldgpTp0xl5rSZZKozTMnUMa1+Gj9XU13DzGmz+Ln62imcU99AOpViSm09jfXT+Lm6TB3Tpk4jFVJIkiRJkiRJOrWSmNDT18NgYZCfy/X3MDDUTzlJ6O3P0z80wM8d6emkOFzk53r6exgoDFIYLnCk5wh9A30MDA1wpOcIw6PDSONAAmyJ8BAx3p+Uynvya/IJko5LQNIJa7hpRn2KeCmEPwuB3wCqkca5yopKptZN5edqqmrI1GRIhRQ1/3978Pak50EXcPz7e97dzWGT5tm8myatmSbtkEMLTcG2UMpM2TZ5waFlUGEYZQSn3uiMd9x44R/gOOONznAhjoMyygUziIocd1O3tQd6EEiR0CYx9ESTNPsmT7K72c3mfZ6fqXiB2hSa7iZ7+H4+A6sZXDPI6wb6BxhcM0gQDK0v2dLewhu5Zt0GtmzcTFEUXMrQ+iGGy020Wi0kSZIkSZKkpaquayaqk5yePM2lNE3D8VMnODt1hjdyvHuc05MVSTI9M83chTleNz0zzezcLE02zMzOMDs3y+vOTp/lQu8C0jJwHvgi8Pk6eb4am5hE0mUJJL1tG/cNXwv5wYj4Y+BWoEBaIfpaffT39fNGWq0WA30DvJm+Vh99fX0EgSRJkiRJkrRUJUmv16NX93gzc7056rrmjVzoXaBX95BWkAZ4NDP/LOCx7lj3FJLelkDSvCk75cYWrc9A/C5wCzCAJEmSJEmSJEmSft4c8Bzw+fpC72+r8WoKSfMikDTvyn3DNxbkZyPiXmAHMIAkSZIkSZIkSdLKVgNHM/M7kXyuu7/7YyTNq0DSgmh32v2Z3AN8PCLuB7YCBZIkSZIkSZIkSStLA7ySmd+G/Edg7NTYqTkkzbtA0oIpR8ooWq1hgvcQ/HYQvwP0IUmSJEmSJEmStAJk5iTE30N+leT7TV1PVONVImlBBJIWXDlSFkV/qyS5OyL+CLgbKJAkSZIkSZIkSVqeGuDxpmn+JKJ4vOn1zlbjVYOkBRVIuqLKfcMbiuATAQ8CtwHrkCRJkiRJkiRJWvoSqICnMps/b3rNQ9V4dR5JV0wg6aoo9w1fX5APRsTHgFuB1UiSJEmSJEmSJC1NFfAD4Ms1vS9Xo1UXSVdcIOmqanfat2fyQEQ8AOwBBpAkSZIkSZIkSVoa5hKeDPhKk3zj9NjEYSRdNYGkq67daa/JZHcEnUwejIhdQCBJkiRJkiRJkrQ45UXPR/CFJvl6EoersYk5JF1VgaRFo91pr8lkUwQPZvKHETEMBJIkSZIkSZIkSYtDXjQRwecy+UIEJ7uj3RkkLQqBpEWp3Wlfm8kfRMQngJuAQSRJkiRJkiRJkq6OaeBoZn6H5K+auj5UjVeJpEUlkLSotTvtnZl8KiI+AtwKrEaSJEmSJEmSJOnKmAV+mJnfiOBL3dHuISQtWoGkJaHdad+eyQMR8QCwBxhAkiRJkiRJkiRpYUwC383MhyP4Vne0++9IWvQCSUtGu9Nek8nuCDpJ/FbAbUCBJEmSJEmSJEnS/GiARxP+DnikSX5SjU3MIWlJCCQtOe1Oe00Sw8CvBXwW2AkUSJIkSZIkSZIkXZ4GeDwz/zQivlcnE9XYxBySlpRA0pJWdsrBoOgUFL8PvBvYBLSQJEmSJEmSJEl6cz3gNeDZzOYvml7zUDVenUfSkhVIWhbKkXJ90d+6l+STEXE3cAPQQpIkSZIkSZIk6X+rgZcy83GILza93hPVeDWJpCUvkLSsDN23cX0Uxb0ReS/Eh4EdQB+SJEmSJEmSJGml60EezeQh4NvZ5P7TD52aRNKyEUhaltqd9jWZ3BLEfQSfAt6JJEmSJEmSJElaqQ5C/kMm3yTz+aZuTlXjVSJpWQkkLWvtve21FHF9wscCPg3sAQJJkiRJkiRJkrTczSX5LMnnIuJhyJPd0e4UkpatQNKKUY6U64pW6x6CT0fEB4BNwGokSZIkSZIkSdJycQ44nplPQP5l02uerMarOSStCIGkFandad8HcT/wfuBmYAMQSJIkSZIkSZKkpSaB08CPyXy4Ib58emziAJJWnEDSilWOlH1FX7ELYiQi7gI+AmxEkiRJkiRJkiQtFceA0cx8BPKxptccqcarHpJWpEDSileOlK1Wf+vaTG4nYl/A/cA7kCRJkiRJkiRJi9WRhK8D3wzyQHe0exxJK14gSf+j3DccAeuDvAHiw5CfiYh3Ai0kSZIkSZIkSdLVVmfmjyD+GvJbSRxPmKzGJhJJuiiQpDfR7rR/g+TjRNwNDAPrgECSJEmSJEmSJC20BpgETpH5OMFXuqPdryJJlxBI0i9QjpQD0YqdEcVHIuJu4BbgRqAPSZIkSZIkSZI032aBl4H/SPKRbJqxrPNQNV7NIUlvIpCkt6DslBsLWu8juTsi7gLuAEokSZIkSZIkSdLb0QCvAQcy8zGCpxvqp6rR6hSS9EsKJOkytPe2VxHcCOwi4q6ETwbchCRJkiRJkiRJeqt+BPnPmTwKHI7kpe7+7nkk6S0KJOltKEfKotXfWpvEFjLvIvi9IO4EBoFAkiRJkiRJkiT9XwlMZ+YY5JciimcgT9YX6nPVeNUgSZcpkKR51t7b3p0FHyX5zYi4ERgCBpAkSZIkSZIkaeWaAU5l5gsEf9NQ/0s1Wh1HkuZRIEkLZOi+oQ1Fq7gX4kPAHmA3sBEIJEmSJEmSJEla/hJ4BTgC+STJGMkj3f3dC0jSAggkaYGVI+WqolVsJ+IDEdwJ8S5gD3ANkiRJkiRJkiQtPzOQPyDjSYLHyHym7tUvV+NVjSQtoECSrqCyUw4V2doKsQvyzoj4IHAH0EKSJEmSJEmSpKWrSTgIPAz5XTKfzTqPnv7X01NI0hUSSNJVUI6URdEqBqMoNmTmtgh+HeKjwE5+JpAkSZIkSZIkafFKfuYQ5NeyYYwiniOzaqKeqkarGkm6wgJJWiTKkXKg1de6LYO9JB+NiO1ACawBAkmSJEmSJEmSrp4GmAaqzHyJ4J+i4Vt1XT9fjVdzSNIiEEjSItTe2+4nuCfhHoJbg3gHcBMwiCRJkiRJkiRJV85p4BCZP0n4fhKPJDxTjU30kKRFJpCkRa7slNcUtPaQ3BHB7RC/CmwH1iJJkiRJkiRJ0vxqgC5wEDiQcJBsnmh6zeFqvJpBkhaxQJKWiLJTRlBsDortZN4UwbtJRojYA6xCkiRJkiRJkqTLdybJ70fG/iSfCvhpZr7Y1M1UNV4hSUtBIElLUDlStlr9rbUkZcImIt8bFB8C9gLrgUCSJEmSJEmSpEtLYCbhGcivkYwRvBYNVXd/9xyStAQFkrTMlPuG31tAh2BvwDZgHVACA0iSJEmSJEmSVqJZYBKYzszjBE8HPFRfqB+txqsJJGmZCCRpmSpHyr5Wq7U9C95Dck9E7ASuB7YCG4BAkiRJkiRJkrQc9YCTwDHgWMJByO+RebDpNYer8WoGSVqGAklaAcqRMopWsZkidpDcQrA7YDfELcANSJIkSZIkSZKWurPAUeA54LmEw2QepsnDTdOcqcarRJKWuUCSVqCyU64rsrguiK0ZsQPyXZHsSbglIjYhSZIkSZIkSVr0El4I8mkyvpfBc5A/jYZX67o+UY1XPSRphQkkaYUr9w33BTlYwGDCuoBtEHcRvC8z74iITUCBJEmSJEmSJOlqOwv8WyaPQD5NxEuQZ6Nhqq7r2Wq8SiRpBQskSW9qqDO0u6C4M+H9QewBtgDrgUFgNdBCkiRJkiRJkjQfamAWmAamgGngaCbfbWB/NTbxNJKkSwokSW9JuW94ewF3BHlzwo6I2ApsBK4HNiFJkiRJkiRJ+mVVQAVMACcz81jAC0n8uMk8QF0fq8arKSRJv5RAknTZypFyVVEUmymKrRHsBHYA1wGbga3AZmAzkiRJkiRJkqQ54FXgCPAa8ApwNMnjZL7cULxYjU10kSRdtkCSNG/KTtlXZFFCUQa5MSM2BGyBvJGMbcCODG4I2IYkSZIkSZIkLWOZ+VoQzwOHIQ8l/CQiTmRygmjONDSnqtHqPJKkeRNIkhZU2SmLIovVUKwOck1GrIYcIrk5iF2Qt2XEjoBdSJIkSZIkSdISlJlnIuKHSR4hOQAcAH4aMJ3EDE0z0zTNbDVeJZKkBRNIkhaFslOuLbK4GYpdQe7JiJ0Bu4EBoB9YBfQDq4B+YABJkiRJkiRJWhg1MAfMAHPADDCXmSci4j+TPEjGqwkvJjxbjU1MIkm66gJJ0qJVjpT9FMV1RUSbiK1EDgexDRgCrgNKYAAYAtYC64G1wDogkCRJkiRJkqRLuwBUwDngHDALVMB0Zp6MiGNJHiHjREMeIepj1Wg1iSRp0QokSUtWuW94C7C2ILdAlBFszMwyItrAMFACG4ES2AIMAG1gDZIkSZIkSZKWuy4wCVRABUwmdAOmgFPAOeBEkmfJqKCZaojjRF1Vo9VZJElLTiBJWnbKkTIoinVRFGsD1hM5GMQGoC8z10fEABcl7AL6SPoCrktYH9Ai2A6sBgaArcBqJEmSJEmSJF1tF4BjwBSvSyYTXuKiiJxL4mVgJjKPEVEBk8BsktNknEuYSZikaWZpmqlqvEokSctKIElascp9w2uBCIiAAaAFRJCriSgSImAVUCS5NuEdZKzmooB3A/38f60IfgXYzKUVmbktIoaRJEmSJEmSlqGEQwFn+EUyqyQO83OCPNQQZ7goyCrgRSLOA3nRXETUvC6zTmKW/5aZcD6Jml5vrhqvekiSVpz/ArD96DKLs5a2AAAAJXRFWHRkYXRlOmNyZWF0ZQAyMDIyLTEwLTI0VDExOjQ5OjQ3KzAwOjAwCh4YuwAAACV0RVh0ZGF0ZTptb2RpZnkAMjAyMi0xMC0yNFQxMTo0OTo0NyswMDowMHtDoAcAAAAASUVORK5CYII=;" vertex="1" parent="1">
          <mxGeometry x="521.89" y="400" width="76.21" height="76.21" as="geometry" />
        </mxCell>
        <mxCell id="SnS-91N-TXIG-HKsuQVp-27" value="Database" style="text;html=1;align=center;verticalAlign=middle;resizable=0;points=[];autosize=1;strokeColor=none;fillColor=none;" vertex="1" parent="1">
          <mxGeometry x="525" y="476.21" width="70" height="30" as="geometry" />
        </mxCell>
        <mxCell id="SnS-91N-TXIG-HKsuQVp-31" style="rounded=0;orthogonalLoop=1;jettySize=auto;html=1;exitX=1;exitY=0.5;exitDx=0;exitDy=0;startArrow=classic;startFill=1;" edge="1" parent="1" source="SnS-91N-TXIG-HKsuQVp-5">
          <mxGeometry relative="1" as="geometry">
            <mxPoint x="520" y="260" as="targetPoint" />
            <Array as="points">
              <mxPoint x="480" y="270" />
            </Array>
          </mxGeometry>
        </mxCell>
        <mxCell id="SnS-91N-TXIG-HKsuQVp-32" style="rounded=0;orthogonalLoop=1;jettySize=auto;html=1;exitX=1;exitY=0.5;exitDx=0;exitDy=0;startArrow=classic;startFill=1;" edge="1" parent="1" source="SnS-91N-TXIG-HKsuQVp-5">
          <mxGeometry relative="1" as="geometry">
            <mxPoint x="444" y="300" as="sourcePoint" />
            <mxPoint x="520" y="300" as="targetPoint" />
          </mxGeometry>
        </mxCell>
        <mxCell id="SnS-91N-TXIG-HKsuQVp-34" style="edgeStyle=orthogonalEdgeStyle;rounded=0;orthogonalLoop=1;jettySize=auto;html=1;entryX=0.25;entryY=0;entryDx=0;entryDy=0;startArrow=classic;startFill=1;" edge="1" parent="1">
          <mxGeometry relative="1" as="geometry">
            <mxPoint x="559.71" y="348" as="sourcePoint" />
            <mxPoint x="559.71" y="400" as="targetPoint" />
            <Array as="points">
              <mxPoint x="559.71" y="360" />
              <mxPoint x="559.71" y="360" />
            </Array>
          </mxGeometry>
        </mxCell>
        <mxCell id="SnS-91N-TXIG-HKsuQVp-35" style="edgeStyle=orthogonalEdgeStyle;rounded=0;orthogonalLoop=1;jettySize=auto;html=1;entryX=0.25;entryY=0;entryDx=0;entryDy=0;startArrow=classic;startFill=1;" edge="1" parent="1">
          <mxGeometry relative="1" as="geometry">
            <mxPoint x="580" y="348" as="sourcePoint" />
            <mxPoint x="580" y="400" as="targetPoint" />
            <Array as="points">
              <mxPoint x="580" y="360" />
              <mxPoint x="580" y="360" />
            </Array>
          </mxGeometry>
        </mxCell>
      </root>
    </mxGraphModel>
  </diagram>
</mxfile>
